Fira Sans-Regular.ufo
<glyph name="exclam" format="1">
  <advance width="241"/>
  <unicode hex="0021"/>
  <outline>
    <contour>
      <point x="68" y="689" type="line"/>
      <point x="79" y="230" type="line"/>
      <point x="160" y="230" type="line"/>
      <point x="170" y="689" type="line"/>
    </contour>
    <contour>
      <point x="81" y="127"/>
      <point x="51" y="96"/>
      <point x="51" y="58" type="curve" smooth="yes"/>
      <point x="51" y="19"/>
      <point x="81" y="-12"/>
      <point x="120" y="-12" type="curve" smooth="yes"/>
      <point x="160" y="-12"/>
      <point x="190" y="19"/>
      <point x="190" y="58" type="curve" smooth="yes"/>
      <point x="190" y="96"/>
      <point x="160" y="127"/>
      <point x="120" y="127" type="curve" smooth="yes"/>
    </contour>
  </outline>
</glyph>
<glyph name="numbersign" format="1">
  <advance width="518"/>
  <unicode hex="0023"/>
  <outline>
    <contour>
      <point x="378" y="669" type="line"/>
      <point x="290" y="0" type="line"/>
      <point x="368" y="0" type="line"/>
      <point x="456" y="669" type="line"/>
    </contour>
    <contour>
      <point x="15" y="232" type="line"/>
      <point x="15" y="163" type="line"/>
      <point x="466" y="163" type="line"/>
      <point x="466" y="232" type="line"/>
    </contour>
    <contour>
      <point x="146" y="669" type="line"/>
      <point x="58" y="0" type="line"/>
      <point x="136" y="0" type="line"/>
      <point x="224" y="669" type="line"/>
    </contour>
    <contour>
      <point x="52" y="517" type="line"/>
      <point x="52" y="447" type="line"/>
      <point x="503" y="447" type="line"/>
      <point x="503" y="517" type="line"/>
    </contour>
  </outline>
</glyph>
<glyph name="dollar" format="1">
  <advance width="531"/>
  <unicode hex="0024"/>
  <outline>
    <contour>
      <point x="230" y="-7" type="line"/>
      <point x="230" y="-155" type="line"/>
      <point x="310" y="-155" type="line"/>
      <point x="310" y="2" type="line"/>
    </contour>
    <contour>
      <point x="230" y="824" type="line"/>
      <point x="230" y="662" type="line"/>
      <point x="310" y="664" type="line"/>
      <point x="310" y="824" type="line"/>
    </contour>
    <contour>
      <point x="140" y="680"/>
      <point x="52" y="608"/>
      <point x="52" y="505" type="curve" smooth="yes"/>
      <point x="52" y="402"/>
      <point x="120" y="352"/>
      <point x="250" y="312" type="curve" smooth="yes"/>
      <point x="364" y="277"/>
      <point x="395" y="248"/>
      <point x="395" y="183" type="curve" smooth="yes"/>
      <point x="395" y="103"/>
      <point x="330" y="64"/>
      <point x="251" y="64" type="curve" smooth="yes"/>
      <point x="179" y="64"/>
      <point x="124" y="90"/>
      <point x="79" y="134" type="curve"/>
      <point x="25" y="75" type="line"/>
      <point x="81" y="20"/>
      <point x="156" y="-12"/>
      <point x="252" y="-12" type="curve" smooth="yes"/>
      <point x="403" y="-12"/>
      <point x="491" y="70"/>
      <point x="491" y="186" type="curve" smooth="yes"/>
      <point x="491" y="314"/>
      <point x="400" y="356"/>
      <point x="293" y="389" type="curve" smooth="yes"/>
      <point x="173" y="426"/>
      <point x="147" y="453"/>
      <point x="147" y="509" type="curve" smooth="yes"/>
      <point x="147" y="573"/>
      <point x="200" y="604"/>
      <point x="267" y="604" type="curve" smooth="yes"/>
      <point x="323" y="604"/>
      <point x="371" y="587"/>
      <point x="417" y="544" type="curve"/>
      <point x="470" y="602" type="line"/>
      <point x="415" y="653"/>
      <point x="356" y="680"/>
      <point x="263" y="680" type="curve" smooth="yes"/>
    </contour>
  </outline>
</glyph>
<glyph name="percent" format="1">
  <advance width="826"/>
  <unicode hex="0025"/>
  <outline>
    <contour>
      <point x="150" y="11" type="line"/>
      <point x="214" y="-31" type="line"/>
      <point x="677" y="669" type="line"/>
      <point x="613" y="711" type="line"/>
    </contour>
    <contour>
      <point x="272" y="617"/>
      <point x="288" y="562"/>
      <point x="288" y="510" type="curve" smooth="yes"/>
      <point x="288" y="456"/>
      <point x="272" y="403"/>
      <point x="207" y="403" type="curve" smooth="yes"/>
      <point x="143" y="403"/>
      <point x="126" y="458"/>
      <point x="126" y="510" type="curve" smooth="yes"/>
      <point x="126" y="564"/>
      <point x="143" y="617"/>
      <point x="207" y="617" type="curve" smooth="yes"/>
    </contour>
    <contour>
      <point x="114" y="679"/>
      <point x="45" y="614"/>
      <point x="45" y="510" type="curve" smooth="yes"/>
      <point x="45" y="406"/>
      <point x="114" y="341"/>
      <point x="207" y="341" type="curve" smooth="yes"/>
      <point x="301" y="341"/>
      <point x="370" y="406"/>
      <point x="370" y="510" type="curve" smooth="yes"/>
      <point x="370" y="614"/>
      <point x="301" y="679"/>
      <point x="207" y="679" type="curve" smooth="yes"/>
    </contour>
    <contour>
      <point x="684" y="263"/>
      <point x="700" y="209"/>
      <point x="700" y="157" type="curve" smooth="yes"/>
      <point x="700" y="103"/>
      <point x="684" y="50"/>
      <point x="619" y="50" type="curve" smooth="yes"/>
      <point x="555" y="50"/>
      <point x="538" y="105"/>
      <point x="538" y="157" type="curve" smooth="yes"/>
      <point x="538" y="211"/>
      <point x="555" y="263"/>
      <point x="619" y="263" type="curve" smooth="yes"/>
    </contour>
    <contour>
      <point x="525" y="326"/>
      <point x="456" y="261"/>
      <point x="456" y="157" type="curve" smooth="yes"/>
      <point x="456" y="53"/>
      <point x="525" y="-12"/>
      <point x="619" y="-12" type="curve" smooth="yes"/>
      <point x="713" y="-12"/>
      <point x="781" y="53"/>
      <point x="781" y="157" type="curve" smooth="yes"/>
      <point x="781" y="261"/>
      <point x="713" y="326"/>
      <point x="619" y="326" type="curve" smooth="yes"/>
    </contour>
  </outline>
</glyph>
<glyph name="ampersand" format="1">
  <advance width="763"/>
  <unicode hex="0026"/>
  <outline>
    <contour>
      <point x="186" y="701"/>
      <point x="123" y="633"/>
      <point x="123" y="546" type="curve" smooth="yes"/>
      <point x="123" y="477"/>
      <point x="161" y="431"/>
      <point x="220" y="374" type="curve"/>
      <point x="135" y="320"/>
      <point x="81" y="262"/>
      <point x="81" y="175" type="curve" smooth="yes"/>
      <point x="81" y="61"/>
      <point x="173" y="-12"/>
      <point x="305" y="-12" type="curve" smooth="yes"/>
      <point x="400" y="-12"/>
      <point x="470" y="21"/>
      <point x="526" y="82" type="curve"/>
      <point x="623" y="-12" type="line"/>
      <point x="689" y="42" type="line"/>
      <point x="577" y="147" type="line"/>
      <point x="610" y="197"/>
      <point x="641" y="262"/>
      <point x="666" y="344" type="curve"/>
      <point x="580" y="369" type="line"/>
      <point x="565" y="304"/>
      <point x="543" y="247"/>
      <point x="520" y="200" type="curve"/>
      <point x="344" y="366" type="line"/>
      <point x="419" y="410"/>
      <point x="485" y="463"/>
      <point x="485" y="549" type="curve" smooth="yes"/>
      <point x="485" y="636"/>
      <point x="411" y="701"/>
      <point x="302" y="701" type="curve" smooth="yes"/>
    </contour>
    <contour>
      <point x="473" y="133" type="line"/>
      <point x="428" y="87"/>
      <point x="379" y="61"/>
      <point x="315" y="61" type="curve" smooth="yes"/>
      <point x="233" y="61"/>
      <point x="175" y="104"/>
      <point x="175" y="178" type="curve" smooth="yes"/>
      <point x="175" y="237"/>
      <point x="207" y="281"/>
      <point x="273" y="324" type="curve"/>
    </contour>
    <contour>
      <point x="359" y="633"/>
      <point x="395" y="600"/>
      <point x="395" y="544" type="curve" smooth="yes"/>
      <point x="395" y="491"/>
      <point x="354" y="453"/>
      <point x="292" y="415" type="curve"/>
      <point x="244" y="460"/>
      <point x="213" y="495"/>
      <point x="213" y="547" type="curve" smooth="yes"/>
      <point x="213" y="596"/>
      <point x="245" y="633"/>
      <point x="303" y="633" type="curve" smooth="yes"/>
    </contour>
  </outline>
</glyph>
<glyph name="quotesingle" format="1">
  <advance width="219"/>
  <unicode hex="0027"/>
  <outline>
    <contour>
      <point x="144" y="427" type="line"/>
      <point x="159" y="689" type="line"/>
      <point x="60" y="689" type="line"/>
      <point x="75" y="427" type="line"/>
    </contour>
  </outline>
</glyph>
<glyph name="parenleft" format="1">
  <advance width="324"/>
  <unicode hex="0028"/>
  <outline>
    <contour>
      <point x="128" y="706"/>
      <point x="40" y="587"/>
      <point x="40" y="350" type="curve" smooth="yes"/>
      <point x="40" y="113"/>
      <point x="128" y="-6"/>
      <point x="226" y="-145" type="curve"/>
      <point x="284" y="-105" type="line"/>
      <point x="194" y="28"/>
      <point x="136" y="136"/>
      <point x="136" y="350" type="curve" smooth="yes"/>
      <point x="136" y="565"/>
      <point x="194" y="672"/>
      <point x="284" y="805" type="curve"/>
      <point x="226" y="845" type="line"/>
    </contour>
  </outline>
</glyph>
<glyph name="parenright" format="1">
  <advance width="324"/>
  <unicode hex="0029"/>
  <outline>
    <contour>
      <point x="40" y="805" type="line"/>
      <point x="130" y="672"/>
      <point x="188" y="565"/>
      <point x="188" y="350" type="curve" smooth="yes"/>
      <point x="188" y="136"/>
      <point x="130" y="28"/>
      <point x="40" y="-105" type="curve"/>
      <point x="98" y="-145" type="line"/>
      <point x="196" y="-6"/>
      <point x="284" y="113"/>
      <point x="284" y="350" type="curve" smooth="yes"/>
      <point x="284" y="587"/>
      <point x="196" y="706"/>
      <point x="98" y="845" type="curve"/>
    </contour>
  </outline>
</glyph>
<glyph name="plus" format="1">
  <advance width="499"/>
  <unicode hex="002B"/>
  <outline>
    <contour>
      <point x="207" y="519" type="line"/>
      <point x="207" y="369" type="line"/>
      <point x="62" y="369" type="line"/>
      <point x="62" y="293" type="line"/>
      <point x="207" y="293" type="line"/>
      <point x="207" y="144" type="line"/>
      <point x="291" y="144" type="line"/>
      <point x="291" y="293" type="line"/>
      <point x="437" y="293" type="line"/>
      <point x="437" y="369" type="line"/>
      <point x="291" y="369" type="line"/>
      <point x="291" y="519" type="line"/>
    </contour>
  </outline>
</glyph>
<glyph name="comma" format="1">
  <advance width="240"/>
  <unicode hex="002C"/>
  <outline>
    <contour>
      <point x="80" y="127"/>
      <point x="50" y="96"/>
      <point x="50" y="58" type="curve" smooth="yes"/>
      <point x="50" y="34"/>
      <point x="61" y="13"/>
      <point x="78" y="0" type="curve"/>
      <point x="38" y="-166" type="line"/>
      <point x="104" y="-166" type="line"/>
      <point x="171" y="-13" type="line" smooth="yes"/>
      <point x="184" y="16"/>
      <point x="189" y="36"/>
      <point x="189" y="58" type="curve" smooth="yes"/>
      <point x="189" y="96"/>
      <point x="159" y="127"/>
      <point x="119" y="127" type="curve" smooth="yes"/>
    </contour>
  </outline>
</glyph>
<glyph name="hyphen" format="1">
  <advance width="403"/>
  <unicode hex="002D"/>
  <outline>
    <contour>
      <point x="343" y="274" type="line"/>
      <point x="343" y="352" type="line"/>
      <point x="60" y="352" type="line"/>
      <point x="60" y="274" type="line"/>
    </contour>
  </outline>
</glyph>
<glyph name="period" format="1">
  <advance width="240"/>
  <unicode hex="002E"/>
  <outline>
    <contour>
      <point x="80" y="127"/>
      <point x="50" y="96"/>
      <point x="50" y="58" type="curve" smooth="yes"/>
      <point x="50" y="19"/>
      <point x="80" y="-12"/>
      <point x="119" y="-12" type="curve" smooth="yes"/>
      <point x="159" y="-12"/>
      <point x="189" y="19"/>
      <point x="189" y="58" type="curve" smooth="yes"/>
      <point x="189" y="96"/>
      <point x="159" y="127"/>
      <point x="119" y="127" type="curve" smooth="yes"/>
    </contour>
  </outline>
</glyph>
<glyph name="slash" format="1">
  <advance width="520"/>
  <unicode hex="002F"/>
  <outline>
    <contour>
      <point x="105" y="-85" type="line"/>
      <point x="184" y="-104" type="line"/>
      <point x="415" y="789" type="line"/>
      <point x="337" y="807" type="line"/>
    </contour>
  </outline>
</glyph>
<glyph name="zero" format="1">
  <advance width="558"/>
  <unicode hex="0030"/>
  <outline>
    <contour>
      <point x="129" y="679"/>
      <point x="55" y="556"/>
      <point x="55" y="334" type="curve" smooth="yes"/>
      <point x="55" y="112"/>
      <point x="129" y="-12"/>
      <point x="279" y="-12" type="curve" smooth="yes"/>
      <point x="429" y="-12"/>
      <point x="503" y="112"/>
      <point x="503" y="334" type="curve" smooth="yes"/>
      <point x="503" y="555"/>
      <point x="429" y="679"/>
      <point x="279" y="679" type="curve" smooth="yes"/>
    </contour>
    <contour>
      <point x="362" y="606"/>
      <point x="407" y="530"/>
      <point x="407" y="334" type="curve" smooth="yes"/>
      <point x="407" y="137"/>
      <point x="362" y="61"/>
      <point x="279" y="61" type="curve" smooth="yes"/>
      <point x="195" y="61"/>
      <point x="151" y="137"/>
      <point x="151" y="334" type="curve" smooth="yes"/>
      <point x="151" y="530"/>
      <point x="195" y="606"/>
      <point x="279" y="606" type="curve" smooth="yes"/>
    </contour>
  </outline>
</glyph>
<glyph name="one" format="1">
  <advance width="433"/>
  <unicode hex="0031"/>
  <outline>
    <contour>
      <point x="242" y="669" type="line"/>
      <point x="35" y="541" type="line"/>
      <point x="75" y="476" type="line"/>
      <point x="231" y="571" type="line"/>
      <point x="231" y="0" type="line"/>
      <point x="323" y="0" type="line"/>
      <point x="323" y="669" type="line"/>
    </contour>
  </outline>
</glyph>
<glyph name="two" format="1">
  <advance width="495"/>
  <unicode hex="0032"/>
  <outline>
    <contour>
      <point x="144" y="679"/>
      <point x="79" y="645"/>
      <point x="25" y="578" type="curve"/>
      <point x="87" y="530" type="line"/>
      <point x="130" y="581"/>
      <point x="167" y="603"/>
      <point x="223" y="603" type="curve" smooth="yes"/>
      <point x="288" y="603"/>
      <point x="333" y="562"/>
      <point x="333" y="492" type="curve" smooth="yes"/>
      <point x="333" y="383"/>
      <point x="275" y="319"/>
      <point x="39" y="73" type="curve"/>
      <point x="39" y="0" type="line"/>
      <point x="434" y="0" type="line"/>
      <point x="445" y="77" type="line"/>
      <point x="144" y="77" type="line"/>
      <point x="349" y="282"/>
      <point x="429" y="371"/>
      <point x="429" y="496" type="curve" smooth="yes"/>
      <point x="429" y="600"/>
      <point x="351" y="679"/>
      <point x="228" y="679" type="curve" smooth="yes"/>
    </contour>
  </outline>
</glyph>
<glyph name="four" format="1">
  <advance width="532"/>
  <unicode hex="0034"/>
  <outline>
    <contour>
      <point x="40" y="231" type="line"/>
      <point x="40" y="165" type="line"/>
      <point x="502" y="165" type="line"/>
      <point x="502" y="238" type="line"/>
      <point x="137" y="238" type="line"/>
      <point x="318" y="647" type="line"/>
      <point x="241" y="679" type="line"/>
    </contour>
    <contour>
      <point x="335" y="418" type="line"/>
      <point x="326" y="222" type="line"/>
      <point x="326" y="0" type="line"/>
      <point x="415" y="0" type="line"/>
      <point x="415" y="418" type="line"/>
    </contour>
  </outline>
</glyph>
<glyph name="five" format="1">
  <advance width="501"/>
  <unicode hex="0035"/>
  <outline>
    <contour>
      <point x="71" y="669" type="line"/>
      <point x="71" y="332" type="line"/>
      <point x="143" y="332" type="line"/>
      <point x="175" y="347"/>
      <point x="202" y="355"/>
      <point x="238" y="355" type="curve" smooth="yes"/>
      <point x="307" y="355"/>
      <point x="360" y="319"/>
      <point x="360" y="216" type="curve" smooth="yes"/>
      <point x="360" y="118"/>
      <point x="307" y="63"/>
      <point x="223" y="63" type="curve"/>
      <point x="165" y="63"/>
      <point x="122" y="84"/>
      <point x="82" y="127" type="curve"/>
      <point x="26" y="73" type="line"/>
      <point x="78" y="20"/>
      <point x="139" y="-12"/>
      <point x="224" y="-12" type="curve"/>
      <point x="363" y="-12"/>
      <point x="456" y="81"/>
      <point x="456" y="214" type="curve" smooth="yes"/>
      <point x="456" y="347"/>
      <point x="379" y="426"/>
      <point x="266" y="426" type="curve" smooth="yes"/>
      <point x="230" y="426"/>
      <point x="194" y="418"/>
      <point x="159" y="400" type="curve"/>
      <point x="159" y="597" type="line"/>
      <point x="420" y="597" type="line"/>
      <point x="433" y="669" type="line"/>
    </contour>
  </outline>
</glyph>
<glyph name="six" format="1">
  <advance width="533"/>
  <unicode hex="0036"/>
  <outline>
    <contour>
      <point x="150" y="679"/>
      <point x="55" y="533"/>
      <point x="55" y="314" type="curve" smooth="yes"/>
      <point x="55" y="122"/>
      <point x="117" y="-12"/>
      <point x="280" y="-12" type="curve" smooth="yes"/>
      <point x="398" y="-12"/>
      <point x="493" y="81"/>
      <point x="493" y="227" type="curve" smooth="yes"/>
      <point x="493" y="370"/>
      <point x="406" y="440"/>
      <point x="308" y="440" type="curve" smooth="yes"/>
      <point x="240" y="440"/>
      <point x="182" y="409"/>
      <point x="136" y="335" type="curve"/>
      <point x="139" y="258" type="line"/>
      <point x="172" y="322"/>
      <point x="226" y="367"/>
      <point x="292" y="367" type="curve" smooth="yes"/>
      <point x="355" y="367"/>
      <point x="400" y="330"/>
      <point x="400" y="224" type="curve" smooth="yes"/>
      <point x="400" y="126"/>
      <point x="359" y="61"/>
      <point x="280" y="61" type="curve" smooth="yes"/>
      <point x="186" y="61"/>
      <point x="148" y="137"/>
      <point x="148" y="300" type="curve"/>
      <point x="147" y="329" type="line"/>
      <point x="146" y="495"/>
      <point x="205" y="606"/>
      <point x="307" y="606" type="curve" smooth="yes"/>
      <point x="344" y="606"/>
      <point x="379" y="596"/>
      <point x="410" y="577" type="curve"/>
      <point x="446" y="638" type="line"/>
      <point x="407" y="664"/>
      <point x="362" y="679"/>
      <point x="308" y="679" type="curve" smooth="yes"/>
    </contour>
  </outline>
</glyph>
<glyph name="seven" format="1">
  <advance width="444"/>
  <unicode hex="0037"/>
  <outline>
    <contour>
      <point x="25" y="669" type="line"/>
      <point x="25" y="594" type="line"/>
      <point x="321" y="594" type="line"/>
      <point x="80" y="18" type="line"/>
      <point x="164" y="-10" type="line"/>
      <point x="414" y="600" type="line"/>
      <point x="414" y="669" type="line"/>
    </contour>
  </outline>
</glyph>
<glyph name="eight" format="1">
  <advance width="551"/>
  <unicode hex="0038"/>
  <outline>
    <contour>
      <point x="174" y="679"/>
      <point x="73" y="620"/>
      <point x="73" y="507" type="curve" smooth="yes"/>
      <point x="73" y="433"/>
      <point x="110" y="379"/>
      <point x="195" y="343" type="curve"/>
      <point x="217" y="335" type="line"/>
      <point x="264" y="319" type="line" smooth="yes"/>
      <point x="372" y="282"/>
      <point x="410" y="250"/>
      <point x="410" y="178" type="curve" smooth="yes"/>
      <point x="410" y="108"/>
      <point x="359" y="61"/>
      <point x="275" y="61" type="curve" smooth="yes"/>
      <point x="192" y="61"/>
      <point x="141" y="104"/>
      <point x="141" y="177" type="curve" smooth="yes"/>
      <point x="141" y="254"/>
      <point x="177" y="302"/>
      <point x="251" y="333" type="curve"/>
      <point x="194" y="358" type="line"/>
      <point x="102" y="322"/>
      <point x="45" y="269"/>
      <point x="45" y="177" type="curve" smooth="yes"/>
      <point x="45" y="67"/>
      <point x="136" y="-12"/>
      <point x="274" y="-12" type="curve" smooth="yes"/>
      <point x="410" y="-12"/>
      <point x="506" y="67"/>
      <point x="506" y="179" type="curve" smooth="yes"/>
      <point x="506" y="268"/>
      <point x="450" y="329"/>
      <point x="347" y="366" type="curve"/>
      <point x="325" y="374" type="line"/>
      <point x="287" y="387" type="line" smooth="yes"/>
      <point x="210" y="412"/>
      <point x="163" y="437"/>
      <point x="163" y="506" type="curve" smooth="yes"/>
      <point x="163" y="573"/>
      <point x="207" y="610"/>
      <point x="276" y="610" type="curve" smooth="yes"/>
      <point x="349" y="610"/>
      <point x="389" y="569"/>
      <point x="389" y="507" type="curve" smooth="yes"/>
      <point x="389" y="444"/>
      <point x="358" y="408"/>
      <point x="284" y="371" type="curve"/>
      <point x="346" y="350" type="line"/>
      <point x="435" y="390"/>
      <point x="479" y="437"/>
      <point x="479" y="510" type="curve" smooth="yes"/>
      <point x="479" y="624"/>
      <point x="376" y="679"/>
      <point x="276" y="679" type="curve" smooth="yes"/>
    </contour>
  </outline>
</glyph>
<glyph name="greater" format="1">
  <advance width="500"/>
  <unicode hex="003E"/>
  <outline>
    <contour>
      <point x="50" y="475" type="line"/>
      <point x="377" y="333" type="line"/>
      <point x="50" y="189" type="line"/>
      <point x="83" y="115" type="line"/>
      <point x="450" y="286" type="line"/>
      <point x="450" y="380" type="line"/>
      <point x="83" y="551" type="line"/>
    </contour>
  </outline>
</glyph>
<glyph name="question" format="1">
  <advance width="459"/>
  <unicode hex="003F"/>
  <outline>
    <contour>
      <point x="155" y="701"/>
      <point x="87" y="669"/>
      <point x="30" y="602" type="curve"/>
      <point x="93" y="553" type="line"/>
      <point x="134" y="603"/>
      <point x="182" y="625"/>
      <point x="232" y="625" type="curve" smooth="yes"/>
      <point x="294" y="625"/>
      <point x="333" y="594"/>
      <point x="333" y="539" type="curve" smooth="yes"/>
      <point x="333" y="431"/>
      <point x="157" y="448"/>
      <point x="157" y="280" type="curve" smooth="yes"/>
      <point x="157" y="230" type="line"/>
      <point x="248" y="230" type="line"/>
      <point x="248" y="275" type="line" smooth="yes"/>
      <point x="248" y="406"/>
      <point x="429" y="385"/>
      <point x="429" y="545" type="curve" smooth="yes"/>
      <point x="429" y="625"/>
      <point x="364" y="701"/>
      <point x="238" y="701" type="curve" smooth="yes"/>
    </contour>
    <contour>
      <point x="166" y="127"/>
      <point x="136" y="96"/>
      <point x="136" y="58" type="curve" smooth="yes"/>
      <point x="136" y="19"/>
      <point x="166" y="-12"/>
      <point x="205" y="-12" type="curve" smooth="yes"/>
      <point x="245" y="-12"/>
      <point x="275" y="19"/>
      <point x="275" y="58" type="curve" smooth="yes"/>
      <point x="275" y="96"/>
      <point x="245" y="127"/>
      <point x="205" y="127" type="curve" smooth="yes"/>
    </contour>
  </outline>
</glyph>
<glyph name="at" format="1">
  <advance width="1020"/>
  <unicode hex="0040"/>
  <outline>
    <contour>
      <point x="254" y="701"/>
      <point x="70" y="501"/>
      <point x="70" y="240" type="curve" smooth="yes"/>
      <point x="70" y="-37"/>
      <point x="256" y="-213"/>
      <point x="525" y="-213" type="curve" smooth="yes"/>
      <point x="616" y="-213"/>
      <point x="677" y="-197"/>
      <point x="743" y="-174" type="curve"/>
      <point x="718" y="-103" type="line"/>
      <point x="664" y="-122"/>
      <point x="601" y="-137"/>
      <point x="526" y="-137" type="curve" smooth="yes"/>
      <point x="293" y="-137"/>
      <point x="163" y="19"/>
      <point x="163" y="240" type="curve" smooth="yes"/>
      <point x="163" y="461"/>
      <point x="301" y="625"/>
      <point x="526" y="625" type="curve" smooth="yes"/>
      <point x="743" y="625"/>
      <point x="857" y="498"/>
      <point x="857" y="305" type="curve" smooth="yes"/>
      <point x="857" y="149"/>
      <point x="819" y="80"/>
      <point x="751" y="80" type="curve" smooth="yes"/>
      <point x="708" y="80"/>
      <point x="683" y="107"/>
      <point x="683" y="193" type="curve"/>
      <point x="621" y="134" type="line"/>
      <point x="625" y="88"/>
      <point x="656" y="9"/>
      <point x="753" y="9" type="curve" smooth="yes"/>
      <point x="888" y="9"/>
      <point x="950" y="144"/>
      <point x="950" y="307" type="curve" smooth="yes"/>
      <point x="950" y="516"/>
      <point x="804" y="701"/>
      <point x="526" y="701" type="curve" smooth="yes"/>
    </contour>
    <contour>
      <point x="400" y="492"/>
      <point x="308" y="404"/>
      <point x="308" y="231" type="curve" smooth="yes"/>
      <point x="308" y="99"/>
      <point x="374" y="11"/>
      <point x="481" y="11" type="curve" smooth="yes"/>
      <point x="566" y="11"/>
      <point x="609" y="70"/>
      <point x="629" y="123" type="curve"/>
      <point x="603" y="172" type="line"/>
      <point x="594" y="147"/>
      <point x="568" y="78"/>
      <point x="492" y="78" type="curve" smooth="yes"/>
      <point x="430" y="78"/>
      <point x="398" y="131"/>
      <point x="398" y="231" type="curve" smooth="yes"/>
      <point x="398" y="360"/>
      <point x="442" y="426"/>
      <point x="529" y="426" type="curve" smooth="yes"/>
      <point x="559" y="426"/>
      <point x="580" y="420"/>
      <point x="600" y="411" type="curve"/>
      <point x="600" y="149" type="line"/>
      <point x="632" y="110" type="line"/>
      <point x="683" y="149" type="line"/>
      <point x="683" y="452" type="line"/>
      <point x="627" y="482"/>
      <point x="580" y="492"/>
      <point x="526" y="492" type="curve" smooth="yes"/>
    </contour>
  </outline>
</glyph>
<glyph name="B" format="1">
  <advance width="608"/>
  <unicode hex="0042"/>
  <outline>
    <contour>
      <point x="100" y="689" type="line"/>
      <point x="100" y="0" type="line"/>
      <point x="290" y="0" type="line" smooth="yes"/>
      <point x="450" y="0"/>
      <point x="563" y="50"/>
      <point x="563" y="196" type="curve" smooth="yes"/>
      <point x="563" y="313"/>
      <point x="484" y="350"/>
      <point x="404" y="364" type="curve"/>
      <point x="471" y="378"/>
      <point x="533" y="430"/>
      <point x="533" y="515" type="curve" smooth="yes"/>
      <point x="533" y="635"/>
      <point x="433" y="689"/>
      <point x="263" y="689" type="curve" smooth="yes"/>
    </contour>
    <contour>
      <point x="375" y="614"/>
      <point x="436" y="593"/>
      <point x="436" y="508" type="curve" smooth="yes"/>
      <point x="436" y="435"/>
      <point x="376" y="397"/>
      <point x="299" y="397" type="curve" smooth="yes"/>
      <point x="179" y="397" type="line"/>
      <point x="179" y="324" type="line"/>
      <point x="308" y="324" type="line" smooth="yes"/>
      <point x="391" y="324"/>
      <point x="463" y="293"/>
      <point x="463" y="196" type="curve" smooth="yes"/>
      <point x="463" y="96"/>
      <point x="390" y="76"/>
      <point x="290" y="76" type="curve" smooth="yes"/>
      <point x="195" y="76" type="line"/>
      <point x="195" y="614" type="line"/>
      <point x="273" y="614" type="line" smooth="yes"/>
    </contour>
    <contour>
      <point x="301" y="689" type="move" name="top"/>
    </contour>
    <contour>
      <point x="310" y="0" type="move" name="bottom"/>
    </contour>
  </outline>
</glyph>
<glyph name="D" format="1">
  <advance width="644"/>
  <unicode hex="0044"/>
  <outline>
    <contour>
      <point x="100" y="689" type="line"/>
      <point x="100" y="0" type="line"/>
      <point x="265" y="0" type="line" smooth="yes"/>
      <point x="414" y="0"/>
      <point x="589" y="67"/>
      <point x="589" y="348" type="curve" smooth="yes"/>
      <point x="589" y="634"/>
      <point x="420" y="689"/>
      <point x="244" y="689" type="curve" smooth="yes"/>
    </contour>
    <contour>
      <point x="375" y="613"/>
      <point x="488" y="581"/>
      <point x="488" y="348" type="curve" smooth="yes"/>
      <point x="488" y="121"/>
      <point x="380" y="75"/>
      <point x="272" y="75" type="curve" smooth="yes"/>
      <point x="195" y="75" type="line"/>
      <point x="195" y="613" type="line"/>
      <point x="265" y="613" type="line" smooth="yes"/>
    </contour>
    <contour>
      <point x="323" y="345" type="move" name="center"/>
    </contour>
    <contour>
      <point x="300" y="0" type="move" name="bottom"/>
    </contour>
    <contour>
      <point x="303" y="689" type="move" name="top"/>
    </contour>
  </outline>
</glyph>
<glyph name="E" format="1">
  <advance width="535"/>
  <unicode hex="0045"/>
  <outline>
    <contour>
      <point x="100" y="689" type="line"/>
      <point x="100" y="0" type="line"/>
      <point x="481" y="0" type="line"/>
      <point x="481" y="76" type="line"/>
      <point x="195" y="76" type="line"/>
      <point x="195" y="312" type="line"/>
      <point x="427" y="312" type="line"/>
      <point x="427" y="388" type="line"/>
      <point x="195" y="388" type="line"/>
      <point x="195" y="613" type="line"/>
      <point x="462" y="613" type="line"/>
      <point x="473" y="689" type="line"/>
    </contour>
    <contour>
      <point x="451" y="0" type="move" name="ogonek"/>
    </contour>
    <contour>
      <point x="290" y="689" type="move" name="top"/>
    </contour>
    <contour>
      <point x="90" y="689" type="move" name="topleft"/>
    </contour>
    <contour>
      <point x="291" y="0" type="move" name="bottom"/>
    </contour>
  </outline>
</glyph>
<glyph name="F" format="1">
  <advance width="491"/>
  <unicode hex="0046"/>
  <outline>
    <contour>
      <point x="100" y="689" type="line"/>
      <point x="100" y="0" type="line"/>
      <point x="195" y="0" type="line"/>
      <point x="195" y="303" type="line"/>
      <point x="420" y="303" type="line"/>
      <point x="420" y="378" type="line"/>
      <point x="195" y="378" type="line"/>
      <point x="195" y="613" type="line"/>
      <point x="455" y="613" type="line"/>
      <point x="466" y="689" type="line"/>
    </contour>
    <contour>
      <point x="293" y="689" type="move" name="top"/>
    </contour>
  </outline>
</glyph>
<glyph name="G" format="1">
  <advance width="631"/>
  <unicode hex="0047"/>
  <outline>
    <contour>
      <point x="197" y="701"/>
      <point x="55" y="577"/>
      <point x="55" y="345" type="curve" smooth="yes"/>
      <point x="55" y="107"/>
      <point x="166" y="-12"/>
      <point x="337" y="-12" type="curve" smooth="yes"/>
      <point x="434" y="-12"/>
      <point x="506" y="12"/>
      <point x="569" y="49" type="curve"/>
      <point x="569" y="382" type="line"/>
      <point x="342" y="382" type="line"/>
      <point x="353" y="305" type="line"/>
      <point x="475" y="305" type="line"/>
      <point x="475" y="98" type="line"/>
      <point x="436" y="75"/>
      <point x="390" y="66"/>
      <point x="344" y="66" type="curve" smooth="yes"/>
      <point x="223" y="66"/>
      <point x="156" y="147"/>
      <point x="156" y="345" type="curve" smooth="yes"/>
      <point x="156" y="548"/>
      <point x="255" y="623"/>
      <point x="354" y="623" type="curve" smooth="yes"/>
      <point x="416" y="623"/>
      <point x="457" y="606"/>
      <point x="505" y="567" type="curve"/>
      <point x="561" y="625" type="line"/>
      <point x="502" y="674"/>
      <point x="445" y="701"/>
      <point x="352" y="701" type="curve" smooth="yes"/>
    </contour>
    <contour>
      <point x="355" y="689" type="move" name="top"/>
    </contour>
    <contour>
      <point x="343" y="0" type="move" name="bottom"/>
    </contour>
  </outline>
</glyph>
<glyph name="I" format="1">
  <advance width="295"/>
  <unicode hex="0049"/>
  <outline>
    <contour>
      <point x="100" y="689" type="line"/>
      <point x="100" y="0" type="line"/>
      <point x="195" y="0" type="line"/>
      <point x="195" y="689" type="line"/>
    </contour>
    <contour>
      <point x="205" y="0" type="move" name="ogonek"/>
    </contour>
    <contour>
      <point x="147" y="689" type="move" name="top"/>
    </contour>
    <contour>
      <point x="90" y="689" type="move" name="topleft"/>
    </contour>
    <contour>
      <point x="147" y="0" type="move" name="bottom"/>
    </contour>
  </outline>
</glyph>
<glyph name="J" format="1">
  <advance width="305"/>
  <unicode hex="004A"/>
  <outline>
    <contour>
      <point x="115" y="689" type="line"/>
      <point x="115" y="100" type="line" smooth="yes"/>
      <point x="115" y="8"/>
      <point x="96" y="-32"/>
      <point x="5" y="-68" type="curve"/>
      <point x="30" y="-137" type="line"/>
      <point x="141" y="-102"/>
      <point x="210" y="-48"/>
      <point x="210" y="96" type="curve" smooth="yes"/>
      <point x="210" y="689" type="line"/>
    </contour>
    <contour>
      <point x="163" y="689" type="move" name="top"/>
    </contour>
    <contour>
      <point x="153" y="-202" type="move" name="bottom"/>
    </contour>
  </outline>
</glyph>
<glyph name="K" format="1">
  <advance width="589"/>
  <unicode hex="004B"/>
  <outline>
    <contour>
      <point x="462" y="689" type="line"/>
      <point x="200" y="368" type="line"/>
      <point x="472" y="0" type="line"/>
      <point x="589" y="0" type="line"/>
      <point x="309" y="374" type="line"/>
      <point x="570" y="689" type="line"/>
    </contour>
    <contour>
      <point x="100" y="689" type="line"/>
      <point x="100" y="0" type="line"/>
      <point x="195" y="0" type="line"/>
      <point x="195" y="689" type="line"/>
    </contour>
    <contour>
      <point x="328" y="689" type="move" name="top"/>
    </contour>
    <contour>
      <point x="315" y="0" type="move" name="bottom"/>
    </contour>
  </outline>
</glyph>
<glyph name="M" format="1">
  <advance width="796"/>
  <unicode hex="004D"/>
  <outline>
    <contour>
      <point x="530" y="689" type="line"/>
      <point x="392" y="188" type="line"/>
      <point x="247" y="689" type="line"/>
      <point x="119" y="689" type="line"/>
      <point x="62" y="0" type="line"/>
      <point x="152" y="0" type="line"/>
      <point x="175" y="304" type="line" smooth="yes"/>
      <point x="183" y="405"/>
      <point x="188" y="512"/>
      <point x="188" y="593" type="curve"/>
      <point x="345" y="78" type="line"/>
      <point x="434" y="78" type="line"/>
      <point x="583" y="592" type="line"/>
      <point x="584" y="535"/>
      <point x="591" y="419"/>
      <point x="600" y="311" type="curve" smooth="yes"/>
      <point x="624" y="0" type="line"/>
      <point x="716" y="0" type="line"/>
      <point x="659" y="689" type="line"/>
    </contour>
    <contour>
      <point x="389" y="689" type="move" name="top"/>
    </contour>
    <contour>
      <point x="398" y="0" type="move" name="bottom"/>
    </contour>
    <contour>
      <point x="726" y="0" type="move" name="bottomright"/>
    </contour>
  </outline>
</glyph>
<glyph name="P" format="1">
  <advance width="581"/>
  <unicode hex="0050"/>
  <outline>
    <contour>
      <point x="195" y="615" type="line"/>
      <point x="280" y="615" type="line" smooth="yes"/>
      <point x="382" y="615"/>
      <point x="448" y="578"/>
      <point x="448" y="475" type="curve" smooth="yes"/>
      <point x="448" y="358"/>
      <point x="380" y="328"/>
      <point x="278" y="328" type="curve" smooth="yes"/>
      <point x="179" y="328" type="line"/>
      <point x="179" y="253" type="line"/>
      <point x="282" y="253" type="line" smooth="yes"/>
      <point x="434" y="253"/>
      <point x="549" y="318"/>
      <point x="549" y="476" type="curve" smooth="yes"/>
      <point x="549" y="621"/>
      <point x="447" y="689"/>
      <point x="281" y="689" type="curve" smooth="yes"/>
      <point x="100" y="689" type="line"/>
      <point x="100" y="0" type="line"/>
      <point x="195" y="0" type="line"/>
    </contour>
    <contour>
      <point x="291" y="689" type="move" name="top"/>
    </contour>
    <contour>
      <point x="291" y="0" type="move" name="bottom"/>
    </contour>
    <contour>
      <point x="90" y="689" type="move" name="topleft"/>
    </contour>
  </outline>
</glyph>
<glyph name="Q" format="1">
  <advance width="689"/>
  <unicode hex="0051"/>
  <outline>
    <contour>
      <point x="174" y="701"/>
      <point x="55" y="570"/>
      <point x="55" y="343" type="curve" smooth="yes"/>
      <point x="55" y="112"/>
      <point x="174" y="-10"/>
      <point x="344" y="-10" type="curve" smooth="yes"/>
      <point x="365" y="-10"/>
      <point x="384" y="-8"/>
      <point x="403" y="-5" type="curve"/>
      <point x="479" y="39" type="line"/>
      <point x="577" y="90"/>
      <point x="637" y="175"/>
      <point x="637" y="344" type="curve" smooth="yes"/>
      <point x="637" y="576"/>
      <point x="519" y="701"/>
      <point x="346" y="701" type="curve" smooth="yes"/>
    </contour>
    <contour>
      <point x="344" y="-10" type="line"/>
      <point x="469" y="-10"/>
      <point x="526" y="-33"/>
      <point x="604" y="-103" type="curve"/>
      <point x="666" y="-23" type="line"/>
      <point x="617" y="11"/>
      <point x="558" y="39"/>
      <point x="479" y="39" type="curve"/>
    </contour>
    <contour>
      <point x="464" y="623"/>
      <point x="536" y="542"/>
      <point x="536" y="344" type="curve" smooth="yes"/>
      <point x="536" y="144"/>
      <point x="462" y="66"/>
      <point x="346" y="66" type="curve" smooth="yes"/>
      <point x="234" y="66"/>
      <point x="156" y="144"/>
      <point x="156" y="343" type="curve" smooth="yes"/>
      <point x="156" y="542"/>
      <point x="231" y="623"/>
      <point x="346" y="623" type="curve" smooth="yes"/>
    </contour>
    <contour>
      <point x="345" y="689" type="move" name="top"/>
    </contour>
    <contour>
      <point x="345" y="0" type="move" name="bottom"/>
    </contour>
  </outline>
</glyph>
<glyph name="S" format="1">
  <advance width="545"/>
  <unicode hex="0053"/>
  <outline>
    <contour>
      <point x="143" y="701"/>
      <point x="53" y="627"/>
      <point x="53" y="521" type="curve" smooth="yes"/>
      <point x="53" y="414"/>
      <point x="123" y="363"/>
      <point x="257" y="322" type="curve" smooth="yes"/>
      <point x="374" y="286"/>
      <point x="406" y="256"/>
      <point x="406" y="189" type="curve" smooth="yes"/>
      <point x="406" y="106"/>
      <point x="339" y="66"/>
      <point x="258" y="66" type="curve" smooth="yes"/>
      <point x="183" y="66"/>
      <point x="127" y="93"/>
      <point x="80" y="138" type="curve"/>
      <point x="25" y="77" type="line"/>
      <point x="82" y="21"/>
      <point x="160" y="-12"/>
      <point x="259" y="-12" type="curve" smooth="yes"/>
      <point x="414" y="-12"/>
      <point x="505" y="72"/>
      <point x="505" y="192" type="curve" smooth="yes"/>
      <point x="505" y="324"/>
      <point x="411" y="367"/>
      <point x="301" y="401" type="curve" smooth="yes"/>
      <point x="177" y="439"/>
      <point x="150" y="467"/>
      <point x="150" y="525" type="curve" smooth="yes"/>
      <point x="150" y="591"/>
      <point x="205" y="623"/>
      <point x="274" y="623" type="curve" smooth="yes"/>
      <point x="331" y="623"/>
      <point x="379" y="605"/>
      <point x="429" y="561" type="curve"/>
      <point x="483" y="621" type="line"/>
      <point x="425" y="673"/>
      <point x="365" y="701"/>
      <point x="270" y="701" type="curve" smooth="yes"/>
    </contour>
    <contour>
      <point x="276" y="689" type="move" name="top"/>
    </contour>
    <contour>
      <point x="267" y="0" type="move" name="bottom"/>
    </contour>
  </outline>
</glyph>
<glyph name="T" format="1">
  <advance width="517"/>
  <unicode hex="0054"/>
  <outline>
    <contour>
      <point x="15" y="689" type="line"/>
      <point x="15" y="608" type="line"/>
      <point x="211" y="608" type="line"/>
      <point x="211" y="0" type="line"/>
      <point x="306" y="0" type="line"/>
      <point x="306" y="608" type="line"/>
      <point x="497" y="608" type="line"/>
      <point x="507" y="689" type="line"/>
    </contour>
    <contour>
      <point x="259" y="0" type="move" name="bottom"/>
    </contour>
    <contour>
      <point x="259" y="689" type="move" name="top"/>
    </contour>
    <contour>
      <point x="316" y="0" type="move" name="bottomright"/>
    </contour>
    <contour>
      <point x="259" y="345" type="move" name="center"/>
    </contour>
  </outline>
</glyph>
<glyph name="U" format="1">
  <advance width="662"/>
  <unicode hex="0055"/>
  <outline>
    <contour>
      <point x="476" y="689" type="line"/>
      <point x="476" y="228" type="line" smooth="yes"/>
      <point x="476" y="121"/>
      <point x="429" y="68"/>
      <point x="330" y="68" type="curve" smooth="yes"/>
      <point x="232" y="68"/>
      <point x="185" y="121"/>
      <point x="185" y="228" type="curve" smooth="yes"/>
      <point x="185" y="689" type="line"/>
      <point x="90" y="689" type="line"/>
      <point x="90" y="221" type="line" smooth="yes"/>
      <point x="90" y="84"/>
      <point x="173" y="-12"/>
      <point x="330" y="-12" type="curve" smooth="yes"/>
      <point x="485" y="-12"/>
      <point x="572" y="84"/>
      <point x="572" y="221" type="curve" smooth="yes"/>
      <point x="572" y="689" type="line"/>
    </contour>
    <contour>
      <point x="428" y="0" type="move" name="ogonek"/>
    </contour>
    <contour>
      <point x="331" y="689" type="move" name="top"/>
    </contour>
    <contour>
      <point x="582" y="689" type="move" name="topright"/>
    </contour>
    <contour>
      <point x="331" y="0" type="move" name="bottom"/>
    </contour>
  </outline>
</glyph>
<glyph name="V" format="1">
  <advance width="556"/>
  <unicode hex="0056"/>
  <outline>
    <contour>
      <point x="454" y="689" type="line"/>
      <point x="281" y="103" type="line"/>
      <point x="108" y="689" type="line"/>
      <point x="6" y="689" type="line"/>
      <point x="228" y="0" type="line"/>
      <point x="330" y="0" type="line"/>
      <point x="550" y="689" type="line"/>
    </contour>
    <contour>
      <point x="278" y="689" type="move" name="top"/>
    </contour>
    <contour>
      <point x="278" y="0" type="move" name="bottom"/>
    </contour>
  </outline>
</glyph>
<glyph name="W" format="1">
  <advance width="826"/>
  <unicode hex="0057"/>
  <outline>
    <contour>
      <point x="714" y="689" type="line"/>
      <point x="599" y="83" type="line"/>
      <point x="463" y="689" type="line"/>
      <point x="362" y="689" type="line"/>
      <point x="229" y="83" type="line"/>
      <point x="118" y="689" type="line"/>
      <point x="25" y="689" type="line"/>
      <point x="165" y="0" type="line"/>
      <point x="284" y="0" type="line"/>
      <point x="412" y="577" type="line"/>
      <point x="539" y="0" type="line"/>
      <point x="661" y="0" type="line"/>
      <point x="801" y="689" type="line"/>
    </contour>
    <contour>
      <point x="413" y="689" type="move" name="top"/>
    </contour>
  </outline>
</glyph>
<glyph name="X" format="1">
  <advance width="540"/>
  <unicode hex="0058"/>
  <outline>
    <contour>
      <point x="23" y="689" type="line"/>
      <point x="212" y="367" type="line"/>
      <point x="268" y="305" type="line"/>
      <point x="427" y="0" type="line"/>
      <point x="535" y="0" type="line"/>
      <point x="325" y="372" type="line"/>
      <point x="270" y="430" type="line"/>
      <point x="131" y="689" type="line"/>
    </contour>
    <contour>
      <point x="410" y="689" type="line"/>
      <point x="270" y="430" type="line"/>
      <point x="212" y="367" type="line"/>
      <point x="5" y="0" type="line"/>
      <point x="107" y="0" type="line"/>
      <point x="268" y="305" type="line"/>
      <point x="325" y="372" type="line"/>
      <point x="512" y="689" type="line"/>
    </contour>
    <contour>
      <point x="270" y="689" type="move" name="top"/>
    </contour>
    <contour>
      <point x="270" y="0" type="move" name="bottom"/>
    </contour>
    <contour>
      <point x="486" y="0" type="move" name="bottomright"/>
    </contour>
  </outline>
</glyph>
<glyph name="Y" format="1">
  <advance width="550"/>
  <unicode hex="0059"/>
  <outline>
    <contour>
      <point x="446" y="689" type="line"/>
      <point x="278" y="348" type="line"/>
      <point x="110" y="689" type="line"/>
      <point x="5" y="689" type="line"/>
      <point x="227" y="264" type="line"/>
      <point x="227" y="0" type="line"/>
      <point x="323" y="0" type="line"/>
      <point x="323" y="265" type="line"/>
      <point x="545" y="689" type="line"/>
    </contour>
    <contour>
      <point x="275" y="689" type="move" name="top"/>
    </contour>
    <contour>
      <point x="275" y="0" type="move" name="bottom"/>
    </contour>
    <contour>
      <point x="5" y="689" type="move" name="topleft"/>
    </contour>
  </outline>
</glyph>
<glyph name="bracketleft" format="1">
  <advance width="322"/>
  <unicode hex="005B"/>
  <outline>
    <contour>
      <point x="65" y="816" type="line"/>
      <point x="65" y="-116" type="line"/>
      <point x="272" y="-116" type="line"/>
      <point x="272" y="-40" type="line"/>
      <point x="152" y="-40" type="line"/>
      <point x="152" y="739" type="line"/>
      <point x="272" y="739" type="line"/>
      <point x="272" y="816" type="line"/>
    </contour>
  </outline>
</glyph>
<glyph name="backslash" format="1">
  <advance width="520"/>
  <unicode hex="005C"/>
  <outline>
    <contour>
      <point x="105" y="789" type="line"/>
      <point x="336" y="-104" type="line"/>
      <point x="415" y="-85" type="line"/>
      <point x="183" y="807" type="line"/>
    </contour>
  </outline>
</glyph>
<glyph name="bracketright" format="1">
  <advance width="322"/>
  <unicode hex="005D"/>
  <outline>
    <contour>
      <point x="50" y="816" type="line"/>
      <point x="50" y="739" type="line"/>
      <point x="170" y="739" type="line"/>
      <point x="170" y="-40" type="line"/>
      <point x="50" y="-40" type="line"/>
      <point x="50" y="-116" type="line"/>
      <point x="257" y="-116" type="line"/>
      <point x="257" y="816" type="line"/>
    </contour>
  </outline>
</glyph>
<glyph name="asciicircum" format="1">
  <advance width="540"/>
  <unicode hex="005E"/>
  <outline>
    <contour>
      <point x="229" y="840" type="line"/>
      <point x="40" y="527" type="line"/>
      <point x="137" y="527" type="line"/>
      <point x="269" y="760" type="line"/>
      <point x="402" y="527" type="line"/>
      <point x="500" y="527" type="line"/>
      <point x="311" y="840" type="line"/>
    </contour>
  </outline>
</glyph>
<glyph name="underscore" format="1">
  <advance width="520"/>
  <unicode hex="005F"/>
  <outline>
    <contour>
      <point x="503" y="-142" type="line"/>
      <point x="503" y="-63" type="line"/>
      <point x="17" y="-63" type="line"/>
      <point x="17" y="-142" type="line"/>
    </contour>
  </outline>
</glyph>
<glyph name="grave" format="1">
  <advance width="300"/>
  <unicode hex="0060"/>
  <outline>
    <contour>
      <point x="30" y="724" type="line"/>
      <point x="242" y="638" type="line"/>
      <point x="270" y="687" type="line"/>
      <point x="71" y="801" type="line"/>
    </contour>
  </outline>
</glyph>
<glyph name="b" format="1">
  <advance width="594"/>
  <unicode hex="0062"/>
  <outline>
    <contour>
      <point x="266" y="539"/>
      <point x="214" y="504"/>
      <point x="177" y="446" type="curve"/>
      <point x="179" y="371" type="line"/>
      <point x="206" y="417"/>
      <point x="246" y="466"/>
      <point x="310" y="466" type="curve" smooth="yes"/>
      <point x="384" y="466"/>
      <point x="433" y="414"/>
      <point x="433" y="264" type="curve" smooth="yes"/>
      <point x="433" y="120"/>
      <point x="380" y="61"/>
      <point x="303" y="61" type="curve" smooth="yes"/>
      <point x="250" y="61"/>
      <point x="205" y="97"/>
      <point x="178" y="147" type="curve"/>
      <point x="172" y="75" type="line"/>
      <point x="209" y="21"/>
      <point x="260" y="-12"/>
      <point x="325" y="-12" type="curve" smooth="yes"/>
      <point x="453" y="-12"/>
      <point x="532" y="99"/>
      <point x="532" y="264" type="curve" smooth="yes"/>
      <point x="532" y="440"/>
      <point x="455" y="539"/>
      <point x="336" y="539" type="curve" smooth="yes"/>
    </contour>
    <contour>
      <point x="95" y="739" type="line"/>
      <point x="95" y="0" type="line"/>
      <point x="176" y="0" type="line"/>
      <point x="187" y="70" type="line"/>
      <point x="187" y="750" type="line" smooth="yes"/>
    </contour>
    <contour>
      <point x="313" y="739" type="move" name="top"/>
    </contour>
    <contour>
      <point x="308" y="0" type="move" name="bottom"/>
    </contour>
  </outline>
</glyph>
<glyph name="c" format="1">
  <advance width="478"/>
  <unicode hex="0063"/>
  <outline>
    <contour>
      <point x="144" y="539"/>
      <point x="57" y="427"/>
      <point x="57" y="259" type="curve" smooth="yes"/>
      <point x="57" y="89"/>
      <point x="145" y="-12"/>
      <point x="287" y="-12" type="curve" smooth="yes"/>
      <point x="348" y="-12"/>
      <point x="401" y="8"/>
      <point x="448" y="46" type="curve"/>
      <point x="406" y="106" type="line"/>
      <point x="366" y="80"/>
      <point x="335" y="66"/>
      <point x="291" y="66" type="curve" smooth="yes"/>
      <point x="208" y="66"/>
      <point x="156" y="123"/>
      <point x="156" y="261" type="curve" smooth="yes"/>
      <point x="156" y="398"/>
      <point x="208" y="463"/>
      <point x="291" y="463" type="curve" smooth="yes"/>
      <point x="335" y="463"/>
      <point x="368" y="450"/>
      <point x="404" y="424" type="curve"/>
      <point x="448" y="482" type="line"/>
      <point x="399" y="523"/>
      <point x="349" y="539"/>
      <point x="287" y="539" type="curve" smooth="yes"/>
    </contour>
    <contour>
      <point x="289" y="527" type="move" name="top"/>
    </contour>
    <contour>
      <point x="284" y="0" type="move" name="bottom"/>
    </contour>
  </outline>
</glyph>
<glyph name="d" format="1">
  <advance width="598"/>
  <unicode hex="0064"/>
  <outline>
    <contour>
      <point x="140" y="539"/>
      <point x="62" y="422"/>
      <point x="62" y="261" type="curve" smooth="yes"/>
      <point x="62" y="97"/>
      <point x="133" y="-12"/>
      <point x="261" y="-12" type="curve" smooth="yes"/>
      <point x="332" y="-12"/>
      <point x="389" y="26"/>
      <point x="422" y="88" type="curve"/>
      <point x="419" y="151" type="line"/>
      <point x="381" y="94"/>
      <point x="344" y="61"/>
      <point x="281" y="61" type="curve" smooth="yes"/>
      <point x="205" y="61"/>
      <point x="161" y="124"/>
      <point x="161" y="263" type="curve" smooth="yes"/>
      <point x="161" y="400"/>
      <point x="210" y="466"/>
      <point x="289" y="466" type="curve" smooth="yes"/>
      <point x="346" y="466"/>
      <point x="385" y="434"/>
      <point x="420" y="385" type="curve"/>
      <point x="421" y="463" type="line"/>
      <point x="385" y="505"/>
      <point x="337" y="539"/>
      <point x="269" y="539" type="curve" smooth="yes"/>
    </contour>
    <contour>
      <point x="411" y="123" type="line"/>
      <point x="411" y="89" type="line"/>
      <point x="422" y="0" type="line"/>
      <point x="503" y="0" type="line"/>
      <point x="503" y="739" type="line"/>
      <point x="411" y="750" type="line"/>
    </contour>
    <contour>
      <point x="308" y="0" type="move" name="bottom"/>
    </contour>
    <contour>
      <point x="301" y="739" type="move" name="top"/>
    </contour>
    <contour>
      <point x="513" y="739" type="move" name="topright"/>
    </contour>
    <contour>
      <point x="303" y="264" type="move" name="center"/>
    </contour>
  </outline>
</glyph>
<glyph name="e" format="1">
  <advance width="550"/>
  <unicode hex="0065"/>
  <outline>
    <contour>
      <point x="140" y="539"/>
      <point x="57" y="422"/>
      <point x="57" y="258" type="curve" smooth="yes"/>
      <point x="57" y="91"/>
      <point x="143" y="-12"/>
      <point x="290" y="-12" type="curve" smooth="yes"/>
      <point x="363" y="-12"/>
      <point x="422" y="13"/>
      <point x="474" y="54" type="curve"/>
      <point x="434" y="109" type="line"/>
      <point x="388" y="77"/>
      <point x="349" y="63"/>
      <point x="297" y="63" type="curve" smooth="yes"/>
      <point x="214" y="63"/>
      <point x="154" y="118"/>
      <point x="154" y="265" type="curve" smooth="yes"/>
      <point x="154" y="407"/>
      <point x="201" y="466"/>
      <point x="278" y="466" type="curve" smooth="yes"/>
      <point x="361" y="466"/>
      <point x="402" y="409"/>
      <point x="402" y="306" type="curve" smooth="yes"/>
      <point x="402" y="304"/>
      <point x="402" y="302"/>
      <point x="402" y="300" type="curve"/>
      <point x="139" y="300" type="line"/>
      <point x="139" y="232" type="line"/>
      <point x="491" y="232" type="line"/>
      <point x="492" y="244"/>
      <point x="493" y="261"/>
      <point x="493" y="279" type="curve" smooth="yes"/>
      <point x="493" y="440"/>
      <point x="418" y="539"/>
      <point x="276" y="539" type="curve" smooth="yes"/>
    </contour>
    <contour>
      <point x="399" y="6" type="move" name="ogonek"/>
    </contour>
    <contour>
      <point x="293" y="0" type="move" name="bottom"/>
    </contour>
    <contour>
      <point x="279" y="527" type="move" name="top"/>
    </contour>
  </outline>
</glyph>
<glyph name="f" format="1">
  <advance width="335"/>
  <unicode hex="0066"/>
  <outline>
    <contour>
      <point x="162" y="750"/>
      <point x="104" y="687"/>
      <point x="104" y="599" type="curve" smooth="yes"/>
      <point x="104" y="0" type="line"/>
      <point x="196" y="0" type="line"/>
      <point x="196" y="600" type="line" smooth="yes"/>
      <point x="196" y="651"/>
      <point x="216" y="676"/>
      <point x="274" y="676" type="curve" smooth="yes"/>
      <point x="301" y="676"/>
      <point x="332" y="671"/>
      <point x="366" y="656" type="curve"/>
      <point x="395" y="723" type="line"/>
      <point x="353" y="741"/>
      <point x="319" y="750"/>
      <point x="269" y="750" type="curve" smooth="yes"/>
    </contour>
    <contour>
      <point x="10" y="527" type="line"/>
      <point x="10" y="456" type="line"/>
      <point x="314" y="456" type="line"/>
      <point x="324" y="527" type="line"/>
    </contour>
  </outline>
</glyph>
<glyph name="g" format="1">
  <advance width="520"/>
  <unicode hex="0067"/>
  <outline>
    <contour>
      <point x="431" y="558"/>
      <point x="383" y="536"/>
      <point x="252" y="539" type="curve" smooth="yes"/>
      <point x="136" y="539"/>
      <point x="49" y="463"/>
      <point x="49" y="355" type="curve" smooth="yes"/>
      <point x="49" y="287"/>
      <point x="77" y="241"/>
      <point x="138" y="209" type="curve"/>
      <point x="100" y="184"/>
      <point x="80" y="150"/>
      <point x="80" y="116" type="curve" smooth="yes"/>
      <point x="80" y="63"/>
      <point x="122" y="16"/>
      <point x="216" y="16" type="curve" smooth="yes"/>
      <point x="299" y="16" type="line" smooth="yes"/>
      <point x="365" y="16"/>
      <point x="405" y="-9"/>
      <point x="405" y="-59" type="curve" smooth="yes"/>
      <point x="405" y="-112"/>
      <point x="365" y="-141"/>
      <point x="251" y="-141" type="curve" smooth="yes"/>
      <point x="135" y="-141"/>
      <point x="108" y="-113"/>
      <point x="108" y="-53" type="curve"/>
      <point x="25" y="-53" type="line"/>
      <point x="25" y="-160"/>
      <point x="79" y="-213"/>
      <point x="251" y="-213" type="curve" smooth="yes"/>
      <point x="414" y="-213"/>
      <point x="498" y="-155"/>
      <point x="498" y="-53" type="curve" smooth="yes"/>
      <point x="498" y="31"/>
      <point x="426" y="93"/>
      <point x="318" y="93" type="curve" smooth="yes"/>
      <point x="234" y="93" type="line" smooth="yes"/>
      <point x="180" y="93"/>
      <point x="165" y="112"/>
      <point x="165" y="136" type="curve" smooth="yes"/>
      <point x="165" y="155"/>
      <point x="176" y="174"/>
      <point x="191" y="185" type="curve"/>
      <point x="213" y="178"/>
      <point x="234" y="175"/>
      <point x="258" y="175" type="curve" smooth="yes"/>
      <point x="384" y="175"/>
      <point x="459" y="250"/>
      <point x="459" y="354" type="curve" smooth="yes"/>
      <point x="459" y="415"/>
      <point x="428" y="459"/>
      <point x="366" y="487" type="curve"/>
      <point x="426" y="487"/>
      <point x="476" y="489"/>
      <point x="520" y="503" type="curve"/>
      <point x="493" y="586" type="line"/>
    </contour>
    <contour>
      <point x="327" y="473"/>
      <point x="365" y="433"/>
      <point x="365" y="356" type="curve" smooth="yes"/>
      <point x="365" y="280"/>
      <point x="326" y="236"/>
      <point x="254" y="236" type="curve" smooth="yes"/>
      <point x="182" y="236"/>
      <point x="143" y="285"/>
      <point x="143" y="355" type="curve" smooth="yes"/>
      <point x="143" y="424"/>
      <point x="181" y="473"/>
      <point x="252" y="473" type="curve" smooth="yes"/>
    </contour>
    <contour>
      <point x="260" y="527" type="move" name="top"/>
    </contour>
    <contour>
      <point x="252" y="-202" type="move" name="bottom"/>
    </contour>
  </outline>
</glyph>
<glyph name="l" format="1">
  <advance width="293"/>
  <unicode hex="006C"/>
  <outline>
    <contour>
      <point x="227" y="-12"/>
      <point x="253" y="-5"/>
      <point x="273" y="6" type="curve"/>
      <point x="249" y="70" type="line"/>
      <point x="239" y="66"/>
      <point x="228" y="64"/>
      <point x="215" y="64" type="curve" smooth="yes"/>
      <point x="191" y="64"/>
      <point x="182" y="78"/>
      <point x="182" y="106" type="curve" smooth="yes"/>
      <point x="182" y="750" type="line"/>
      <point x="90" y="739" type="line"/>
      <point x="90" y="104" type="line" smooth="yes"/>
      <point x="90" y="29"/>
      <point x="133" y="-12"/>
      <point x="200" y="-12" type="curve"/>
    </contour>
    <contour>
      <point x="178" y="0" type="move" name="bottom"/>
    </contour>
    <contour>
      <point x="136" y="739" type="move" name="top"/>
    </contour>
    <contour>
      <point x="193" y="739" type="move" name="topright"/>
    </contour>
    <contour>
      <point x="297" y="380" type="move" name="center"/>
    </contour>
  </outline>
</glyph>
<glyph name="m" format="1">
  <advance width="857"/>
  <unicode hex="006D"/>
  <outline>
    <contour>
      <point x="258" y="539"/>
      <point x="207" y="495"/>
      <point x="171" y="432" type="curve"/>
      <point x="187" y="374" type="line"/>
      <point x="222" y="430"/>
      <point x="254" y="467"/>
      <point x="311" y="467" type="curve" smooth="yes"/>
      <point x="351" y="467"/>
      <point x="385" y="444"/>
      <point x="385" y="365" type="curve" smooth="yes"/>
      <point x="385" y="0" type="line"/>
      <point x="477" y="0" type="line"/>
      <point x="477" y="378" type="line"/>
      <point x="475" y="407" type="line"/>
      <point x="465" y="489"/>
      <point x="411" y="539"/>
      <point x="334" y="539" type="curve" smooth="yes"/>
    </contour>
    <contour>
      <point x="95" y="527" type="line"/>
      <point x="95" y="0" type="line"/>
      <point x="187" y="0" type="line"/>
      <point x="187" y="398" type="line"/>
      <point x="174" y="527" type="line"/>
    </contour>
    <contour>
      <point x="548" y="539"/>
      <point x="498" y="495"/>
      <point x="459" y="432" type="curve"/>
      <point x="477" y="374" type="line"/>
      <point x="513" y="430"/>
      <point x="544" y="467"/>
      <point x="601" y="467" type="curve" smooth="yes"/>
      <point x="641" y="467"/>
      <point x="675" y="444"/>
      <point x="675" y="365" type="curve" smooth="yes"/>
      <point x="675" y="0" type="line"/>
      <point x="767" y="0" type="line"/>
      <point x="767" y="378" type="line" smooth="yes"/>
      <point x="767" y="477"/>
      <point x="710" y="539"/>
      <point x="624" y="539" type="curve" smooth="yes"/>
    </contour>
    <contour>
      <point x="429" y="527" type="move" name="top"/>
    </contour>
    <contour>
      <point x="429" y="0" type="move" name="bottom"/>
    </contour>
  </outline>
</glyph>
<glyph name="n" format="1">
  <advance width="586"/>
  <unicode hex="006E"/>
  <outline>
    <contour>
      <point x="267" y="539"/>
      <point x="207" y="495"/>
      <point x="171" y="432" type="curve"/>
      <point x="187" y="374" type="line"/>
      <point x="222" y="430"/>
      <point x="262" y="467"/>
      <point x="321" y="467" type="curve" smooth="yes"/>
      <point x="372" y="467"/>
      <point x="404" y="444"/>
      <point x="404" y="365" type="curve" smooth="yes"/>
      <point x="404" y="0" type="line"/>
      <point x="496" y="0" type="line"/>
      <point x="496" y="378" type="line" smooth="yes"/>
      <point x="496" y="478"/>
      <point x="440" y="539"/>
      <point x="343" y="539" type="curve" smooth="yes"/>
    </contour>
    <contour>
      <point x="95" y="527" type="line"/>
      <point x="95" y="0" type="line"/>
      <point x="187" y="0" type="line"/>
      <point x="187" y="398" type="line"/>
      <point x="174" y="527" type="line"/>
    </contour>
    <contour>
      <point x="298" y="527" type="move" name="top"/>
    </contour>
    <contour>
      <point x="293" y="0" type="move" name="bottom"/>
    </contour>
    <contour>
      <point x="85" y="527" type="move" name="topleft"/>
    </contour>
  </outline>
</glyph>
<glyph name="q" format="1">
  <advance width="593"/>
  <unicode hex="0071"/>
  <outline>
    <contour>
      <point x="406" y="-202" type="line"/>
      <point x="498" y="-213" type="line"/>
      <point x="498" y="527" type="line"/>
      <point x="419" y="527" type="line"/>
      <point x="411" y="461" type="line"/>
      <point x="406" y="449" type="line"/>
    </contour>
    <contour>
      <point x="135" y="539"/>
      <point x="57" y="422"/>
      <point x="57" y="261" type="curve" smooth="yes"/>
      <point x="57" y="97"/>
      <point x="128" y="-12"/>
      <point x="256" y="-12" type="curve" smooth="yes"/>
      <point x="327" y="-12"/>
      <point x="384" y="26"/>
      <point x="417" y="88" type="curve"/>
      <point x="414" y="151" type="line"/>
      <point x="376" y="94"/>
      <point x="339" y="61"/>
      <point x="276" y="61" type="curve" smooth="yes"/>
      <point x="200" y="61"/>
      <point x="156" y="124"/>
      <point x="156" y="263" type="curve" smooth="yes"/>
      <point x="156" y="400"/>
      <point x="205" y="466"/>
      <point x="284" y="466" type="curve" smooth="yes"/>
      <point x="341" y="466"/>
      <point x="380" y="434"/>
      <point x="415" y="385" type="curve"/>
      <point x="416" y="463" type="line"/>
      <point x="380" y="505"/>
      <point x="332" y="539"/>
      <point x="264" y="539" type="curve" smooth="yes"/>
    </contour>
    <contour>
      <point x="297" y="527" type="move" name="top"/>
    </contour>
    <contour>
      <point x="297" y="-202" type="move" name="bottom"/>
    </contour>
  </outline>
</glyph>
<glyph name="s" format="1">
  <advance width="467"/>
  <unicode hex="0073"/>
  <outline>
    <contour>
      <point x="129" y="539"/>
      <point x="48" y="478"/>
      <point x="48" y="394" type="curve" smooth="yes"/>
      <point x="48" y="320"/>
      <point x="93" y="271"/>
      <point x="207" y="241" type="curve" smooth="yes"/>
      <point x="309" y="214"/>
      <point x="335" y="194"/>
      <point x="335" y="142" type="curve" smooth="yes"/>
      <point x="335" y="92"/>
      <point x="291" y="62"/>
      <point x="222" y="62" type="curve" smooth="yes"/>
      <point x="165" y="62"/>
      <point x="116" y="81"/>
      <point x="74" y="113" type="curve"/>
      <point x="25" y="57" type="line"/>
      <point x="71" y="17"/>
      <point x="135" y="-12"/>
      <point x="224" y="-12" type="curve" smooth="yes"/>
      <point x="331" y="-12"/>
      <point x="432" y="38"/>
      <point x="432" y="148" type="curve" smooth="yes"/>
      <point x="432" y="240"/>
      <point x="368" y="284"/>
      <point x="257" y="312" type="curve" smooth="yes"/>
      <point x="172" y="334"/>
      <point x="144" y="354"/>
      <point x="144" y="397" type="curve" smooth="yes"/>
      <point x="144" y="439"/>
      <point x="181" y="466"/>
      <point x="241" y="466" type="curve" smooth="yes"/>
      <point x="290" y="466"/>
      <point x="331" y="451"/>
      <point x="378" y="421" type="curve"/>
      <point x="417" y="479" type="line"/>
      <point x="367" y="517"/>
      <point x="312" y="539"/>
      <point x="238" y="539" type="curve" smooth="yes"/>
    </contour>
    <contour>
      <point x="245" y="527" type="move" name="top"/>
    </contour>
    <contour>
      <point x="235" y="0" type="move" name="bottom"/>
    </contour>
  </outline>
</glyph>
<glyph name="t" format="1">
  <advance width="361"/>
  <unicode hex="0074"/>
  <outline>
    <contour>
      <point x="101" y="646" type="line"/>
      <point x="101" y="138" type="line" smooth="yes"/>
      <point x="101" y="40"/>
      <point x="154" y="-12"/>
      <point x="243" y="-12" type="curve" smooth="yes"/>
      <point x="288" y="-12"/>
      <point x="326" y="0"/>
      <point x="361" y="24" type="curve"/>
      <point x="326" y="87" type="line"/>
      <point x="300" y="71"/>
      <point x="279" y="64"/>
      <point x="256" y="64" type="curve" smooth="yes"/>
      <point x="210" y="64"/>
      <point x="193" y="89"/>
      <point x="193" y="142" type="curve" smooth="yes"/>
      <point x="193" y="657" type="line"/>
    </contour>
    <contour>
      <point x="9" y="527" type="line"/>
      <point x="9" y="456" type="line"/>
      <point x="308" y="456" type="line"/>
      <point x="318" y="527" type="line"/>
    </contour>
    <contour>
      <point x="234" y="0" type="move" name="bottom"/>
    </contour>
    <contour>
      <point x="147" y="646" type="move" name="top"/>
    </contour>
    <contour>
      <point x="189" y="748" type="move" name="topright"/>
    </contour>
    <contour>
      <point x="180" y="264" type="move" name="center"/>
    </contour>
  </outline>
</glyph>
<glyph name="u" format="1">
  <advance width="582"/>
  <unicode hex="0075"/>
  <outline>
    <contour>
      <point x="395" y="527" type="line"/>
      <point x="395" y="151" type="line"/>
      <point x="363" y="98"/>
      <point x="320" y="60"/>
      <point x="263" y="60" type="curve" smooth="yes"/>
      <point x="206" y="60"/>
      <point x="182" y="87"/>
      <point x="182" y="159" type="curve" smooth="yes"/>
      <point x="182" y="527" type="line"/>
      <point x="90" y="527" type="line"/>
      <point x="90" y="149" type="line" smooth="yes"/>
      <point x="90" y="46"/>
      <point x="145" y="-12"/>
      <point x="237" y="-12" type="curve" smooth="yes"/>
      <point x="312" y="-12"/>
      <point x="361" y="18"/>
      <point x="401" y="82" type="curve"/>
      <point x="408" y="0" type="line"/>
      <point x="487" y="0" type="line"/>
      <point x="487" y="527" type="line"/>
    </contour>
    <contour>
      <point x="497" y="0" type="move" name="ogonek"/>
    </contour>
    <contour>
      <point x="289" y="527" type="move" name="top"/>
    </contour>
    <contour>
      <point x="497" y="527" type="move" name="topright"/>
    </contour>
    <contour>
      <point x="289" y="0" type="move" name="bottom"/>
    </contour>
  </outline>
</glyph>
<glyph name="v" format="1">
  <advance width="492"/>
  <unicode hex="0076"/>
  <outline>
    <contour>
      <point x="385" y="527" type="line"/>
      <point x="248" y="82" type="line"/>
      <point x="110" y="527" type="line"/>
      <point x="10" y="527" type="line"/>
      <point x="192" y="0" type="line"/>
      <point x="303" y="0" type="line"/>
      <point x="482" y="527" type="line"/>
    </contour>
    <contour>
      <point x="248" y="527" type="move" name="top"/>
    </contour>
    <contour>
      <point x="248" y="0" type="move" name="bottom"/>
    </contour>
  </outline>
</glyph>
<glyph name="w" format="1">
  <advance width="717"/>
  <unicode hex="0077"/>
  <outline>
    <contour>
      <point x="609" y="527" type="line"/>
      <point x="513" y="64" type="line"/>
      <point x="414" y="527" type="line"/>
      <point x="311" y="527" type="line"/>
      <point x="207" y="64" type="line"/>
      <point x="112" y="527" type="line"/>
      <point x="20" y="527" type="line"/>
      <point x="143" y="0" type="line"/>
      <point x="265" y="0" type="line"/>
      <point x="360" y="444" type="line"/>
      <point x="452" y="0" type="line"/>
      <point x="577" y="0" type="line"/>
      <point x="697" y="527" type="line"/>
    </contour>
    <contour>
      <point x="359" y="527" type="move" name="top"/>
    </contour>
    <contour>
      <point x="359" y="0" type="move" name="bottom"/>
    </contour>
  </outline>
</glyph>
<glyph name="x" format="1">
  <advance width="485"/>
  <unicode hex="0078"/>
  <outline>
    <contour>
      <point x="26" y="527" type="line"/>
      <point x="189" y="278" type="line"/>
      <point x="240" y="223" type="line"/>
      <point x="369" y="0" type="line"/>
      <point x="480" y="0" type="line"/>
      <point x="297" y="282" type="line"/>
      <point x="244" y="334" type="line"/>
      <point x="134" y="527" type="line"/>
    </contour>
    <contour>
      <point x="355" y="527" type="line"/>
      <point x="244" y="334" type="line"/>
      <point x="189" y="278" type="line"/>
      <point x="5" y="0" type="line"/>
      <point x="109" y="0" type="line"/>
      <point x="240" y="223" type="line"/>
      <point x="297" y="282" type="line"/>
      <point x="459" y="527" type="line"/>
    </contour>
    <contour>
      <point x="436" y="0" type="move" name="bottomright"/>
    </contour>
  </outline>
</glyph>
<glyph name="braceleft" format="1">
  <advance width="322"/>
  <unicode hex="007B"/>
  <outline>
    <contour>
      <point x="142" y="836"/>
      <point x="95" y="792"/>
      <point x="95" y="687" type="curve" smooth="yes"/>
      <point x="95" y="465" type="line" smooth="yes"/>
      <point x="95" y="410"/>
      <point x="78" y="387"/>
      <point x="25" y="387" type="curve"/>
      <point x="25" y="311" type="line"/>
      <point x="78" y="311"/>
      <point x="95" y="290"/>
      <point x="95" y="235" type="curve" smooth="yes"/>
      <point x="95" y="13" type="line" smooth="yes"/>
      <point x="95" y="-92"/>
      <point x="142" y="-136"/>
      <point x="277" y="-136" type="curve"/>
      <point x="277" y="-65" type="line"/>
      <point x="210" y="-65"/>
      <point x="182" y="-47"/>
      <point x="182" y="3" type="curve" smooth="yes"/>
      <point x="182" y="242" type="line" smooth="yes"/>
      <point x="182" y="315"/>
      <point x="154" y="333"/>
      <point x="107" y="349" type="curve"/>
      <point x="154" y="365"/>
      <point x="182" y="385"/>
      <point x="182" y="458" type="curve" smooth="yes"/>
      <point x="182" y="697" type="line" smooth="yes"/>
      <point x="182" y="747"/>
      <point x="210" y="765"/>
      <point x="277" y="765" type="curve"/>
      <point x="277" y="836" type="line"/>
    </contour>
  </outline>
</glyph>
<glyph name="bar" format="1">
  <advance width="403"/>
  <unicode hex="007C"/>
  <outline>
    <contour>
      <point x="160" y="807" type="line"/>
      <point x="160" y="-102" type="line"/>
      <point x="243" y="-102" type="line"/>
      <point x="243" y="807" type="line"/>
    </contour>
  </outline>
</glyph>
<glyph name="asciitilde" format="1">
  <advance width="488"/>
  <unicode hex="007E"/>
  <outline>
    <contour>
      <point x="392" y="250"/>
      <point x="432" y="300"/>
      <point x="453" y="341" type="curve"/>
      <point x="398" y="371" type="line"/>
      <point x="382" y="345"/>
      <point x="358" y="323"/>
      <point x="325" y="323" type="curve" smooth="yes"/>
      <point x="283" y="323"/>
      <point x="249" y="384"/>
      <point x="172" y="384" type="curve" smooth="yes"/>
      <point x="97" y="384"/>
      <point x="56" y="328"/>
      <point x="35" y="287" type="curve"/>
      <point x="91" y="258" type="line"/>
      <point x="107" y="284"/>
      <point x="130" y="312"/>
      <point x="166" y="312" type="curve" smooth="yes"/>
      <point x="205" y="312"/>
      <point x="239" y="250"/>
      <point x="319" y="250" type="curve" smooth="yes"/>
    </contour>
    <contour>
      <point x="400" y="332" type="move" name="_center"/>
    </contour>
  </outline>
</glyph>
<glyph name="exclamdown" format="1">
  <advance width="241"/>
  <unicode hex="00A1"/>
  <outline>
    <contour>
      <point x="81" y="247" type="line"/>
      <point x="71" y="-202" type="line"/>
      <point x="173" y="-202" type="line"/>
      <point x="162" y="247" type="line"/>
    </contour>
    <contour>
      <point x="81" y="495"/>
      <point x="51" y="464"/>
      <point x="51" y="425" type="curve" smooth="yes"/>
      <point x="51" y="387"/>
      <point x="81" y="356"/>
      <point x="121" y="356" type="curve" smooth="yes"/>
      <point x="160" y="356"/>
      <point x="190" y="387"/>
      <point x="190" y="425" type="curve" smooth="yes"/>
      <point x="190" y="464"/>
      <point x="160" y="495"/>
      <point x="121" y="495" type="curve" smooth="yes"/>
    </contour>
  </outline>
</glyph>
<glyph name="cent" format="1">
  <advance width="478"/>
  <unicode hex="00A2"/>
  <outline>
    <contour>
      <point x="250" y="684" type="line"/>
      <point x="250" y="533" type="line"/>
      <point x="329" y="534" type="line"/>
      <point x="329" y="684" type="line"/>
    </contour>
    <contour>
      <point x="249" y="-154" type="line"/>
      <point x="329" y="-154" type="line"/>
      <point x="329" y="-7" type="line"/>
      <point x="249" y="-6" type="line"/>
    </contour>
    <component base="c"/>
  </outline>
</glyph>
<glyph name="yen" format="1">
  <advance width="536"/>
  <unicode hex="00A5"/>
  <outline>
    <contour>
      <point x="434" y="669" type="line"/>
      <point x="271" y="374" type="line"/>
      <point x="107" y="669" type="line"/>
      <point x="5" y="669" type="line"/>
      <point x="221" y="303" type="line"/>
      <point x="221" y="0" type="line"/>
      <point x="315" y="0" type="line"/>
      <point x="315" y="304" type="line"/>
      <point x="531" y="669" type="line"/>
    </contour>
    <contour>
      <point x="82" y="194" type="line"/>
      <point x="82" y="133" type="line"/>
      <point x="453" y="133" type="line"/>
      <point x="453" y="194" type="line"/>
    </contour>
    <contour>
      <point x="82" y="346" type="line"/>
      <point x="82" y="284" type="line"/>
      <point x="453" y="284" type="line"/>
      <point x="453" y="346" type="line"/>
    </contour>
  </outline>
</glyph>
<glyph name="brokenbar" format="1">
  <advance width="403"/>
  <unicode hex="00A6"/>
  <outline>
    <contour>
      <point x="160" y="807" type="line"/>
      <point x="160" y="443" type="line"/>
      <point x="243" y="443" type="line"/>
      <point x="243" y="807" type="line"/>
    </contour>
    <contour>
      <point x="160" y="262" type="line"/>
      <point x="160" y="-102" type="line"/>
      <point x="243" y="-102" type="line"/>
      <point x="243" y="262" type="line"/>
    </contour>
  </outline>
</glyph>
<glyph name="section" format="1">
  <advance width="533"/>
  <unicode hex="00A7"/>
  <outline>
    <contour>
      <point x="178" y="677"/>
      <point x="94" y="624"/>
      <point x="94" y="533" type="curve" smooth="yes"/>
      <point x="94" y="449"/>
      <point x="154" y="417"/>
      <point x="267" y="376" type="curve" smooth="yes"/>
      <point x="353" y="345"/>
      <point x="375" y="327"/>
      <point x="375" y="280" type="curve" smooth="yes"/>
      <point x="375" y="252"/>
      <point x="354" y="219"/>
      <point x="322" y="194" type="curve"/>
      <point x="374" y="165" type="line"/>
      <point x="423" y="194"/>
      <point x="463" y="237"/>
      <point x="463" y="290" type="curve" smooth="yes"/>
      <point x="463" y="369"/>
      <point x="413" y="405"/>
      <point x="307" y="441" type="curve" smooth="yes"/>
      <point x="206" y="475"/>
      <point x="185" y="495"/>
      <point x="185" y="540" type="curve" smooth="yes"/>
      <point x="185" y="581"/>
      <point x="224" y="606"/>
      <point x="280" y="606" type="curve" smooth="yes"/>
      <point x="335" y="606"/>
      <point x="375" y="592"/>
      <point x="417" y="565" type="curve"/>
      <point x="452" y="623" type="line"/>
      <point x="408" y="655"/>
      <point x="355" y="677"/>
      <point x="281" y="677" type="curve" smooth="yes"/>
    </contour>
    <contour>
      <point x="111" y="417"/>
      <point x="70" y="368"/>
      <point x="70" y="311" type="curve" smooth="yes"/>
      <point x="70" y="231"/>
      <point x="120" y="197"/>
      <point x="225" y="163" type="curve" smooth="yes"/>
      <point x="327" y="130"/>
      <point x="349" y="113"/>
      <point x="349" y="66" type="curve" smooth="yes"/>
      <point x="349" y="24"/>
      <point x="305" y="1"/>
      <point x="249" y="1" type="curve" smooth="yes"/>
      <point x="195" y="1"/>
      <point x="153" y="13"/>
      <point x="112" y="41" type="curve"/>
      <point x="78" y="-21" type="line"/>
      <point x="119" y="-50"/>
      <point x="175" y="-71"/>
      <point x="246" y="-71" type="curve" smooth="yes"/>
      <point x="360" y="-71"/>
      <point x="441" y="-15"/>
      <point x="441" y="75" type="curve" smooth="yes"/>
      <point x="441" y="154"/>
      <point x="379" y="191"/>
      <point x="254" y="232" type="curve" smooth="yes"/>
      <point x="180" y="256"/>
      <point x="159" y="275"/>
      <point x="159" y="323" type="curve" smooth="yes"/>
      <point x="159" y="351"/>
      <point x="178" y="386"/>
      <point x="211" y="412" type="curve"/>
      <point x="159" y="443" type="line"/>
    </contour>
  </outline>
</glyph>
<glyph name="dieresis" format="1">
  <advance width="385"/>
  <unicode hex="00A8"/>
  <outline>
    <contour>
      <point x="265" y="768"/>
      <point x="240" y="743"/>
      <point x="240" y="711" type="curve" smooth="yes"/>
      <point x="240" y="679"/>
      <point x="265" y="654"/>
      <point x="297" y="654" type="curve" smooth="yes"/>
      <point x="330" y="654"/>
      <point x="355" y="679"/>
      <point x="355" y="711" type="curve" smooth="yes"/>
      <point x="355" y="743"/>
      <point x="330" y="768"/>
      <point x="297" y="768" type="curve" smooth="yes"/>
    </contour>
    <contour>
      <point x="55" y="768"/>
      <point x="30" y="743"/>
      <point x="30" y="711" type="curve" smooth="yes"/>
      <point x="30" y="679"/>
      <point x="55" y="654"/>
      <point x="88" y="654" type="curve" smooth="yes"/>
      <point x="120" y="654"/>
      <point x="145" y="679"/>
      <point x="145" y="711" type="curve" smooth="yes"/>
      <point x="145" y="743"/>
      <point x="120" y="768"/>
      <point x="88" y="768" type="curve" smooth="yes"/>
    </contour>
  </outline>
</glyph>
<glyph name="copyright" format="1">
  <advance width="810"/>
  <unicode hex="00A9"/>
  <outline>
    <contour>
      <point x="232" y="748"/>
      <point x="92" y="608"/>
      <point x="92" y="434" type="curve" smooth="yes"/>
      <point x="92" y="261"/>
      <point x="232" y="121"/>
      <point x="406" y="121" type="curve" smooth="yes"/>
      <point x="579" y="121"/>
      <point x="718" y="261"/>
      <point x="718" y="434" type="curve" smooth="yes"/>
      <point x="718" y="608"/>
      <point x="579" y="748"/>
      <point x="406" y="748" type="curve" smooth="yes"/>
    </contour>
    <contour>
      <point x="320" y="625"/>
      <point x="245" y="559"/>
      <point x="245" y="435" type="curve" smooth="yes"/>
      <point x="245" y="312"/>
      <point x="313" y="245"/>
      <point x="409" y="245" type="curve" smooth="yes"/>
      <point x="464" y="245"/>
      <point x="500" y="266"/>
      <point x="528" y="291" type="curve"/>
      <point x="496" y="339" type="line"/>
      <point x="471" y="320"/>
      <point x="447" y="308"/>
      <point x="412" y="308" type="curve" smooth="yes"/>
      <point x="358" y="308"/>
      <point x="321" y="348"/>
      <point x="321" y="435" type="curve" smooth="yes"/>
      <point x="321" y="528"/>
      <point x="361" y="565"/>
      <point x="412" y="565" type="curve" smooth="yes"/>
      <point x="440" y="565"/>
      <point x="465" y="556"/>
      <point x="488" y="536" type="curve"/>
      <point x="525" y="585" type="line"/>
      <point x="492" y="610"/>
      <point x="459" y="625"/>
      <point x="408" y="625" type="curve" smooth="yes"/>
    </contour>
    <contour>
      <point x="550" y="696"/>
      <point x="658" y="579"/>
      <point x="658" y="434" type="curve" smooth="yes"/>
      <point x="658" y="290"/>
      <point x="550" y="174"/>
      <point x="406" y="174" type="curve" smooth="yes"/>
      <point x="261" y="174"/>
      <point x="153" y="290"/>
      <point x="153" y="434" type="curve" smooth="yes"/>
      <point x="153" y="579"/>
      <point x="261" y="696"/>
      <point x="406" y="696" type="curve" smooth="yes"/>
    </contour>
  </outline>
</glyph>
<glyph name="logicalnot" format="1">
  <advance width="500"/>
  <unicode hex="00AC"/>
  <outline>
    <contour>
      <point x="62" y="361" type="line"/>
      <point x="62" y="284" type="line"/>
      <point x="355" y="284" type="line"/>
      <point x="355" y="141" type="line"/>
      <point x="438" y="141" type="line"/>
      <point x="438" y="361" type="line"/>
    </contour>
  </outline>
</glyph>
<glyph name="registered" format="1">
  <advance width="641"/>
  <unicode hex="00AE"/>
  <outline>
    <contour>
      <point x="178" y="750"/>
      <point x="67" y="635"/>
      <point x="67" y="493" type="curve" smooth="yes"/>
      <point x="67" y="351"/>
      <point x="178" y="238"/>
      <point x="319" y="238" type="curve" smooth="yes"/>
      <point x="464" y="238"/>
      <point x="574" y="351"/>
      <point x="574" y="493" type="curve" smooth="yes"/>
      <point x="574" y="635"/>
      <point x="464" y="750"/>
      <point x="319" y="750" type="curve" smooth="yes"/>
    </contour>
    <contour>
      <point x="303" y="476" type="line"/>
      <point x="370" y="359" type="line"/>
      <point x="437" y="359" type="line"/>
      <point x="355" y="486" type="line"/>
    </contour>
    <contour>
      <point x="437" y="701"/>
      <point x="519" y="608"/>
      <point x="519" y="493" type="curve" smooth="yes"/>
      <point x="519" y="378"/>
      <point x="437" y="287"/>
      <point x="319" y="287" type="curve" smooth="yes"/>
      <point x="205" y="287"/>
      <point x="122" y="378"/>
      <point x="122" y="493" type="curve" smooth="yes"/>
      <point x="122" y="608"/>
      <point x="205" y="701"/>
      <point x="319" y="701" type="curve" smooth="yes"/>
    </contour>
    <contour>
      <point x="228" y="635" type="line"/>
      <point x="228" y="359" type="line"/>
      <point x="285" y="359" type="line"/>
      <point x="285" y="591" type="line"/>
      <point x="313" y="591" type="line" smooth="yes"/>
      <point x="351" y="591"/>
      <point x="369" y="579"/>
      <point x="369" y="551" type="curve" smooth="yes"/>
      <point x="369" y="521"/>
      <point x="348" y="509"/>
      <point x="315" y="509" type="curve" smooth="yes"/>
      <point x="274" y="509" type="line"/>
      <point x="274" y="465" type="line"/>
      <point x="321" y="465" type="line"/>
      <point x="349" y="471" type="line"/>
      <point x="393" y="479"/>
      <point x="428" y="506"/>
      <point x="428" y="551" type="curve" smooth="yes"/>
      <point x="428" y="607"/>
      <point x="388" y="635"/>
      <point x="306" y="635" type="curve" smooth="yes"/>
    </contour>
  </outline>
</glyph>
<glyph name="macron" format="1">
  <advance width="333"/>
  <unicode hex="00AF"/>
  <outline>
    <contour>
      <point x="303" y="736" type="line"/>
      <point x="30" y="736" type="line"/>
      <point x="30" y="667" type="line"/>
      <point x="303" y="667" type="line"/>
    </contour>
  </outline>
</glyph>
<glyph name="degree" format="1">
  <advance width="523"/>
  <unicode hex="00B0"/>
  <outline>
    <contour>
      <point x="174" y="443"/>
      <point x="132" y="474"/>
      <point x="132" y="541" type="curve" smooth="yes"/>
      <point x="132" y="608"/>
      <point x="174" y="638"/>
      <point x="219" y="638" type="curve" smooth="yes"/>
      <point x="265" y="638"/>
      <point x="306" y="606"/>
      <point x="306" y="540" type="curve" smooth="yes"/>
      <point x="306" y="474"/>
      <point x="265" y="443"/>
      <point x="219" y="443" type="curve" smooth="yes"/>
    </contour>
    <contour>
      <point x="303" y="381"/>
      <point x="383" y="437"/>
      <point x="383" y="540" type="curve" smooth="yes"/>
      <point x="383" y="643"/>
      <point x="303" y="701"/>
      <point x="219" y="701" type="curve" smooth="yes"/>
      <point x="136" y="701"/>
      <point x="55" y="644"/>
      <point x="55" y="541" type="curve" smooth="yes"/>
      <point x="55" y="438"/>
      <point x="136" y="381"/>
      <point x="219" y="381" type="curve" smooth="yes"/>
    </contour>
  </outline>
</glyph>
<glyph name="acute" format="1">
  <advance width="300"/>
  <unicode hex="00B4"/>
  <outline>
    <contour>
      <point x="30" y="687" type="line"/>
      <point x="58" y="638" type="line"/>
      <point x="270" y="724" type="line"/>
      <point x="229" y="801" type="line"/>
    </contour>
  </outline>
</glyph>
<glyph name="paragraph" format="1">
  <advance width="734"/>
  <unicode hex="00B6"/>
  <outline>
    <contour>
      <point x="336" y="688" type="line"/>
      <point x="314" y="642" type="line"/>
      <point x="314" y="-215" type="line"/>
      <point x="397" y="-202" type="line"/>
      <point x="397" y="615" type="line"/>
      <point x="511" y="615" type="line"/>
      <point x="511" y="-215" type="line"/>
      <point x="594" y="-202" type="line"/>
      <point x="594" y="689" type="line"/>
    </contour>
    <contour>
      <point x="185" y="688"/>
      <point x="90" y="615"/>
      <point x="90" y="485" type="curve" smooth="yes"/>
      <point x="90" y="369"/>
      <point x="163" y="282"/>
      <point x="336" y="282" type="curve"/>
      <point x="336" y="688" type="line"/>
    </contour>
  </outline>
</glyph>
<glyph name="cedilla" format="1">
  <advance width="275"/>
  <unicode hex="00B8"/>
  <outline>
    <contour>
      <point x="93" y="16" type="line"/>
      <point x="79" y="-99" type="line"/>
      <point x="143" y="-99"/>
      <point x="168" y="-114"/>
      <point x="168" y="-141" type="curve" smooth="yes"/>
      <point x="168" y="-170"/>
      <point x="146" y="-181"/>
      <point x="118" y="-181" type="curve" smooth="yes"/>
      <point x="92" y="-181"/>
      <point x="74" y="-175"/>
      <point x="55" y="-165" type="curve"/>
      <point x="30" y="-217" type="line"/>
      <point x="50" y="-232"/>
      <point x="83" y="-241"/>
      <point x="121" y="-241" type="curve" smooth="yes"/>
      <point x="189" y="-241"/>
      <point x="245" y="-207"/>
      <point x="245" y="-141" type="curve" smooth="yes"/>
      <point x="245" y="-100"/>
      <point x="220" y="-62"/>
      <point x="152" y="-56" type="curve"/>
      <point x="152" y="16" type="line"/>
    </contour>
    <contour>
      <point x="128" y="0" type="move" name="_bottom"/>
    </contour>
  </outline>
</glyph>
<glyph name="ordmasculine" format="1">
  <advance width="500"/>
  <unicode hex="00BA"/>
  <outline>
    <contour>
      <point x="128" y="689"/>
      <point x="56" y="605"/>
      <point x="56" y="480" type="curve" smooth="yes"/>
      <point x="56" y="351"/>
      <point x="127" y="271"/>
      <point x="250" y="271" type="curve" smooth="yes"/>
      <point x="373" y="271"/>
      <point x="444" y="356"/>
      <point x="444" y="480" type="curve" smooth="yes"/>
      <point x="444" y="609"/>
      <point x="374" y="689"/>
      <point x="251" y="689" type="curve" smooth="yes"/>
    </contour>
    <contour>
      <point x="315" y="620"/>
      <point x="349" y="577"/>
      <point x="349" y="480" type="curve" smooth="yes"/>
      <point x="349" y="384"/>
      <point x="315" y="340"/>
      <point x="250" y="340" type="curve" smooth="yes"/>
      <point x="186" y="340"/>
      <point x="151" y="384"/>
      <point x="151" y="480" type="curve" smooth="yes"/>
      <point x="151" y="576"/>
      <point x="186" y="620"/>
      <point x="251" y="620" type="curve" smooth="yes"/>
    </contour>
    <component base="minus" yOffset="-294"/>
  </outline>
</glyph>
<glyph name="questiondown" format="1">
  <advance width="459"/>
  <unicode hex="00BF"/>
  <outline>
    <contour>
      <point x="304" y="-215"/>
      <point x="372" y="-183"/>
      <point x="429" y="-116" type="curve"/>
      <point x="366" y="-67" type="line"/>
      <point x="325" y="-117"/>
      <point x="277" y="-139"/>
      <point x="227" y="-139" type="curve" smooth="yes"/>
      <point x="165" y="-139"/>
      <point x="126" y="-108"/>
      <point x="126" y="-53" type="curve" smooth="yes"/>
      <point x="126" y="55"/>
      <point x="302" y="38"/>
      <point x="302" y="201" type="curve" smooth="yes"/>
      <point x="302" y="247" type="line"/>
      <point x="211" y="247" type="line"/>
      <point x="211" y="206" type="line" smooth="yes"/>
      <point x="211" y="80"/>
      <point x="30" y="101"/>
      <point x="30" y="-59" type="curve" smooth="yes"/>
      <point x="30" y="-139"/>
      <point x="95" y="-215"/>
      <point x="221" y="-215" type="curve" smooth="yes"/>
    </contour>
    <contour>
      <point x="293" y="356"/>
      <point x="323" y="387"/>
      <point x="323" y="425" type="curve" smooth="yes"/>
      <point x="323" y="464"/>
      <point x="293" y="495"/>
      <point x="254" y="495" type="curve" smooth="yes"/>
      <point x="214" y="495"/>
      <point x="184" y="464"/>
      <point x="184" y="425" type="curve" smooth="yes"/>
      <point x="184" y="387"/>
      <point x="214" y="356"/>
      <point x="254" y="356" type="curve" smooth="yes"/>
    </contour>
  </outline>
</glyph>
<glyph name="Eth" format="1">
  <advance width="656"/>
  <unicode hex="00D0"/>
  <outline>
    <contour>
      <point x="112" y="388" type="line"/>
      <point x="20" y="388" type="line"/>
      <point x="20" y="318" type="line"/>
      <point x="364" y="318" type="line"/>
      <point x="364" y="388" type="line"/>
    </contour>
    <component base="D" xOffset="12"/>
  </outline>
</glyph>
<glyph name="multiply" format="1">
  <advance width="500"/>
  <unicode hex="00D7"/>
  <outline>
    <contour>
      <point x="250" y="363" type="line"/>
      <point x="128" y="486" type="line"/>
      <point x="72" y="429" type="line"/>
      <point x="194" y="307" type="line"/>
      <point x="72" y="185" type="line"/>
      <point x="128" y="129" type="line"/>
      <point x="250" y="251" type="line"/>
      <point x="372" y="129" type="line"/>
      <point x="428" y="185" type="line"/>
      <point x="306" y="307" type="line"/>
      <point x="428" y="429" type="line"/>
      <point x="372" y="486" type="line"/>
    </contour>
  </outline>
</glyph>
<glyph name="Oslash" format="1">
  <advance width="692"/>
  <unicode hex="00D8"/>
  <outline>
    <contour>
      <point x="174" y="701"/>
      <point x="55" y="570"/>
      <point x="55" y="343" type="curve" smooth="yes"/>
      <point x="55" y="112"/>
      <point x="174" y="-12"/>
      <point x="346" y="-12" type="curve" smooth="yes"/>
      <point x="519" y="-12"/>
      <point x="637" y="116"/>
      <point x="637" y="344" type="curve" smooth="yes"/>
      <point x="637" y="576"/>
      <point x="519" y="701"/>
      <point x="346" y="701" type="curve" smooth="yes"/>
    </contour>
    <contour>
      <point x="464" y="623"/>
      <point x="536" y="552"/>
      <point x="536" y="344" type="curve" smooth="yes"/>
      <point x="536" y="144"/>
      <point x="462" y="66"/>
      <point x="346" y="66" type="curve" smooth="yes"/>
      <point x="234" y="66"/>
      <point x="156" y="134"/>
      <point x="156" y="343" type="curve" smooth="yes"/>
      <point x="156" y="542"/>
      <point x="231" y="623"/>
      <point x="346" y="623" type="curve" smooth="yes"/>
    </contour>
    <contour>
      <point x="410" y="689" type="line"/>
      <point x="398" y="626" type="line"/>
      <point x="235" y="86" type="line"/>
      <point x="208" y="32" type="line"/>
      <point x="165" y="-106" type="line"/>
      <point x="244" y="-127" type="line"/>
      <point x="281" y="0" type="line"/>
      <point x="293" y="63" type="line"/>
      <point x="456" y="606" type="line"/>
      <point x="483" y="657" type="line"/>
      <point x="528" y="798" type="line"/>
      <point x="449" y="819" type="line"/>
    </contour>
    <contour>
      <point x="341" y="704" type="move" name="top"/>
    </contour>
    <contour>
      <point x="346" y="0" type="move" name="bottom"/>
    </contour>
  </outline>
</glyph>
<glyph name="ae" format="1">
  <advance width="854"/>
  <unicode hex="00E6"/>
  <outline>
    <contour>
      <point x="444" y="539"/>
      <point x="386" y="423"/>
      <point x="361" y="261" type="curve"/>
      <point x="361" y="257" type="line" smooth="yes"/>
      <point x="362" y="89"/>
      <point x="448" y="-12"/>
      <point x="594" y="-12" type="curve" smooth="yes"/>
      <point x="667" y="-12"/>
      <point x="726" y="13"/>
      <point x="778" y="54" type="curve"/>
      <point x="738" y="109" type="line"/>
      <point x="692" y="77"/>
      <point x="653" y="63"/>
      <point x="601" y="63" type="curve" smooth="yes"/>
      <point x="518" y="63"/>
      <point x="458" y="118"/>
      <point x="458" y="265" type="curve" smooth="yes"/>
      <point x="458" y="407"/>
      <point x="505" y="466"/>
      <point x="582" y="466" type="curve" smooth="yes"/>
      <point x="665" y="466"/>
      <point x="706" y="409"/>
      <point x="706" y="306" type="curve" smooth="yes"/>
      <point x="706" y="304"/>
      <point x="706" y="302"/>
      <point x="706" y="300" type="curve"/>
      <point x="443" y="300" type="line"/>
      <point x="443" y="232" type="line"/>
      <point x="795" y="232" type="line"/>
      <point x="796" y="244"/>
      <point x="797" y="261"/>
      <point x="797" y="279" type="curve" smooth="yes"/>
      <point x="797" y="440"/>
      <point x="722" y="539"/>
      <point x="584" y="539" type="curve" smooth="yes"/>
    </contour>
    <contour>
      <point x="280" y="321" type="line" smooth="yes"/>
      <point x="133" y="321"/>
      <point x="45" y="260"/>
      <point x="45" y="147" type="curve" smooth="yes"/>
      <point x="45" y="53"/>
      <point x="110" y="-12"/>
      <point x="216" y="-12" type="curve" smooth="yes"/>
      <point x="301" y="-12"/>
      <point x="361" y="17"/>
      <point x="412" y="96" type="curve"/>
      <point x="382" y="160" type="line"/>
      <point x="341" y="89"/>
      <point x="297" y="57"/>
      <point x="237" y="57" type="curve" smooth="yes"/>
      <point x="177" y="57"/>
      <point x="146" y="90"/>
      <point x="146" y="152" type="curve" smooth="yes"/>
      <point x="146" y="224"/>
      <point x="195" y="260"/>
      <point x="292" y="260" type="curve" smooth="yes"/>
      <point x="376" y="260" type="line"/>
      <point x="376" y="321" type="line"/>
    </contour>
    <contour>
      <point x="209" y="539"/>
      <point x="151" y="527"/>
      <point x="86" y="503" type="curve"/>
      <point x="109" y="436" type="line"/>
      <point x="163" y="454"/>
      <point x="212" y="464"/>
      <point x="251" y="464" type="curve" smooth="yes"/>
      <point x="324" y="464"/>
      <point x="361" y="436"/>
      <point x="361" y="360" type="curve"/>
      <point x="361" y="261" type="line"/>
      <point x="453" y="262" type="line"/>
      <point x="453" y="364" type="line"/>
      <point x="437" y="464"/>
      <point x="395" y="539"/>
      <point x="268" y="539" type="curve" smooth="yes"/>
    </contour>
    <contour>
      <point x="427" y="527" type="move" name="top"/>
    </contour>
    <contour>
      <point x="417" y="0" type="move" name="bottom"/>
    </contour>
  </outline>
</glyph>
<glyph name="eth" format="1">
  <advance width="570"/>
  <unicode hex="00F0"/>
  <outline>
    <contour>
      <point x="112" y="680" type="line"/>
      <point x="164" y="670"/>
      <point x="204" y="657"/>
      <point x="257" y="628" type="curve"/>
      <point x="347" y="569"/>
      <point x="390" y="496"/>
      <point x="407" y="397" type="curve"/>
      <point x="411" y="347" type="line"/>
      <point x="413" y="321"/>
      <point x="415" y="296"/>
      <point x="415" y="266" type="curve" smooth="yes"/>
      <point x="415" y="131"/>
      <point x="358" y="61"/>
      <point x="277" y="61" type="curve" smooth="yes"/>
      <point x="202" y="61"/>
      <point x="151" y="122"/>
      <point x="151" y="239" type="curve" smooth="yes"/>
      <point x="151" y="327"/>
      <point x="178" y="403"/>
      <point x="272" y="403" type="curve" smooth="yes"/>
      <point x="340" y="403"/>
      <point x="387" y="371"/>
      <point x="421" y="311" type="curve"/>
      <point x="414" y="397" type="line"/>
      <point x="378" y="445"/>
      <point x="329" y="475"/>
      <point x="258" y="475" type="curve" smooth="yes"/>
      <point x="121" y="475"/>
      <point x="57" y="353"/>
      <point x="57" y="235" type="curve" smooth="yes"/>
      <point x="57" y="77"/>
      <point x="155" y="-12"/>
      <point x="278" y="-12" type="curve" smooth="yes"/>
      <point x="414" y="-12"/>
      <point x="508" y="97"/>
      <point x="508" y="265" type="curve" smooth="yes"/>
      <point x="508" y="462"/>
      <point x="458" y="593"/>
      <point x="305" y="689" type="curve"/>
      <point x="250" y="720"/>
      <point x="197" y="737"/>
      <point x="132" y="750" type="curve"/>
    </contour>
    <contour>
      <point x="270" y="690" type="line"/>
      <point x="237" y="657" type="line"/>
      <point x="151" y="569" type="line"/>
      <point x="214" y="537" type="line"/>
      <point x="299" y="620" type="line"/>
      <point x="333" y="655" type="line"/>
      <point x="405" y="729" type="line"/>
      <point x="351" y="776" type="line"/>
    </contour>
    <contour>
      <point x="294" y="739" type="move" name="top"/>
    </contour>
    <contour>
      <point x="278" y="0" type="move" name="bottom"/>
    </contour>
  </outline>
</glyph>
<glyph name="dcroat" format="1">
  <advance width="607"/>
  <unicode hex="0111"/>
  <outline>
    <contour>
      <point x="253" y="676" type="line"/>
      <point x="253" y="606" type="line"/>
      <point x="503" y="606" type="line"/>
      <point x="582" y="606" type="line"/>
      <point x="582" y="676" type="line"/>
    </contour>
    <component base="d"/>
  </outline>
</glyph>
<glyph name="Hbar" format="1">
  <advance width="688"/>
  <unicode hex="0126"/>
  <outline>
    <contour>
      <point x="584" y="577" type="line"/>
      <point x="35" y="577" type="line"/>
      <point x="35" y="508" type="line"/>
      <point x="104" y="508" type="line"/>
      <point x="653" y="508" type="line"/>
      <point x="653" y="577" type="line"/>
    </contour>
    <component base="H" xOffset="4"/>
  </outline>
</glyph>
<glyph name="hbar" format="1">
  <advance width="592"/>
  <unicode hex="0127"/>
  <outline>
    <contour>
      <point x="25" y="676" type="line"/>
      <point x="25" y="606" type="line"/>
      <point x="104" y="606" type="line"/>
      <point x="344" y="606" type="line"/>
      <point x="344" y="676" type="line"/>
    </contour>
    <component base="h" xOffset="6"/>
  </outline>
</glyph>
<glyph name="dotlessi" format="1">
  <advance width="282"/>
  <unicode hex="0131"/>
  <outline>
    <contour>
      <point x="95" y="527" type="line"/>
      <point x="95" y="0" type="line"/>
      <point x="187" y="0" type="line"/>
      <point x="187" y="527" type="line"/>
    </contour>
    <contour>
      <point x="197" y="0" type="move" name="ogonek"/>
    </contour>
    <contour>
      <point x="141" y="0" type="move" name="bottom"/>
    </contour>
    <contour>
      <point x="141" y="527" type="move" name="top"/>
    </contour>
  </outline>
</glyph>
<glyph name="kgreenlandic" format="1">
  <advance width="509"/>
  <unicode hex="0138"/>
  <outline>
    <contour>
      <point x="384" y="527" type="line"/>
      <point x="190" y="278" type="line"/>
      <point x="399" y="0" type="line"/>
      <point x="509" y="0" type="line"/>
      <point x="293" y="284" type="line"/>
      <point x="487" y="527" type="line"/>
    </contour>
    <contour>
      <point x="95" y="527" type="line"/>
      <point x="95" y="0" type="line"/>
      <point x="187" y="0" type="line"/>
      <point x="187" y="527" type="line"/>
    </contour>
  </outline>
</glyph>
<glyph name="Lslash" format="1">
  <advance width="514"/>
  <unicode hex="0141"/>
  <outline>
    <contour>
      <point x="116" y="340" type="line"/>
      <point x="22" y="282" type="line"/>
      <point x="60" y="222" type="line"/>
      <point x="409" y="438" type="line"/>
      <point x="371" y="498" type="line"/>
    </contour>
    <component base="L" xOffset="16"/>
  </outline>
</glyph>
<glyph name="lslash" format="1">
  <advance width="312"/>
  <unicode hex="0142"/>
  <outline>
    <contour>
      <point x="312" y="432" type="line"/>
      <point x="279" y="492" type="line"/>
      <point x="96" y="382" type="line"/>
      <point x="10" y="328" type="line"/>
      <point x="45" y="269" type="line"/>
    </contour>
    <component base="l" xOffset="6"/>
  </outline>
</glyph>
<glyph name="napostrophe" format="1">
  <advance width="586"/>
  <unicode hex="0149"/>
  <outline>
    <contour>
      <point x="-38" y="753"/>
      <point x="-64" y="729"/>
      <point x="-64" y="697" type="curve" smooth="yes"/>
      <point x="-64" y="678"/>
      <point x="-54" y="662"/>
      <point x="-40" y="650" type="curve"/>
      <point x="-69" y="534" type="line"/>
      <point x="-16" y="534" type="line"/>
      <point x="25" y="620" type="line" smooth="yes"/>
      <point x="46" y="664"/>
      <point x="51" y="680"/>
      <point x="51" y="697" type="curve" smooth="yes"/>
      <point x="51" y="729"/>
      <point x="26" y="753"/>
      <point x="-6" y="753" type="curve" smooth="yes"/>
    </contour>
    <component base="n"/>
  </outline>
</glyph>
<glyph name="eng" format="1">
  <advance width="586"/>
  <unicode hex="014B"/>
  <outline>
    <component base="n"/>
    <component base="hookHELPER" xOffset="200"/>
    <contour>
      <point x="282" y="-202" type="move" name="bottom"/>
    </contour>
  </outline>
</glyph>
<glyph name="oe" format="1">
  <advance width="921"/>
  <unicode hex="0153"/>
  <outline>
    <contour>
      <point x="143" y="539"/>
      <point x="57" y="426"/>
      <point x="57" y="263" type="curve" smooth="yes"/>
      <point x="57" y="96"/>
      <point x="142" y="-12"/>
      <point x="292" y="-12" type="curve" smooth="yes"/>
      <point x="438" y="-12"/>
      <point x="505" y="106"/>
      <point x="527" y="264" type="curve"/>
      <point x="507" y="431"/>
      <point x="441" y="539"/>
      <point x="293" y="539" type="curve" smooth="yes"/>
    </contour>
    <contour>
      <point x="380" y="465"/>
      <point x="428" y="401"/>
      <point x="428" y="264" type="curve" smooth="yes"/>
      <point x="428" y="126"/>
      <point x="380" y="62"/>
      <point x="292" y="62" type="curve" smooth="yes"/>
      <point x="204" y="62"/>
      <point x="156" y="126"/>
      <point x="156" y="263" type="curve" smooth="yes"/>
      <point x="156" y="401"/>
      <point x="205" y="465"/>
      <point x="293" y="465" type="curve" smooth="yes"/>
    </contour>
    <contour>
      <point x="513" y="539"/>
      <point x="448" y="422"/>
      <point x="428" y="258" type="curve"/>
      <point x="450" y="95"/>
      <point x="517" y="-12"/>
      <point x="661" y="-12" type="curve" smooth="yes"/>
      <point x="734" y="-12"/>
      <point x="793" y="13"/>
      <point x="845" y="54" type="curve"/>
      <point x="805" y="109" type="line"/>
      <point x="759" y="77"/>
      <point x="720" y="63"/>
      <point x="668" y="63" type="curve" smooth="yes"/>
      <point x="585" y="63"/>
      <point x="525" y="118"/>
      <point x="525" y="265" type="curve" smooth="yes"/>
      <point x="525" y="407"/>
      <point x="572" y="466"/>
      <point x="649" y="466" type="curve" smooth="yes"/>
      <point x="732" y="466"/>
      <point x="773" y="409"/>
      <point x="773" y="306" type="curve" smooth="yes"/>
      <point x="773" y="304"/>
      <point x="773" y="302"/>
      <point x="773" y="300" type="curve"/>
      <point x="510" y="300" type="line"/>
      <point x="510" y="232" type="line"/>
      <point x="862" y="232" type="line"/>
      <point x="863" y="244"/>
      <point x="864" y="261"/>
      <point x="864" y="279" type="curve" smooth="yes"/>
      <point x="864" y="440"/>
      <point x="789" y="539"/>
      <point x="647" y="539" type="curve" smooth="yes"/>
    </contour>
    <contour>
      <point x="471" y="527" type="move" name="top"/>
    </contour>
    <contour>
      <point x="478" y="0" type="move" name="bottom"/>
    </contour>
  </outline>
</glyph>
<glyph name="tbar" format="1">
  <advance width="361"/>
  <unicode hex="0167"/>
  <outline>
    <contour>
      <point x="101" y="357" type="line"/>
      <point x="20" y="357" type="line"/>
      <point x="20" y="286" type="line"/>
      <point x="303" y="286" type="line"/>
      <point x="303" y="357" type="line"/>
    </contour>
    <component base="t"/>
  </outline>
</glyph>
<glyph name="uni0180" format="1">
  <advance width="603"/>
  <unicode hex="0180"/>
  <outline>
    <contour>
      <point x="25" y="676" type="line"/>
      <point x="25" y="606" type="line"/>
      <point x="104" y="606" type="line"/>
      <point x="344" y="606" type="line"/>
      <point x="344" y="676" type="line"/>
    </contour>
    <component base="b" xOffset="9"/>
  </outline>
</glyph>
<glyph name="uni0183" format="1">
  <advance width="594"/>
  <unicode hex="0183"/>
  <outline>
    <contour>
      <point x="453" y="-12"/>
      <point x="532" y="99"/>
      <point x="532" y="264" type="curve" smooth="yes"/>
      <point x="532" y="440"/>
      <point x="455" y="539"/>
      <point x="336" y="539" type="curve" smooth="yes"/>
      <point x="266" y="539"/>
      <point x="214" y="504"/>
      <point x="177" y="446" type="curve"/>
      <point x="179" y="371" type="line"/>
      <point x="206" y="417"/>
      <point x="246" y="466"/>
      <point x="310" y="466" type="curve" smooth="yes"/>
      <point x="384" y="466"/>
      <point x="433" y="414"/>
      <point x="433" y="264" type="curve" smooth="yes"/>
      <point x="433" y="120"/>
      <point x="380" y="61"/>
      <point x="303" y="61" type="curve" smooth="yes"/>
      <point x="250" y="61"/>
      <point x="205" y="97"/>
      <point x="178" y="147" type="curve"/>
      <point x="172" y="75" type="line"/>
      <point x="209" y="21"/>
      <point x="260" y="-12"/>
      <point x="325" y="-12" type="curve" smooth="yes"/>
    </contour>
    <contour>
      <point x="176" y="0" type="line"/>
      <point x="187" y="70" type="line"/>
      <point x="187" y="739" type="line"/>
      <point x="95" y="739" type="line"/>
      <point x="95" y="0" type="line"/>
    </contour>
    <contour>
      <point x="399" y="669" type="line"/>
      <point x="411" y="739" type="line"/>
      <point x="105" y="739" type="line"/>
      <point x="187" y="669" type="line"/>
    </contour>
  </outline>
</glyph>
<glyph name="uni0184" format="1">
  <advance width="573"/>
  <unicode hex="0184"/>
  <outline>
    <contour>
      <point x="281" y="0" type="line" smooth="yes"/>
      <point x="437" y="0"/>
      <point x="548" y="61"/>
      <point x="548" y="223" type="curve" smooth="yes"/>
      <point x="548" y="368"/>
      <point x="446" y="436"/>
      <point x="285" y="436" type="curve" smooth="yes"/>
      <point x="178" y="436" type="line"/>
      <point x="178" y="362" type="line"/>
      <point x="286" y="362" type="line" smooth="yes"/>
      <point x="387" y="362"/>
      <point x="447" y="326"/>
      <point x="447" y="221" type="curve" smooth="yes"/>
      <point x="447" y="103"/>
      <point x="380" y="76"/>
      <point x="289" y="76" type="curve" smooth="yes"/>
      <point x="194" y="76" type="line"/>
      <point x="194" y="689" type="line"/>
      <point x="109" y="689" type="line"/>
      <point x="99" y="573" type="line"/>
      <point x="99" y="0" type="line"/>
    </contour>
    <contour>
      <point x="109" y="689" type="line"/>
      <point x="88" y="642"/>
      <point x="59" y="597"/>
      <point x="30" y="566" type="curve"/>
      <point x="99" y="524" type="line"/>
    </contour>
  </outline>
</glyph>
<glyph name="uni0185" format="1">
  <advance width="520"/>
  <unicode hex="0185"/>
  <outline>
    <contour>
      <point x="278" y="0" type="line"/>
      <point x="385" y="0"/>
      <point x="485" y="54"/>
      <point x="485" y="180" type="curve" smooth="yes"/>
      <point x="485" y="287"/>
      <point x="426" y="357"/>
      <point x="261" y="357" type="curve" smooth="yes"/>
      <point x="175" y="357" type="line"/>
      <point x="175" y="287" type="line"/>
      <point x="260" y="287" type="line" smooth="yes"/>
      <point x="357" y="287"/>
      <point x="387" y="250"/>
      <point x="387" y="180" type="curve" smooth="yes"/>
      <point x="387" y="98"/>
      <point x="339" y="72"/>
      <point x="270" y="72" type="curve" smooth="yes"/>
      <point x="191" y="72" type="line"/>
      <point x="191" y="527" type="line"/>
      <point x="109" y="527" type="line"/>
      <point x="99" y="451" type="line"/>
      <point x="99" y="0" type="line"/>
    </contour>
    <contour>
      <point x="109" y="527" type="line"/>
      <point x="87" y="483"/>
      <point x="60" y="445"/>
      <point x="30" y="414" type="curve"/>
      <point x="99" y="372" type="line"/>
    </contour>
  </outline>
</glyph>
<glyph name="uni0186" format="1">
  <advance width="560"/>
  <unicode hex="0186"/>
  <outline>
    <contour>
      <point x="151" y="701"/>
      <point x="87" y="677"/>
      <point x="28" y="633" type="curve"/>
      <point x="77" y="573" type="line"/>
      <point x="123" y="605"/>
      <point x="174" y="623"/>
      <point x="233" y="623" type="curve" smooth="yes"/>
      <point x="327" y="623"/>
      <point x="404" y="553"/>
      <point x="404" y="345" type="curve" smooth="yes"/>
      <point x="404" y="146"/>
      <point x="321" y="68"/>
      <point x="214" y="68" type="curve" smooth="yes"/>
      <point x="149" y="68"/>
      <point x="107" y="96"/>
      <point x="67" y="124" type="curve"/>
      <point x="20" y="65" type="line"/>
      <point x="62" y="26"/>
      <point x="124" y="-12"/>
      <point x="217" y="-12" type="curve" smooth="yes"/>
      <point x="384" y="-12"/>
      <point x="505" y="113"/>
      <point x="505" y="346" type="curve" smooth="yes"/>
      <point x="505" y="578"/>
      <point x="402" y="701"/>
      <point x="239" y="701" type="curve" smooth="yes"/>
    </contour>
    <contour>
      <point x="219" y="346" type="move" name="center"/>
    </contour>
    <contour>
      <point x="230" y="0" type="move" name="bottom"/>
    </contour>
    <contour>
      <point x="230" y="689" type="move" name="top"/>
    </contour>
  </outline>
</glyph>
<glyph name="uni0187" format="1">
  <advance width="560"/>
  <unicode hex="0187"/>
  <outline>
    <contour>
      <point x="436" y="-12"/>
      <point x="503" y="26"/>
      <point x="540" y="65" type="curve"/>
      <point x="492" y="126" type="line"/>
      <point x="453" y="97"/>
      <point x="411" y="68"/>
      <point x="346" y="68" type="curve" smooth="yes"/>
      <point x="239" y="68"/>
      <point x="156" y="146"/>
      <point x="156" y="345" type="curve" smooth="yes"/>
      <point x="156" y="553"/>
      <point x="243" y="623"/>
      <point x="347" y="623" type="curve" smooth="yes"/>
      <point x="395" y="623"/>
      <point x="442" y="608"/>
      <point x="488" y="581" type="curve"/>
      <point x="532" y="633" type="line"/>
      <point x="509" y="649"/>
      <point x="484" y="665"/>
      <point x="450" y="678" type="curve"/>
      <point x="422" y="692"/>
      <point x="385" y="701"/>
      <point x="341" y="701" type="curve" smooth="yes"/>
      <point x="185" y="701"/>
      <point x="55" y="578"/>
      <point x="55" y="345" type="curve" smooth="yes"/>
      <point x="55" y="113"/>
      <point x="176" y="-12"/>
      <point x="343" y="-12" type="curve" smooth="yes"/>
    </contour>
    <contour>
      <point x="532" y="633" type="line"/>
      <point x="532" y="684" type="line" smooth="yes"/>
      <point x="532" y="737"/>
      <point x="557" y="758"/>
      <point x="596" y="758" type="curve" smooth="yes"/>
      <point x="629" y="758"/>
      <point x="647" y="749"/>
      <point x="670" y="735" type="curve"/>
      <point x="706" y="794" type="line"/>
      <point x="681" y="813"/>
      <point x="644" y="832"/>
      <point x="591" y="832" type="curve" smooth="yes"/>
      <point x="495" y="832"/>
      <point x="440" y="776"/>
      <point x="440" y="676" type="curve" smooth="yes"/>
      <point x="440" y="665" type="line"/>
    </contour>
  </outline>
</glyph>
<glyph name="uni0188" format="1">
  <advance width="478"/>
  <unicode hex="0188"/>
  <outline>
    <contour>
      <point x="415" y="750"/>
      <point x="356" y="698"/>
      <point x="356" y="594" type="curve" smooth="yes"/>
      <point x="356" y="526" type="line"/>
      <point x="448" y="482" type="line"/>
      <point x="448" y="602" type="line" smooth="yes"/>
      <point x="448" y="655"/>
      <point x="473" y="676"/>
      <point x="512" y="676" type="curve" smooth="yes"/>
      <point x="545" y="676"/>
      <point x="563" y="667"/>
      <point x="586" y="653" type="curve"/>
      <point x="622" y="712" type="line"/>
      <point x="597" y="731"/>
      <point x="560" y="750"/>
      <point x="507" y="750" type="curve" smooth="yes"/>
    </contour>
    <contour>
      <point x="144" y="539"/>
      <point x="57" y="427"/>
      <point x="57" y="259" type="curve" smooth="yes"/>
      <point x="57" y="89"/>
      <point x="145" y="-12"/>
      <point x="287" y="-12" type="curve" smooth="yes"/>
      <point x="348" y="-12"/>
      <point x="401" y="8"/>
      <point x="448" y="46" type="curve"/>
      <point x="404" y="109" type="line"/>
      <point x="366" y="80"/>
      <point x="335" y="66"/>
      <point x="291" y="66" type="curve" smooth="yes"/>
      <point x="208" y="66"/>
      <point x="156" y="123"/>
      <point x="156" y="261" type="curve" smooth="yes"/>
      <point x="156" y="398"/>
      <point x="208" y="463"/>
      <point x="291" y="463" type="curve" smooth="yes"/>
      <point x="345" y="463"/>
      <point x="378" y="450"/>
      <point x="410" y="432" type="curve"/>
      <point x="448" y="482" type="line"/>
      <point x="427" y="497"/>
      <point x="399" y="513"/>
      <point x="364" y="524" type="curve"/>
      <point x="342" y="534"/>
      <point x="318" y="539"/>
      <point x="287" y="539" type="curve" smooth="yes"/>
    </contour>
  </outline>
</glyph>
<glyph name="uni018B" format="1">
  <advance width="579"/>
  <unicode hex="018B"/>
  <outline>
    <contour>
      <point x="384" y="76" type="line"/>
      <point x="289" y="76" type="line" smooth="yes"/>
      <point x="198" y="76"/>
      <point x="131" y="100"/>
      <point x="131" y="212" type="curve" smooth="yes"/>
      <point x="131" y="317"/>
      <point x="191" y="356"/>
      <point x="292" y="356" type="curve" smooth="yes"/>
      <point x="400" y="356" type="line"/>
      <point x="400" y="430" type="line"/>
      <point x="293" y="430" type="line" smooth="yes"/>
      <point x="132" y="430"/>
      <point x="30" y="355"/>
      <point x="30" y="212" type="curve" smooth="yes"/>
      <point x="30" y="58"/>
      <point x="140" y="0"/>
      <point x="287" y="0" type="curve" smooth="yes"/>
      <point x="479" y="0" type="line"/>
      <point x="479" y="689" type="line"/>
      <point x="384" y="679" type="line"/>
    </contour>
    <contour>
      <point x="109" y="611" type="line"/>
      <point x="400" y="611" type="line"/>
      <point x="479" y="689" type="line"/>
      <point x="109" y="689" type="line"/>
    </contour>
  </outline>
</glyph>
<glyph name="uni018C" format="1">
  <advance width="598"/>
  <unicode hex="018C"/>
  <outline>
    <contour>
      <point x="332" y="-12"/>
      <point x="389" y="26"/>
      <point x="422" y="88" type="curve"/>
      <point x="419" y="151" type="line"/>
      <point x="381" y="94"/>
      <point x="344" y="61"/>
      <point x="281" y="61" type="curve" smooth="yes"/>
      <point x="205" y="61"/>
      <point x="161" y="124"/>
      <point x="161" y="263" type="curve" smooth="yes"/>
      <point x="161" y="400"/>
      <point x="210" y="466"/>
      <point x="289" y="466" type="curve" smooth="yes"/>
      <point x="346" y="466"/>
      <point x="385" y="434"/>
      <point x="420" y="385" type="curve"/>
      <point x="421" y="463" type="line"/>
      <point x="385" y="505"/>
      <point x="337" y="539"/>
      <point x="269" y="539" type="curve" smooth="yes"/>
      <point x="140" y="539"/>
      <point x="62" y="422"/>
      <point x="62" y="261" type="curve" smooth="yes"/>
      <point x="62" y="97"/>
      <point x="133" y="-12"/>
      <point x="261" y="-12" type="curve" smooth="yes"/>
    </contour>
    <contour>
      <point x="503" y="0" type="line"/>
      <point x="503" y="739" type="line"/>
      <point x="411" y="739" type="line"/>
      <point x="411" y="123" type="line"/>
      <point x="411" y="89" type="line"/>
      <point x="422" y="0" type="line"/>
    </contour>
    <contour>
      <point x="411" y="669" type="line"/>
      <point x="493" y="739" type="line"/>
      <point x="193" y="739" type="line"/>
      <point x="193" y="669" type="line"/>
    </contour>
    <contour>
      <point x="299" y="739" type="move" name="top"/>
    </contour>
    <contour>
      <point x="299" y="0" type="move" name="bottom"/>
    </contour>
  </outline>
</glyph>
<glyph name="uni018D" format="1">
  <advance width="579"/>
  <unicode hex="018D"/>
  <outline>
    <contour>
      <point x="112" y="-146"/>
      <point x="173" y="-213"/>
      <point x="291" y="-213" type="curve" smooth="yes"/>
      <point x="366" y="-213"/>
      <point x="418" y="-192"/>
      <point x="466" y="-159" type="curve"/>
      <point x="419" y="-102" type="line"/>
      <point x="378" y="-130"/>
      <point x="344" y="-141"/>
      <point x="299" y="-141" type="curve" smooth="yes"/>
      <point x="232" y="-141"/>
      <point x="207" y="-109"/>
      <point x="207" y="-76" type="curve" smooth="yes"/>
      <point x="207" y="-36"/>
      <point x="229" y="-16"/>
      <point x="328" y="26" type="curve" smooth="yes"/>
      <point x="455" y="80"/>
      <point x="522" y="145"/>
      <point x="522" y="284" type="curve" smooth="yes"/>
      <point x="522" y="420"/>
      <point x="437" y="539"/>
      <point x="289" y="539" type="curve" smooth="yes"/>
      <point x="150" y="539"/>
      <point x="57" y="445"/>
      <point x="57" y="287" type="curve" smooth="yes"/>
      <point x="57" y="163"/>
      <point x="130" y="89"/>
      <point x="228" y="47" type="curve"/>
      <point x="278" y="73" type="line"/>
      <point x="201" y="117"/>
      <point x="156" y="177"/>
      <point x="156" y="287" type="curve" smooth="yes"/>
      <point x="156" y="401"/>
      <point x="199" y="465"/>
      <point x="289" y="465" type="curve" smooth="yes"/>
      <point x="375" y="465"/>
      <point x="423" y="402"/>
      <point x="423" y="284" type="curve" smooth="yes"/>
      <point x="423" y="174"/>
      <point x="382" y="126"/>
      <point x="252" y="76" type="curve" smooth="yes"/>
      <point x="143" y="34"/>
      <point x="112" y="-15"/>
      <point x="112" y="-76" type="curve" smooth="yes"/>
    </contour>
  </outline>
</glyph>
<glyph name="uni018E" format="1">
  <advance width="535"/>
  <unicode hex="018E"/>
  <outline>
    <contour>
      <point x="60" y="613" type="line"/>
      <point x="340" y="613" type="line"/>
      <point x="340" y="388" type="line"/>
      <point x="108" y="388" type="line"/>
      <point x="108" y="312" type="line"/>
      <point x="340" y="312" type="line"/>
      <point x="340" y="76" type="line"/>
      <point x="54" y="76" type="line"/>
      <point x="54" y="0" type="line"/>
      <point x="435" y="0" type="line"/>
      <point x="435" y="689" type="line"/>
      <point x="60" y="689" type="line"/>
    </contour>
  </outline>
</glyph>
<glyph name="uni0190" format="1">
  <advance width="521"/>
  <unicode hex="0190"/>
  <outline>
    <contour>
      <point x="141" y="701"/>
      <point x="68" y="623"/>
      <point x="68" y="525" type="curve" smooth="yes"/>
      <point x="68" y="438"/>
      <point x="123" y="387"/>
      <point x="203" y="369" type="curve"/>
      <point x="119" y="360"/>
      <point x="45" y="305"/>
      <point x="45" y="198" type="curve" smooth="yes"/>
      <point x="45" y="72"/>
      <point x="149" y="-12"/>
      <point x="291" y="-12" type="curve" smooth="yes"/>
      <point x="376" y="-12"/>
      <point x="454" y="18"/>
      <point x="511" y="81" type="curve"/>
      <point x="455" y="135" type="line"/>
      <point x="415" y="93"/>
      <point x="364" y="68"/>
      <point x="296" y="68" type="curve" smooth="yes"/>
      <point x="201" y="68"/>
      <point x="147" y="118"/>
      <point x="147" y="199" type="curve" smooth="yes"/>
      <point x="147" y="279"/>
      <point x="198" y="325"/>
      <point x="299" y="325" type="curve" smooth="yes"/>
      <point x="351" y="325" type="line"/>
      <point x="364" y="403" type="line"/>
      <point x="298" y="403" type="line" smooth="yes"/>
      <point x="219" y="403"/>
      <point x="167" y="446"/>
      <point x="167" y="517" type="curve" smooth="yes"/>
      <point x="167" y="575"/>
      <point x="201" y="623"/>
      <point x="286" y="623" type="curve" smooth="yes"/>
      <point x="343" y="623"/>
      <point x="395" y="601"/>
      <point x="442" y="559" type="curve"/>
      <point x="494" y="616" type="line"/>
      <point x="434" y="672"/>
      <point x="363" y="701"/>
      <point x="279" y="701" type="curve" smooth="yes"/>
    </contour>
    <contour>
      <point x="261" y="689" type="move" name="top"/>
    </contour>
    <contour>
      <point x="261" y="0" type="move" name="bottom"/>
    </contour>
  </outline>
</glyph>
<glyph name="florin" format="1">
  <advance width="341"/>
  <unicode hex="0192"/>
  <outline>
    <contour>
      <point x="168" y="750"/>
      <point x="110" y="687"/>
      <point x="110" y="599" type="curve" smooth="yes"/>
      <point x="110" y="26" type="line"/>
      <point x="202" y="126" type="line"/>
      <point x="202" y="600" type="line" smooth="yes"/>
      <point x="202" y="651"/>
      <point x="222" y="676"/>
      <point x="280" y="676" type="curve" smooth="yes"/>
      <point x="307" y="676"/>
      <point x="338" y="671"/>
      <point x="372" y="656" type="curve"/>
      <point x="401" y="723" type="line"/>
      <point x="359" y="741"/>
      <point x="325" y="750"/>
      <point x="275" y="750" type="curve" smooth="yes"/>
    </contour>
    <contour>
      <point x="26" y="527" type="line"/>
      <point x="26" y="456" type="line"/>
      <point x="320" y="456" type="line"/>
      <point x="330" y="527" type="line"/>
    </contour>
    <contour>
      <point x="110" y="487" type="line"/>
      <point x="110" y="26" type="line" smooth="yes"/>
      <point x="110" y="-87"/>
      <point x="77" y="-113"/>
      <point x="8" y="-145" type="curve"/>
      <point x="35" y="-212" type="line"/>
      <point x="147" y="-162"/>
      <point x="202" y="-117"/>
      <point x="202" y="32" type="curve" smooth="yes"/>
      <point x="202" y="487" type="line"/>
    </contour>
  </outline>
</glyph>
<glyph name="uni0193" format="1">
  <advance width="589"/>
  <unicode hex="0193"/>
  <outline>
    <contour>
      <point x="434" y="-12"/>
      <point x="506" y="12"/>
      <point x="569" y="49" type="curve"/>
      <point x="569" y="382" type="line"/>
      <point x="342" y="382" type="line"/>
      <point x="353" y="305" type="line"/>
      <point x="475" y="305" type="line"/>
      <point x="475" y="98" type="line"/>
      <point x="436" y="75"/>
      <point x="390" y="66"/>
      <point x="344" y="66" type="curve" smooth="yes"/>
      <point x="223" y="66"/>
      <point x="156" y="147"/>
      <point x="156" y="345" type="curve" smooth="yes"/>
      <point x="156" y="548"/>
      <point x="255" y="623"/>
      <point x="354" y="623" type="curve" smooth="yes"/>
      <point x="414" y="623"/>
      <point x="462" y="605"/>
      <point x="512" y="573" type="curve"/>
      <point x="561" y="625" type="line"/>
      <point x="537" y="645"/>
      <point x="513" y="662"/>
      <point x="486" y="664" type="curve"/>
      <point x="446" y="690"/>
      <point x="404" y="701"/>
      <point x="342" y="701" type="curve" smooth="yes"/>
      <point x="198" y="701"/>
      <point x="55" y="577"/>
      <point x="55" y="345" type="curve" smooth="yes"/>
      <point x="55" y="107"/>
      <point x="166" y="-12"/>
      <point x="337" y="-12" type="curve" smooth="yes"/>
    </contour>
    <contour>
      <point x="561" y="625" type="line"/>
      <point x="561" y="684" type="line" smooth="yes"/>
      <point x="561" y="737"/>
      <point x="586" y="758"/>
      <point x="625" y="758" type="curve" smooth="yes"/>
      <point x="658" y="758"/>
      <point x="676" y="749"/>
      <point x="699" y="735" type="curve"/>
      <point x="735" y="794" type="line"/>
      <point x="710" y="813"/>
      <point x="673" y="832"/>
      <point x="620" y="832" type="curve" smooth="yes"/>
      <point x="524" y="832"/>
      <point x="469" y="776"/>
      <point x="469" y="676" type="curve" smooth="yes"/>
      <point x="469" y="665" type="line"/>
    </contour>
  </outline>
</glyph>
<glyph name="uni0194" format="1">
  <advance width="554"/>
  <unicode hex="0194"/>
  <outline>
    <contour>
      <point x="357" y="-213"/>
      <point x="398" y="-175"/>
      <point x="398" y="-111" type="curve" smooth="yes"/>
      <point x="398" y="-54"/>
      <point x="377" y="-9"/>
      <point x="335" y="69" type="curve"/>
      <point x="279" y="135" type="line"/>
      <point x="108" y="689" type="line"/>
      <point x="6" y="689" type="line"/>
      <point x="221" y="69" type="line"/>
      <point x="278" y="7" type="line"/>
      <point x="297" y="-38"/>
      <point x="310" y="-75"/>
      <point x="310" y="-104" type="curve" smooth="yes"/>
      <point x="310" y="-127"/>
      <point x="299" y="-140"/>
      <point x="278" y="-140" type="curve" smooth="yes"/>
      <point x="257" y="-140"/>
      <point x="246" y="-127"/>
      <point x="246" y="-104" type="curve" smooth="yes"/>
      <point x="246" y="-75"/>
      <point x="259" y="-38"/>
      <point x="278" y="7" type="curve"/>
      <point x="335" y="69" type="line"/>
      <point x="548" y="689" type="line"/>
      <point x="452" y="689" type="line"/>
      <point x="279" y="135" type="line"/>
      <point x="221" y="69" type="line"/>
      <point x="179" y="-15"/>
      <point x="158" y="-64"/>
      <point x="158" y="-112" type="curve" smooth="yes"/>
      <point x="158" y="-175"/>
      <point x="198" y="-213"/>
      <point x="278" y="-213" type="curve" smooth="yes"/>
    </contour>
  </outline>
</glyph>
<glyph name="uni0195" format="1">
  <advance width="885"/>
  <unicode hex="0195"/>
  <outline>
    <contour>
      <point x="695" y="-12"/>
      <point x="815" y="66"/>
      <point x="815" y="255" type="curve" smooth="yes"/>
      <point x="815" y="358"/>
      <point x="805" y="440"/>
      <point x="789" y="527" type="curve"/>
      <point x="696" y="527" type="line"/>
      <point x="715" y="428"/>
      <point x="722" y="338"/>
      <point x="722" y="263" type="curve" smooth="yes"/>
      <point x="722" y="106"/>
      <point x="646" y="62"/>
      <point x="587" y="62" type="curve" smooth="yes"/>
      <point x="529" y="62"/>
      <point x="496" y="97"/>
      <point x="496" y="171" type="curve" smooth="yes"/>
      <point x="496" y="347" type="line"/>
      <point x="404" y="347" type="line"/>
      <point x="404" y="163" type="line" smooth="yes"/>
      <point x="404" y="48"/>
      <point x="485" y="-12"/>
      <point x="583" y="-12" type="curve" smooth="yes"/>
    </contour>
    <contour>
      <point x="187" y="0" type="line"/>
      <point x="187" y="748" type="line"/>
      <point x="95" y="738" type="line"/>
      <point x="95" y="0" type="line"/>
    </contour>
    <contour>
      <point x="496" y="208" type="line"/>
      <point x="496" y="378" type="line" smooth="yes"/>
      <point x="496" y="477"/>
      <point x="439" y="539"/>
      <point x="343" y="539" type="curve" smooth="yes"/>
      <point x="267" y="539"/>
      <point x="209" y="495"/>
      <point x="171" y="430" type="curve"/>
      <point x="187" y="375" type="line"/>
      <point x="222" y="430"/>
      <point x="263" y="467"/>
      <point x="320" y="467" type="curve" smooth="yes"/>
      <point x="370" y="467"/>
      <point x="404" y="444"/>
      <point x="404" y="365" type="curve" smooth="yes"/>
      <point x="404" y="208" type="line"/>
    </contour>
  </outline>
</glyph>
<glyph name="uni0196" format="1">
  <advance width="366"/>
  <unicode hex="0196"/>
  <outline>
    <contour>
      <point x="90" y="689" type="line"/>
      <point x="90" y="201" type="line"/>
      <point x="185" y="201" type="line"/>
      <point x="185" y="689" type="line"/>
    </contour>
    <component base="hookHELPER.case" xOffset="386" yOffset="201" xScale="-1"/>
    <contour>
      <point x="138" y="689" type="move" name="top"/>
    </contour>
    <contour>
      <point x="203" y="0" type="move" name="bottom"/>
    </contour>
  </outline>
</glyph>
<glyph name="uni0198" format="1">
  <advance width="617"/>
  <unicode hex="0198"/>
  <outline>
    <contour>
      <point x="100" y="689" type="line"/>
      <point x="100" y="0" type="line"/>
      <point x="195" y="0" type="line"/>
      <point x="195" y="689" type="line"/>
    </contour>
    <contour>
      <point x="472" y="616"/>
      <point x="492" y="624"/>
      <point x="523" y="624" type="curve" smooth="yes"/>
      <point x="552" y="624"/>
      <point x="568" y="615"/>
      <point x="583" y="605" type="curve"/>
      <point x="617" y="666" type="line"/>
      <point x="593" y="685"/>
      <point x="564" y="701"/>
      <point x="517" y="701" type="curve" smooth="yes"/>
      <point x="450" y="701"/>
      <point x="413" y="673"/>
      <point x="369" y="610" type="curve" smooth="yes"/>
      <point x="200" y="368" type="line"/>
      <point x="472" y="0" type="line"/>
      <point x="589" y="0" type="line"/>
      <point x="308" y="374" type="line"/>
      <point x="438" y="566" type="line" smooth="yes"/>
    </contour>
  </outline>
</glyph>
<glyph name="uni0199" format="1">
  <advance width="512"/>
  <unicode hex="0199"/>
  <outline>
    <contour>
      <point x="387" y="527" type="line"/>
      <point x="193" y="288" type="line"/>
      <point x="402" y="0" type="line"/>
      <point x="512" y="0" type="line"/>
      <point x="296" y="294" type="line"/>
      <point x="490" y="527" type="line"/>
    </contour>
    <contour>
      <point x="95" y="527" type="line"/>
      <point x="95" y="0" type="line"/>
      <point x="187" y="0" type="line"/>
      <point x="187" y="538" type="line"/>
    </contour>
    <component base="hookaboveHELPER" xOffset="65"/>
  </outline>
</glyph>
<glyph name="uni019B" format="1">
  <advance width="490"/>
  <unicode hex="019B"/>
  <outline>
    <contour>
      <point x="248" y="433" type="line"/>
      <point x="303" y="171"/>
      <point x="348" y="84"/>
      <point x="419" y="-12" type="curve"/>
      <point x="505" y="22" type="line"/>
      <point x="433" y="108"/>
      <point x="394" y="190"/>
      <point x="328" y="473" type="curve" smooth="yes"/>
      <point x="283" y="662"/>
      <point x="232" y="724"/>
      <point x="82" y="752" type="curve"/>
      <point x="68" y="681" type="line"/>
      <point x="173" y="662"/>
      <point x="207" y="619"/>
      <point x="233" y="497" type="curve"/>
      <point x="185" y="497" type="line"/>
      <point x="20" y="10" type="line"/>
      <point x="109" y="-12" type="line"/>
    </contour>
    <contour>
      <point x="219" y="620" type="line"/>
      <point x="253" y="655" type="line"/>
      <point x="325" y="729" type="line"/>
      <point x="271" y="776" type="line"/>
      <point x="190" y="690" type="line"/>
      <point x="157" y="657" type="line"/>
      <point x="71" y="569" type="line"/>
      <point x="134" y="537" type="line"/>
    </contour>
  </outline>
</glyph>
<glyph name="uni019C" format="1">
  <advance width="933"/>
  <unicode hex="019C"/>
  <outline>
    <contour>
      <point x="653" y="-12"/>
      <point x="708" y="22"/>
      <point x="754" y="95" type="curve"/>
      <point x="738" y="159" type="line"/>
      <point x="693" y="93"/>
      <point x="658" y="66"/>
      <point x="599" y="66" type="curve" smooth="yes"/>
      <point x="541" y="66"/>
      <point x="509" y="112"/>
      <point x="509" y="191" type="curve" smooth="yes"/>
      <point x="509" y="689" type="line"/>
      <point x="414" y="689" type="line"/>
      <point x="414" y="189" type="line" smooth="yes"/>
      <point x="414" y="72"/>
      <point x="474" y="-12"/>
      <point x="582" y="-12" type="curve" smooth="yes"/>
    </contour>
    <contour>
      <point x="833" y="0" type="line"/>
      <point x="833" y="689" type="line"/>
      <point x="738" y="689" type="line"/>
      <point x="738" y="129" type="line"/>
      <point x="751" y="0" type="line"/>
    </contour>
    <contour>
      <point x="329" y="-12"/>
      <point x="384" y="22"/>
      <point x="439" y="96" type="curve"/>
      <point x="417" y="161" type="line"/>
      <point x="369" y="93"/>
      <point x="334" y="66"/>
      <point x="275" y="66" type="curve" smooth="yes"/>
      <point x="217" y="66"/>
      <point x="185" y="112"/>
      <point x="185" y="191" type="curve" smooth="yes"/>
      <point x="185" y="689" type="line"/>
      <point x="90" y="689" type="line"/>
      <point x="90" y="189" type="line" smooth="yes"/>
      <point x="90" y="72"/>
      <point x="150" y="-12"/>
      <point x="258" y="-12" type="curve" smooth="yes"/>
    </contour>
    <contour>
      <point x="467" y="689" type="move" name="top"/>
    </contour>
    <contour>
      <point x="467" y="0" type="move" name="bottom"/>
    </contour>
  </outline>
</glyph>
<glyph name="uni019D" format="1">
  <advance width="683"/>
  <unicode hex="019D"/>
  <outline>
    <contour>
      <point x="130" y="-213"/>
      <point x="189" y="-161"/>
      <point x="189" y="-59" type="curve" smooth="yes"/>
      <point x="189" y="1" type="line"/>
      <point x="100" y="1" type="line"/>
      <point x="100" y="-65" type="line" smooth="yes"/>
      <point x="100" y="-118"/>
      <point x="75" y="-139"/>
      <point x="36" y="-139" type="curve" smooth="yes"/>
      <point x="3" y="-139"/>
      <point x="-15" y="-130"/>
      <point x="-38" y="-116" type="curve"/>
      <point x="-74" y="-175" type="line"/>
      <point x="-49" y="-194"/>
      <point x="-12" y="-213"/>
      <point x="41" y="-213" type="curve" smooth="yes"/>
    </contour>
    <component base="N"/>
  </outline>
</glyph>
<glyph name="uni019E" format="1">
  <advance width="586"/>
  <unicode hex="019E"/>
  <outline>
    <contour>
      <point x="404" y="1" type="line"/>
      <point x="404" y="-202" type="line"/>
      <point x="496" y="-213" type="line"/>
      <point x="496" y="1" type="line"/>
    </contour>
    <component base="n"/>
  </outline>
</glyph>
<glyph name="uni01A2" format="1">
  <advance width="926"/>
  <unicode hex="01A2"/>
  <outline>
    <contour>
      <point x="602" y="703"/>
      <point x="557" y="684"/>
      <point x="505" y="647" type="curve"/>
      <point x="556" y="601" type="line"/>
      <point x="591" y="620"/>
      <point x="619" y="629"/>
      <point x="656" y="629" type="curve" smooth="yes"/>
      <point x="704" y="629"/>
      <point x="731" y="603"/>
      <point x="731" y="546" type="curve" smooth="yes"/>
      <point x="731" y="-202" type="line"/>
      <point x="826" y="-202" type="line"/>
      <point x="826" y="543" type="line" smooth="yes"/>
      <point x="826" y="646"/>
      <point x="771" y="703"/>
      <point x="663" y="703" type="curve" smooth="yes"/>
    </contour>
    <contour>
      <point x="174" y="701"/>
      <point x="55" y="570"/>
      <point x="55" y="343" type="curve" smooth="yes"/>
      <point x="55" y="112"/>
      <point x="174" y="-12"/>
      <point x="346" y="-12" type="curve" smooth="yes"/>
      <point x="519" y="-12"/>
      <point x="637" y="116"/>
      <point x="637" y="344" type="curve" smooth="yes"/>
      <point x="637" y="576"/>
      <point x="514" y="701"/>
      <point x="346" y="701" type="curve" smooth="yes"/>
    </contour>
    <contour>
      <point x="464" y="623"/>
      <point x="536" y="542"/>
      <point x="536" y="344" type="curve" smooth="yes"/>
      <point x="536" y="144"/>
      <point x="462" y="66"/>
      <point x="346" y="66" type="curve" smooth="yes"/>
      <point x="234" y="66"/>
      <point x="156" y="144"/>
      <point x="156" y="343" type="curve" smooth="yes"/>
      <point x="156" y="542"/>
      <point x="231" y="623"/>
      <point x="346" y="623" type="curve" smooth="yes"/>
    </contour>
  </outline>
</glyph>
<glyph name="uni01A3" format="1">
  <advance width="792"/>
  <unicode hex="01A3"/>
  <outline>
    <contour>
      <point x="697" y="-213" type="line"/>
      <point x="697" y="379" type="line" smooth="yes"/>
      <point x="697" y="482"/>
      <point x="644" y="539"/>
      <point x="542" y="539" type="curve" smooth="yes"/>
      <point x="484" y="539"/>
      <point x="437" y="520"/>
      <point x="387" y="485" type="curve"/>
      <point x="438" y="439" type="line"/>
      <point x="471" y="456"/>
      <point x="499" y="465"/>
      <point x="533" y="465" type="curve" smooth="yes"/>
      <point x="578" y="465"/>
      <point x="605" y="439"/>
      <point x="605" y="382" type="curve" smooth="yes"/>
      <point x="605" y="-202" type="line"/>
    </contour>
    <contour>
      <point x="143" y="539"/>
      <point x="57" y="426"/>
      <point x="57" y="263" type="curve" smooth="yes"/>
      <point x="57" y="96"/>
      <point x="142" y="-12"/>
      <point x="292" y="-12" type="curve" smooth="yes"/>
      <point x="441" y="-12"/>
      <point x="527" y="101"/>
      <point x="527" y="264" type="curve" smooth="yes"/>
      <point x="527" y="431"/>
      <point x="436" y="539"/>
      <point x="293" y="539" type="curve" smooth="yes"/>
    </contour>
    <contour>
      <point x="380" y="465"/>
      <point x="428" y="401"/>
      <point x="428" y="264" type="curve" smooth="yes"/>
      <point x="428" y="126"/>
      <point x="380" y="62"/>
      <point x="292" y="62" type="curve" smooth="yes"/>
      <point x="204" y="62"/>
      <point x="156" y="126"/>
      <point x="156" y="263" type="curve" smooth="yes"/>
      <point x="156" y="401"/>
      <point x="205" y="465"/>
      <point x="293" y="465" type="curve" smooth="yes"/>
    </contour>
  </outline>
</glyph>
<glyph name="uni01A5" format="1">
  <advance width="594"/>
  <unicode hex="01A5"/>
  <outline>
    <contour>
      <point x="271" y="539"/>
      <point x="210" y="504"/>
      <point x="171" y="433" type="curve"/>
      <point x="179" y="371" type="line"/>
      <point x="206" y="417"/>
      <point x="252" y="466"/>
      <point x="314" y="466" type="curve" smooth="yes"/>
      <point x="393" y="466"/>
      <point x="433" y="401"/>
      <point x="433" y="264" type="curve" smooth="yes"/>
      <point x="433" y="126"/>
      <point x="387" y="63"/>
      <point x="303" y="63" type="curve" smooth="yes"/>
      <point x="249" y="63"/>
      <point x="205" y="92"/>
      <point x="178" y="142" type="curve"/>
      <point x="177" y="61" type="line"/>
      <point x="211" y="11"/>
      <point x="262" y="-12"/>
      <point x="325" y="-12" type="curve" smooth="yes"/>
      <point x="461" y="-12"/>
      <point x="532" y="104"/>
      <point x="532" y="264" type="curve" smooth="yes"/>
      <point x="532" y="430"/>
      <point x="477" y="539"/>
      <point x="337" y="539" type="curve" smooth="yes"/>
    </contour>
    <contour>
      <point x="95" y="527" type="line"/>
      <point x="95" y="-213" type="line"/>
      <point x="187" y="-202" type="line"/>
      <point x="187" y="400" type="line"/>
      <point x="187" y="527" type="line"/>
    </contour>
    <component base="hookaboveHELPER" xOffset="65"/>
    <contour>
      <point x="297" y="739" type="move" name="top"/>
    </contour>
    <contour>
      <point x="297" y="-202" type="move" name="bottom"/>
    </contour>
  </outline>
</glyph>
<glyph name="yr" format="1">
  <advance width="605"/>
  <unicode hex="01A6"/>
  <outline>
    <contour>
      <point x="100" y="689" type="line"/>
      <point x="100" y="0" type="line"/>
      <point x="195" y="0" type="line"/>
      <point x="195" y="689" type="line"/>
    </contour>
    <contour>
      <point x="294" y="184" type="line"/>
      <point x="467" y="-122" type="line"/>
      <point x="580" y="-122" type="line"/>
      <point x="389" y="195" type="line"/>
    </contour>
    <contour>
      <point x="179" y="493" type="line"/>
      <point x="280" y="493" type="line" smooth="yes"/>
      <point x="393" y="493"/>
      <point x="442" y="458"/>
      <point x="442" y="372" type="curve" smooth="yes"/>
      <point x="442" y="279"/>
      <point x="387" y="243"/>
      <point x="291" y="243" type="curve" smooth="yes"/>
      <point x="179" y="243" type="line"/>
      <point x="179" y="170" type="line"/>
      <point x="309" y="170" type="line"/>
      <point x="464" y="190"/>
      <point x="543" y="250"/>
      <point x="543" y="372" type="curve" smooth="yes"/>
      <point x="543" y="501"/>
      <point x="453" y="567"/>
      <point x="281" y="567" type="curve" smooth="yes"/>
      <point x="179" y="567" type="line"/>
    </contour>
  </outline>
</glyph>
<glyph name="uni01A7" format="1">
  <advance width="537"/>
  <unicode hex="01A7"/>
  <outline>
    <contour>
      <point x="189" y="701"/>
      <point x="124" y="673"/>
      <point x="62" y="621" type="curve"/>
      <point x="114" y="564" type="line"/>
      <point x="166" y="605"/>
      <point x="214" y="623"/>
      <point x="276" y="623" type="curve" smooth="yes"/>
      <point x="343" y="623"/>
      <point x="393" y="596"/>
      <point x="393" y="528" type="curve" smooth="yes"/>
      <point x="393" y="465"/>
      <point x="366" y="434"/>
      <point x="244" y="396" type="curve" smooth="yes"/>
      <point x="134" y="362"/>
      <point x="40" y="314"/>
      <point x="40" y="185" type="curve" smooth="yes"/>
      <point x="40" y="72"/>
      <point x="132" y="-12"/>
      <point x="276" y="-12" type="curve" smooth="yes"/>
      <point x="376" y="-12"/>
      <point x="454" y="21"/>
      <point x="512" y="77" type="curve"/>
      <point x="460" y="134" type="line"/>
      <point x="410" y="93"/>
      <point x="351" y="66"/>
      <point x="279" y="66" type="curve" smooth="yes"/>
      <point x="203" y="66"/>
      <point x="139" y="106"/>
      <point x="139" y="185" type="curve" smooth="yes"/>
      <point x="139" y="251"/>
      <point x="171" y="291"/>
      <point x="288" y="327" type="curve" smooth="yes"/>
      <point x="420" y="368"/>
      <point x="492" y="419"/>
      <point x="492" y="528" type="curve" smooth="yes"/>
      <point x="492" y="633"/>
      <point x="406" y="701"/>
      <point x="280" y="701" type="curve" smooth="yes"/>
    </contour>
  </outline>
</glyph>
<glyph name="uni01A8" format="1">
  <advance width="457"/>
  <unicode hex="01A8"/>
  <outline>
    <contour>
      <point x="163" y="539"/>
      <point x="103" y="517"/>
      <point x="50" y="479" type="curve"/>
      <point x="88" y="422" type="line"/>
      <point x="136" y="451"/>
      <point x="177" y="466"/>
      <point x="230" y="466" type="curve" smooth="yes"/>
      <point x="290" y="466"/>
      <point x="322" y="439"/>
      <point x="322" y="400" type="curve" smooth="yes"/>
      <point x="322" y="354"/>
      <point x="298" y="330"/>
      <point x="210" y="308" type="curve" smooth="yes"/>
      <point x="99" y="280"/>
      <point x="35" y="240"/>
      <point x="35" y="146" type="curve" smooth="yes"/>
      <point x="35" y="38"/>
      <point x="136" y="-12"/>
      <point x="233" y="-12" type="curve" smooth="yes"/>
      <point x="322" y="-12"/>
      <point x="386" y="17"/>
      <point x="432" y="57" type="curve"/>
      <point x="385" y="112" type="line"/>
      <point x="341" y="81"/>
      <point x="292" y="62"/>
      <point x="235" y="62" type="curve" smooth="yes"/>
      <point x="176" y="62"/>
      <point x="134" y="92"/>
      <point x="134" y="143" type="curve" smooth="yes"/>
      <point x="134" y="194"/>
      <point x="158" y="218"/>
      <point x="260" y="245" type="curve" smooth="yes"/>
      <point x="372" y="275"/>
      <point x="419" y="317"/>
      <point x="419" y="397" type="curve" smooth="yes"/>
      <point x="419" y="478"/>
      <point x="350" y="539"/>
      <point x="237" y="539" type="curve" smooth="yes"/>
    </contour>
  </outline>
</glyph>
<glyph name="uni01AA" format="1">
  <advance width="317"/>
  <unicode hex="01AA"/>
  <outline>
    <contour>
      <point x="-5" y="750"/>
      <point x="-65" y="697"/>
      <point x="-65" y="612" type="curve" smooth="yes"/>
      <point x="-65" y="528"/>
      <point x="-5" y="476"/>
      <point x="68" y="476" type="curve" smooth="yes"/>
      <point x="113" y="476"/>
      <point x="144" y="495"/>
      <point x="172" y="514" type="curve"/>
      <point x="139" y="561" type="line"/>
      <point x="117" y="552"/>
      <point x="98" y="548"/>
      <point x="81" y="548" type="curve" smooth="yes"/>
      <point x="45" y="548"/>
      <point x="27" y="569"/>
      <point x="27" y="614" type="curve" smooth="yes"/>
      <point x="27" y="653"/>
      <point x="42" y="678"/>
      <point x="74" y="678" type="curve" smooth="yes"/>
      <point x="103" y="678"/>
      <point x="121" y="657"/>
      <point x="121" y="612" type="curve" smooth="yes"/>
      <point x="121" y="0" type="line"/>
      <point x="213" y="0" type="line"/>
      <point x="213" y="604" type="line" smooth="yes"/>
      <point x="213" y="698"/>
      <point x="154" y="750"/>
      <point x="72" y="750" type="curve" smooth="yes"/>
    </contour>
    <component base="hookHELPER" xOffset="417" xScale="-1"/>
    <contour>
      <point x="159" y="739" type="move" name="top"/>
    </contour>
    <contour>
      <point x="159" y="-202" type="move" name="bottom"/>
    </contour>
  </outline>
</glyph>
<glyph name="uni01AB" format="1">
  <advance width="361"/>
  <unicode hex="01AB"/>
  <outline>
    <contour>
      <point x="302" y="-213"/>
      <point x="361" y="-161"/>
      <point x="361" y="-57" type="curve" smooth="yes"/>
      <point x="361" y="24" type="line"/>
      <point x="272" y="37" type="line"/>
      <point x="272" y="-65" type="line" smooth="yes"/>
      <point x="272" y="-118"/>
      <point x="247" y="-139"/>
      <point x="205" y="-139" type="curve" smooth="yes"/>
      <point x="172" y="-139"/>
      <point x="154" y="-130"/>
      <point x="131" y="-116" type="curve"/>
      <point x="95" y="-175" type="line"/>
      <point x="120" y="-194"/>
      <point x="157" y="-213"/>
      <point x="210" y="-213" type="curve" smooth="yes"/>
    </contour>
    <contour>
      <point x="101" y="646" type="line"/>
      <point x="101" y="138" type="line" smooth="yes"/>
      <point x="101" y="40"/>
      <point x="156" y="-12"/>
      <point x="233" y="-12" type="curve" smooth="yes"/>
      <point x="258" y="-12"/>
      <point x="273" y="-6"/>
      <point x="287" y="2" type="curve"/>
      <point x="314" y="-2"/>
      <point x="338" y="8"/>
      <point x="361" y="24" type="curve"/>
      <point x="333" y="74" type="line"/>
      <point x="300" y="63"/>
      <point x="279" y="60"/>
      <point x="256" y="60" type="curve" smooth="yes"/>
      <point x="210" y="60"/>
      <point x="193" y="85"/>
      <point x="193" y="138" type="curve" smooth="yes"/>
      <point x="193" y="657" type="line"/>
    </contour>
    <contour>
      <point x="9" y="527" type="line"/>
      <point x="9" y="456" type="line"/>
      <point x="308" y="456" type="line"/>
      <point x="318" y="527" type="line"/>
    </contour>
  </outline>
</glyph>
<glyph name="uni01AC" format="1">
  <advance width="555"/>
  <unicode hex="01AC"/>
  <outline>
    <contour>
      <point x="183" y="689" type="line"/>
      <point x="183" y="608" type="line"/>
      <point x="249" y="608" type="line"/>
      <point x="249" y="0" type="line"/>
      <point x="344" y="0" type="line"/>
      <point x="344" y="608" type="line"/>
      <point x="535" y="608" type="line"/>
      <point x="545" y="689" type="line"/>
    </contour>
    <contour>
      <point x="10" y="523"/>
      <point x="29" y="487"/>
      <point x="48" y="458" type="curve"/>
      <point x="119" y="494" type="line"/>
      <point x="108" y="517"/>
      <point x="99" y="536"/>
      <point x="99" y="562" type="curve" smooth="yes"/>
      <point x="99" y="589"/>
      <point x="116" y="608"/>
      <point x="153" y="608" type="curve" smooth="yes"/>
      <point x="184" y="608" type="line"/>
      <point x="184" y="689" type="line"/>
      <point x="159" y="689" type="line" smooth="yes"/>
      <point x="62" y="689"/>
      <point x="10" y="638"/>
      <point x="10" y="565" type="curve" smooth="yes"/>
    </contour>
  </outline>
</glyph>
<glyph name="uni01AD" format="1">
  <advance width="361"/>
  <unicode hex="01AD"/>
  <outline>
    <contour>
      <point x="288" y="-12"/>
      <point x="326" y="0"/>
      <point x="361" y="24" type="curve"/>
      <point x="326" y="87" type="line"/>
      <point x="300" y="71"/>
      <point x="279" y="64"/>
      <point x="256" y="64" type="curve" smooth="yes"/>
      <point x="210" y="64"/>
      <point x="193" y="89"/>
      <point x="193" y="142" type="curve" smooth="yes"/>
      <point x="193" y="557" type="line"/>
      <point x="101" y="546" type="line"/>
      <point x="101" y="138" type="line" smooth="yes"/>
      <point x="101" y="40"/>
      <point x="154" y="-12"/>
      <point x="243" y="-12" type="curve" smooth="yes"/>
    </contour>
    <contour>
      <point x="308" y="456" type="line"/>
      <point x="318" y="527" type="line"/>
      <point x="9" y="527" type="line"/>
      <point x="9" y="456" type="line"/>
    </contour>
    <contour>
      <point x="193" y="526" type="line"/>
      <point x="193" y="602" type="line" smooth="yes"/>
      <point x="193" y="655"/>
      <point x="218" y="676"/>
      <point x="254" y="676" type="curve" smooth="yes"/>
      <point x="284" y="676"/>
      <point x="302" y="667"/>
      <point x="325" y="653" type="curve"/>
      <point x="361" y="712" type="line"/>
      <point x="336" y="731"/>
      <point x="299" y="750"/>
      <point x="249" y="750" type="curve" smooth="yes"/>
      <point x="160" y="750"/>
      <point x="101" y="698"/>
      <point x="101" y="594" type="curve" smooth="yes"/>
      <point x="101" y="526" type="line"/>
    </contour>
  </outline>
</glyph>
<glyph name="uni01B1" format="1">
  <advance width="692"/>
  <unicode hex="01B1"/>
  <outline>
    <contour>
      <point x="518" y="-12"/>
      <point x="637" y="119"/>
      <point x="637" y="316" type="curve" smooth="yes"/>
      <point x="637" y="481"/>
      <point x="577" y="560"/>
      <point x="509" y="611" type="curve"/>
      <point x="616" y="611" type="line"/>
      <point x="616" y="689" type="line"/>
      <point x="414" y="689" type="line"/>
      <point x="414" y="611" type="line"/>
      <point x="487" y="547"/>
      <point x="536" y="467"/>
      <point x="536" y="316" type="curve" smooth="yes"/>
      <point x="536" y="147"/>
      <point x="461" y="66"/>
      <point x="346" y="66" type="curve" smooth="yes"/>
      <point x="228" y="66"/>
      <point x="156" y="147"/>
      <point x="156" y="315" type="curve" smooth="yes"/>
      <point x="156" y="467"/>
      <point x="198" y="546"/>
      <point x="279" y="611" type="curve"/>
      <point x="279" y="689" type="line"/>
      <point x="77" y="689" type="line"/>
      <point x="77" y="611" type="line"/>
      <point x="184" y="611" type="line"/>
      <point x="116" y="552"/>
      <point x="55" y="475"/>
      <point x="55" y="315" type="curve" smooth="yes"/>
      <point x="55" y="113"/>
      <point x="169" y="-12"/>
      <point x="346" y="-12" type="curve" smooth="yes"/>
    </contour>
  </outline>
</glyph>
<glyph name="uni01B2" format="1">
  <advance width="647"/>
  <unicode hex="01B2"/>
  <outline>
    <contour>
      <point x="476" y="573" type="line"/>
      <point x="476" y="308" type="line" smooth="yes"/>
      <point x="476" y="150"/>
      <point x="418" y="68"/>
      <point x="312" y="68" type="curve" smooth="yes"/>
      <point x="230" y="68"/>
      <point x="185" y="121"/>
      <point x="185" y="216" type="curve" smooth="yes"/>
      <point x="185" y="689" type="line"/>
      <point x="90" y="689" type="line"/>
      <point x="90" y="211" type="line" smooth="yes"/>
      <point x="90" y="84"/>
      <point x="173" y="-12"/>
      <point x="312" y="-12" type="curve" smooth="yes"/>
      <point x="470" y="-12"/>
      <point x="572" y="110"/>
      <point x="572" y="301" type="curve" smooth="yes"/>
      <point x="572" y="574" type="line"/>
    </contour>
    <contour>
      <point x="572" y="574" type="line"/>
      <point x="572" y="660"/>
      <point x="529" y="701"/>
      <point x="453" y="701" type="curve" smooth="yes"/>
      <point x="423" y="701"/>
      <point x="397" y="694"/>
      <point x="377" y="683" type="curve"/>
      <point x="401" y="618" type="line"/>
      <point x="411" y="622"/>
      <point x="422" y="624"/>
      <point x="438" y="624" type="curve" smooth="yes"/>
      <point x="467" y="624"/>
      <point x="476" y="610"/>
      <point x="476" y="573" type="curve"/>
    </contour>
    <contour>
      <point x="324" y="689" type="move" name="top"/>
    </contour>
    <contour>
      <point x="324" y="0" type="move" name="bottom"/>
    </contour>
  </outline>
</glyph>
<glyph name="uni01B3" format="1">
  <advance width="586"/>
  <unicode hex="01B3"/>
  <outline>
    <contour>
      <point x="323" y="0" type="line"/>
      <point x="323" y="265" type="line"/>
      <point x="467" y="561" type="line" smooth="yes"/>
      <point x="493" y="614"/>
      <point x="511" y="629"/>
      <point x="542" y="629" type="curve" smooth="yes"/>
      <point x="569" y="629"/>
      <point x="589" y="619"/>
      <point x="605" y="607" type="curve"/>
      <point x="641" y="661" type="line"/>
      <point x="612" y="684"/>
      <point x="580" y="701"/>
      <point x="536" y="701" type="curve" smooth="yes"/>
      <point x="465" y="701"/>
      <point x="425" y="668"/>
      <point x="388" y="587" type="curve" smooth="yes"/>
      <point x="278" y="348" type="line"/>
      <point x="110" y="689" type="line"/>
      <point x="5" y="689" type="line"/>
      <point x="227" y="264" type="line"/>
      <point x="227" y="0" type="line"/>
    </contour>
    <contour>
      <point x="5" y="689" type="move" name="topleft"/>
    </contour>
  </outline>
</glyph>
<glyph name="uni01B4" format="1">
  <advance width="496"/>
  <unicode hex="01B4"/>
  <outline>
    <contour>
      <point x="207" y="-197"/>
      <point x="275" y="-116"/>
      <point x="310" y="6" type="curve" smooth="yes"/>
      <point x="440" y="456" type="line" smooth="yes"/>
      <point x="450" y="490"/>
      <point x="460" y="500"/>
      <point x="483" y="500" type="curve" smooth="yes"/>
      <point x="496" y="500"/>
      <point x="507" y="498"/>
      <point x="517" y="494" type="curve"/>
      <point x="541" y="556" type="line"/>
      <point x="521" y="567"/>
      <point x="498" y="574"/>
      <point x="471" y="574" type="curve" smooth="yes"/>
      <point x="406" y="574"/>
      <point x="375" y="543"/>
      <point x="354" y="464" type="curve" smooth="yes"/>
      <point x="249" y="67" type="line"/>
      <point x="108" y="527" type="line"/>
      <point x="10" y="527" type="line"/>
      <point x="187" y="0" type="line"/>
      <point x="218" y="0" type="line"/>
      <point x="188" y="-82"/>
      <point x="158" y="-123"/>
      <point x="51" y="-141" type="curve"/>
      <point x="61" y="-213" type="line"/>
    </contour>
  </outline>
</glyph>
<glyph name="uni01B5" format="1">
  <advance width="522"/>
  <unicode hex="01B5"/>
  <outline>
    <contour>
      <point x="66" y="689" type="line"/>
      <point x="66" y="609" type="line"/>
      <point x="378" y="609" type="line"/>
      <point x="30" y="76" type="line"/>
      <point x="30" y="0" type="line"/>
      <point x="466" y="0" type="line"/>
      <point x="477" y="81" type="line"/>
      <point x="132" y="81" type="line"/>
      <point x="477" y="612" type="line"/>
      <point x="477" y="689" type="line"/>
    </contour>
    <component base="hyphen" xOffset="22" yOffset="50" xScale="1.2" yScale="0.95"/>
  </outline>
</glyph>
<glyph name="uni01B6" format="1">
  <advance width="437"/>
  <unicode hex="01B6"/>
  <outline>
    <contour>
      <point x="48" y="527" type="line"/>
      <point x="48" y="449" type="line"/>
      <point x="302" y="449" type="line"/>
      <point x="25" y="69" type="line"/>
      <point x="25" y="0" type="line"/>
      <point x="396" y="0" type="line"/>
      <point x="407" y="77" type="line"/>
      <point x="126" y="77" type="line"/>
      <point x="404" y="457" type="line"/>
      <point x="404" y="527" type="line"/>
    </contour>
    <component base="hyphen" xOffset="-5" yOffset="-18" xScale="1.1" yScale="0.9"/>
  </outline>
</glyph>
<glyph name="uni01B7" format="1">
  <advance width="516"/>
  <unicode hex="01B7"/>
  <outline>
    <contour>
      <point x="378" y="-12"/>
      <point x="471" y="75"/>
      <point x="471" y="198" type="curve" smooth="yes"/>
      <point x="471" y="322"/>
      <point x="394" y="397"/>
      <point x="235" y="397" type="curve"/>
      <point x="207" y="397" type="line"/>
      <point x="127" y="328" type="line"/>
      <point x="215" y="328" type="line" smooth="yes"/>
      <point x="322" y="328"/>
      <point x="372" y="292"/>
      <point x="372" y="200" type="curve" smooth="yes"/>
      <point x="372" y="117"/>
      <point x="321" y="66"/>
      <point x="223" y="66" type="curve" smooth="yes"/>
      <point x="154" y="66"/>
      <point x="108" y="86"/>
      <point x="65" y="132" type="curve"/>
      <point x="10" y="78" type="line"/>
      <point x="62" y="17"/>
      <point x="129" y="-12"/>
      <point x="226" y="-12" type="curve" smooth="yes"/>
    </contour>
    <contour>
      <point x="127" y="328" type="line"/>
      <point x="197" y="360" type="line"/>
      <point x="447" y="612" type="line"/>
      <point x="447" y="689" type="line"/>
      <point x="41" y="689" type="line"/>
      <point x="41" y="611" type="line"/>
      <point x="335" y="611" type="line"/>
      <point x="127" y="395" type="line"/>
    </contour>
    <contour>
      <point x="244" y="689" type="move" name="top"/>
    </contour>
    <contour>
      <point x="258" y="0" type="move" name="bottom"/>
    </contour>
  </outline>
</glyph>
<glyph name="uni01B8" format="1">
  <advance width="516"/>
  <unicode hex="01B8"/>
  <outline>
    <contour>
      <point x="387" y="-12"/>
      <point x="454" y="17"/>
      <point x="506" y="78" type="curve"/>
      <point x="451" y="132" type="line"/>
      <point x="408" y="86"/>
      <point x="362" y="66"/>
      <point x="286" y="66" type="curve" smooth="yes"/>
      <point x="195" y="66"/>
      <point x="144" y="117"/>
      <point x="144" y="193" type="curve" smooth="yes"/>
      <point x="144" y="282"/>
      <point x="194" y="328"/>
      <point x="301" y="328" type="curve" smooth="yes"/>
      <point x="389" y="328" type="line"/>
      <point x="309" y="397" type="line"/>
      <point x="281" y="397" type="line"/>
      <point x="126" y="397"/>
      <point x="45" y="312"/>
      <point x="45" y="191" type="curve" smooth="yes"/>
      <point x="45" y="72"/>
      <point x="140" y="-12"/>
      <point x="283" y="-12" type="curve" smooth="yes"/>
    </contour>
    <contour>
      <point x="181" y="611" type="line"/>
      <point x="475" y="611" type="line"/>
      <point x="475" y="689" type="line"/>
      <point x="69" y="689" type="line"/>
      <point x="69" y="612" type="line"/>
      <point x="319" y="360" type="line"/>
      <point x="389" y="328" type="line"/>
      <point x="389" y="395" type="line"/>
    </contour>
  </outline>
</glyph>
<glyph name="uni01B9" format="1">
  <advance width="481"/>
  <unicode hex="01B9"/>
  <outline>
    <contour>
      <point x="362" y="-213"/>
      <point x="427" y="-182"/>
      <point x="481" y="-123" type="curve"/>
      <point x="429" y="-74" type="line"/>
      <point x="381" y="-118"/>
      <point x="336" y="-138"/>
      <point x="269" y="-138" type="curve" smooth="yes"/>
      <point x="179" y="-138"/>
      <point x="129" y="-87"/>
      <point x="129" y="-4" type="curve" smooth="yes"/>
      <point x="129" y="92"/>
      <point x="174" y="138"/>
      <point x="285" y="138" type="curve" smooth="yes"/>
      <point x="364" y="138" type="line"/>
      <point x="289" y="206" type="line"/>
      <point x="265" y="206" type="line"/>
      <point x="117" y="206"/>
      <point x="30" y="127"/>
      <point x="30" y="-6" type="curve" smooth="yes"/>
      <point x="30" y="-126"/>
      <point x="126" y="-213"/>
      <point x="267" y="-213" type="curve" smooth="yes"/>
    </contour>
    <contour>
      <point x="161" y="451" type="line"/>
      <point x="450" y="451" type="line"/>
      <point x="450" y="527" type="line"/>
      <point x="54" y="527" type="line"/>
      <point x="54" y="457" type="line"/>
      <point x="299" y="169" type="line"/>
      <point x="364" y="138" type="line"/>
      <point x="364" y="205" type="line"/>
    </contour>
    <contour>
      <point x="241" y="527" type="move" name="top"/>
    </contour>
    <contour>
      <point x="241" y="-202" type="move" name="bottom"/>
    </contour>
  </outline>
</glyph>
<glyph name="uni01BA" format="1">
  <advance width="470"/>
  <unicode hex="01BA"/>
  <outline>
    <contour>
      <point x="195" y="-155" type="line"/>
      <point x="148" y="-131"/>
      <point x="122" y="-109"/>
      <point x="122" y="-83" type="curve" smooth="yes"/>
      <point x="122" y="-54"/>
      <point x="146" y="-42"/>
      <point x="244" y="-30" type="curve" smooth="yes"/>
      <point x="359" y="-16"/>
      <point x="445" y="32"/>
      <point x="445" y="135" type="curve" smooth="yes"/>
      <point x="445" y="225"/>
      <point x="375" y="272"/>
      <point x="267" y="272" type="curve" smooth="yes"/>
      <point x="212" y="272" type="line"/>
      <point x="416" y="457" type="line"/>
      <point x="416" y="527" type="line"/>
      <point x="25" y="527" type="line"/>
      <point x="25" y="451" type="line"/>
      <point x="304" y="451" type="line"/>
      <point x="111" y="271" type="line"/>
      <point x="111" y="204" type="line"/>
      <point x="262" y="204" type="line" smooth="yes"/>
      <point x="314" y="204"/>
      <point x="346" y="183"/>
      <point x="346" y="136" type="curve" smooth="yes"/>
      <point x="346" y="73"/>
      <point x="296" y="53"/>
      <point x="194" y="41" type="curve" smooth="yes"/>
      <point x="80" y="28"/>
      <point x="28" y="-8"/>
      <point x="28" y="-75" type="curve" smooth="yes"/>
      <point x="28" y="-133"/>
      <point x="73" y="-178"/>
      <point x="161" y="-215" type="curve"/>
    </contour>
    <contour>
      <point x="221" y="527" type="move" name="top"/>
    </contour>
  </outline>
</glyph>
<glyph name="uni01BD" format="1">
  <advance width="452"/>
  <unicode hex="01BD"/>
  <outline>
    <contour>
      <point x="66" y="527" type="line"/>
      <point x="66" y="250" type="line"/>
      <point x="131" y="250" type="line"/>
      <point x="164" y="265"/>
      <point x="183" y="271"/>
      <point x="222" y="271" type="curve" smooth="yes"/>
      <point x="272" y="271"/>
      <point x="313" y="244"/>
      <point x="313" y="174" type="curve" smooth="yes"/>
      <point x="313" y="103"/>
      <point x="267" y="67"/>
      <point x="205" y="67" type="curve" smooth="yes"/>
      <point x="148" y="67"/>
      <point x="120" y="83"/>
      <point x="80" y="114" type="curve"/>
      <point x="30" y="59" type="line"/>
      <point x="75" y="16"/>
      <point x="126" y="-12"/>
      <point x="206" y="-12" type="curve" smooth="yes"/>
      <point x="332" y="-12"/>
      <point x="412" y="63"/>
      <point x="412" y="172" type="curve" smooth="yes"/>
      <point x="412" y="278"/>
      <point x="341" y="346"/>
      <point x="248" y="346" type="curve" smooth="yes"/>
      <point x="202" y="346"/>
      <point x="178" y="336"/>
      <point x="157" y="326" type="curve"/>
      <point x="157" y="451" type="line"/>
      <point x="365" y="451" type="line"/>
      <point x="381" y="527" type="line"/>
    </contour>
    <contour>
      <point x="226" y="527" type="move" name="top"/>
    </contour>
    <contour>
      <point x="226" y="0" type="move" name="bottom"/>
    </contour>
  </outline>
</glyph>
<glyph name="uni01BE" format="1">
  <advance width="513"/>
  <unicode hex="01BE"/>
  <outline>
    <contour>
      <point x="84" y="545" type="line"/>
      <point x="162" y="545" type="line"/>
      <point x="362" y="545" type="line"/>
      <point x="362" y="615" type="line"/>
      <point x="84" y="615" type="line"/>
    </contour>
    <component base="uni0296"/>
  </outline>
</glyph>
<glyph name="uni01BF" format="1">
  <advance width="589"/>
  <unicode hex="01BF"/>
  <outline>
    <contour>
      <point x="95" y="527" type="line"/>
      <point x="95" y="-213" type="line"/>
      <point x="187" y="-202" type="line"/>
      <point x="187" y="400" type="line"/>
      <point x="183" y="439" type="line"/>
      <point x="174" y="527" type="line"/>
    </contour>
    <contour>
      <point x="179" y="375" type="line"/>
      <point x="222" y="430"/>
      <point x="272" y="465"/>
      <point x="337" y="465" type="curve" smooth="yes"/>
      <point x="399" y="465"/>
      <point x="433" y="428"/>
      <point x="433" y="352" type="curve" smooth="yes"/>
      <point x="433" y="231"/>
      <point x="369" y="164"/>
      <point x="246" y="98" type="curve" smooth="yes"/>
      <point x="179" y="62" type="line"/>
      <point x="179" y="-14" type="line"/>
      <point x="258" y="27" type="line" smooth="yes"/>
      <point x="418" y="109"/>
      <point x="532" y="188"/>
      <point x="532" y="354" type="curve" smooth="yes"/>
      <point x="532" y="472"/>
      <point x="457" y="539"/>
      <point x="358" y="539" type="curve" smooth="yes"/>
      <point x="270" y="539"/>
      <point x="219" y="498"/>
      <point x="174" y="442" type="curve"/>
    </contour>
  </outline>
</glyph>
<glyph name="uni01C0" format="1">
  <advance width="286"/>
  <unicode hex="01C0"/>
  <outline>
    <contour>
      <point x="100" y="739" type="line"/>
      <point x="100" y="0" type="line"/>
      <point x="186" y="0" type="line"/>
      <point x="186" y="749" type="line"/>
    </contour>
  </outline>
</glyph>
<glyph name="uni01C3" format="1">
  <advance width="339"/>
  <unicode hex="01C3"/>
  <outline>
    <contour>
      <point x="126" y="739" type="line"/>
      <point x="126" y="210" type="line"/>
      <point x="212" y="210" type="line"/>
      <point x="212" y="749" type="line"/>
    </contour>
    <contour>
      <point x="130" y="127"/>
      <point x="100" y="96"/>
      <point x="100" y="58" type="curve" smooth="yes"/>
      <point x="100" y="19"/>
      <point x="130" y="-12"/>
      <point x="169" y="-12" type="curve" smooth="yes"/>
      <point x="209" y="-12"/>
      <point x="239" y="19"/>
      <point x="239" y="58" type="curve" smooth="yes"/>
      <point x="239" y="96"/>
      <point x="209" y="127"/>
      <point x="169" y="127" type="curve" smooth="yes"/>
    </contour>
  </outline>
</glyph>
<glyph name="uni01E4" format="1">
  <advance width="641"/>
  <unicode hex="01E4"/>
  <outline>
    <contour>
      <point x="197" y="701"/>
      <point x="55" y="577"/>
      <point x="55" y="345" type="curve" smooth="yes"/>
      <point x="55" y="107"/>
      <point x="166" y="-12"/>
      <point x="337" y="-12" type="curve" smooth="yes"/>
      <point x="434" y="-12"/>
      <point x="506" y="12"/>
      <point x="569" y="49" type="curve"/>
      <point x="569" y="382" type="line"/>
      <point x="342" y="382" type="line"/>
      <point x="353" y="305" type="line"/>
      <point x="475" y="305" type="line"/>
      <point x="475" y="98" type="line"/>
      <point x="436" y="75"/>
      <point x="390" y="66"/>
      <point x="344" y="66" type="curve" smooth="yes"/>
      <point x="223" y="66"/>
      <point x="156" y="147"/>
      <point x="156" y="345" type="curve" smooth="yes"/>
      <point x="156" y="548"/>
      <point x="255" y="623"/>
      <point x="354" y="623" type="curve" smooth="yes"/>
      <point x="416" y="623"/>
      <point x="457" y="606"/>
      <point x="505" y="567" type="curve"/>
      <point x="561" y="625" type="line"/>
      <point x="502" y="674"/>
      <point x="445" y="701"/>
      <point x="352" y="701" type="curve" smooth="yes"/>
    </contour>
    <component base="hyphen" xOffset="293" yOffset="-105"/>
  </outline>
</glyph>
<glyph name="uni01E5" format="1">
  <advance width="520"/>
  <unicode hex="01E5"/>
  <outline>
    <contour>
      <point x="431" y="558"/>
      <point x="383" y="536"/>
      <point x="252" y="539" type="curve" smooth="yes"/>
      <point x="136" y="539"/>
      <point x="49" y="463"/>
      <point x="49" y="355" type="curve" smooth="yes"/>
      <point x="49" y="287"/>
      <point x="77" y="241"/>
      <point x="138" y="209" type="curve"/>
      <point x="100" y="184"/>
      <point x="80" y="150"/>
      <point x="80" y="116" type="curve" smooth="yes"/>
      <point x="80" y="63"/>
      <point x="122" y="21"/>
      <point x="216" y="21" type="curve" smooth="yes"/>
      <point x="299" y="21" type="line" smooth="yes"/>
      <point x="370" y="21"/>
      <point x="415" y="-4"/>
      <point x="415" y="-59" type="curve" smooth="yes"/>
      <point x="415" y="-112"/>
      <point x="370" y="-141"/>
      <point x="251" y="-141" type="curve" smooth="yes"/>
      <point x="135" y="-141"/>
      <point x="108" y="-113"/>
      <point x="108" y="-53" type="curve"/>
      <point x="25" y="-53" type="line"/>
      <point x="25" y="-160"/>
      <point x="79" y="-213"/>
      <point x="251" y="-213" type="curve" smooth="yes"/>
      <point x="414" y="-213"/>
      <point x="498" y="-155"/>
      <point x="498" y="-53" type="curve" smooth="yes"/>
      <point x="498" y="31"/>
      <point x="426" y="93"/>
      <point x="318" y="93" type="curve" smooth="yes"/>
      <point x="234" y="93" type="line" smooth="yes"/>
      <point x="180" y="93"/>
      <point x="165" y="112"/>
      <point x="165" y="136" type="curve" smooth="yes"/>
      <point x="165" y="155"/>
      <point x="176" y="174"/>
      <point x="191" y="185" type="curve"/>
      <point x="213" y="178"/>
      <point x="234" y="175"/>
      <point x="258" y="175" type="curve" smooth="yes"/>
      <point x="384" y="175"/>
      <point x="459" y="250"/>
      <point x="459" y="354" type="curve" smooth="yes"/>
      <point x="459" y="415"/>
      <point x="428" y="459"/>
      <point x="366" y="487" type="curve"/>
      <point x="426" y="487"/>
      <point x="476" y="489"/>
      <point x="520" y="503" type="curve"/>
      <point x="493" y="586" type="line"/>
    </contour>
    <contour>
      <point x="327" y="473"/>
      <point x="365" y="433"/>
      <point x="365" y="356" type="curve" smooth="yes"/>
      <point x="365" y="280"/>
      <point x="326" y="236"/>
      <point x="254" y="236" type="curve" smooth="yes"/>
      <point x="182" y="236"/>
      <point x="143" y="285"/>
      <point x="143" y="355" type="curve" smooth="yes"/>
      <point x="143" y="424"/>
      <point x="181" y="473"/>
      <point x="252" y="473" type="curve" smooth="yes"/>
    </contour>
    <component base="hyphen" xOffset="205" yOffset="-305" yScale="0.8"/>
    <contour>
      <point x="260" y="527" type="move" name="top"/>
    </contour>
    <contour>
      <point x="260" y="-202" type="move" name="bottom"/>
    </contour>
  </outline>
</glyph>
<glyph name="uni01F6" format="1">
  <advance width="969"/>
  <unicode hex="01F6"/>
  <outline>
    <contour>
      <point x="195" y="0" type="line"/>
      <point x="195" y="323" type="line"/>
      <point x="485" y="323" type="line"/>
      <point x="485" y="252" type="line"/>
      <point x="580" y="252" type="line"/>
      <point x="580" y="689" type="line"/>
      <point x="485" y="689" type="line"/>
      <point x="485" y="401" type="line"/>
      <point x="195" y="401" type="line"/>
      <point x="195" y="689" type="line"/>
      <point x="100" y="689" type="line"/>
      <point x="100" y="0" type="line"/>
    </contour>
    <contour>
      <point x="779" y="-12"/>
      <point x="899" y="66"/>
      <point x="899" y="255" type="curve" smooth="yes"/>
      <point x="899" y="358"/>
      <point x="889" y="440"/>
      <point x="873" y="527" type="curve"/>
      <point x="780" y="527" type="line"/>
      <point x="799" y="428"/>
      <point x="806" y="338"/>
      <point x="806" y="263" type="curve" smooth="yes"/>
      <point x="806" y="106"/>
      <point x="730" y="62"/>
      <point x="671" y="62" type="curve" smooth="yes"/>
      <point x="613" y="62"/>
      <point x="580" y="97"/>
      <point x="580" y="171" type="curve" smooth="yes"/>
      <point x="580" y="527" type="line"/>
      <point x="485" y="527" type="line"/>
      <point x="485" y="163" type="line" smooth="yes"/>
      <point x="485" y="50"/>
      <point x="569" y="-12"/>
      <point x="667" y="-12" type="curve" smooth="yes"/>
    </contour>
  </outline>
</glyph>
<glyph name="uni01F7" format="1">
  <advance width="581"/>
  <unicode hex="01F7"/>
  <outline>
    <contour>
      <point x="179" y="545" type="line"/>
      <point x="222" y="598"/>
      <point x="276" y="623"/>
      <point x="337" y="623" type="curve" smooth="yes"/>
      <point x="406" y="623"/>
      <point x="448" y="586"/>
      <point x="448" y="511" type="curve" smooth="yes"/>
      <point x="448" y="410"/>
      <point x="372" y="351"/>
      <point x="278" y="313" type="curve" smooth="yes"/>
      <point x="179" y="273" type="line"/>
      <point x="179" y="195" type="line"/>
      <point x="282" y="235" type="line" smooth="yes"/>
      <point x="424" y="290"/>
      <point x="549" y="360"/>
      <point x="549" y="510" type="curve" smooth="yes"/>
      <point x="549" y="634"/>
      <point x="459" y="701"/>
      <point x="355" y="701" type="curve" smooth="yes"/>
      <point x="279" y="701"/>
      <point x="221" y="670"/>
      <point x="174" y="614" type="curve"/>
    </contour>
    <contour>
      <point x="100" y="689" type="line"/>
      <point x="100" y="0" type="line"/>
      <point x="195" y="0" type="line"/>
      <point x="195" y="689" type="line"/>
    </contour>
  </outline>
</glyph>
<glyph name="uni021C" format="1">
  <advance width="504"/>
  <unicode hex="021C"/>
  <outline>
    <contour>
      <point x="144" y="701"/>
      <point x="73" y="672"/>
      <point x="10" y="616" type="curve"/>
      <point x="60" y="559" type="line"/>
      <point x="111" y="601"/>
      <point x="163" y="623"/>
      <point x="220" y="623" type="curve" smooth="yes"/>
      <point x="303" y="623"/>
      <point x="337" y="575"/>
      <point x="337" y="512" type="curve" smooth="yes"/>
      <point x="337" y="436"/>
      <point x="285" y="393"/>
      <point x="206" y="393" type="curve" smooth="yes"/>
      <point x="152" y="393" type="line"/>
      <point x="139" y="315" type="line"/>
      <point x="205" y="315" type="line" smooth="yes"/>
      <point x="306" y="315"/>
      <point x="357" y="276"/>
      <point x="357" y="197" type="curve" smooth="yes"/>
      <point x="357" y="103"/>
      <point x="293" y="28"/>
      <point x="58" y="-22" type="curve"/>
      <point x="67" y="-102" type="line"/>
      <point x="345" y="-52"/>
      <point x="459" y="62"/>
      <point x="459" y="196" type="curve" smooth="yes"/>
      <point x="459" y="302"/>
      <point x="385" y="350"/>
      <point x="301" y="359" type="curve"/>
      <point x="381" y="377"/>
      <point x="436" y="427"/>
      <point x="436" y="519" type="curve" smooth="yes"/>
      <point x="436" y="621"/>
      <point x="367" y="701"/>
      <point x="228" y="701" type="curve" smooth="yes"/>
    </contour>
  </outline>
</glyph>
<glyph name="uni021D" format="1">
  <advance width="480"/>
  <unicode hex="021D"/>
  <outline>
    <contour>
      <point x="125" y="539"/>
      <point x="67" y="518"/>
      <point x="15" y="479" type="curve"/>
      <point x="59" y="424" type="line"/>
      <point x="98" y="450"/>
      <point x="136" y="467"/>
      <point x="195" y="467" type="curve" smooth="yes"/>
      <point x="252" y="467"/>
      <point x="300" y="449"/>
      <point x="300" y="388" type="curve" smooth="yes"/>
      <point x="300" y="324"/>
      <point x="245" y="301"/>
      <point x="176" y="301" type="curve" smooth="yes"/>
      <point x="132" y="301" type="line"/>
      <point x="126" y="229" type="line"/>
      <point x="226" y="229" type="line" smooth="yes"/>
      <point x="283" y="229"/>
      <point x="324" y="212"/>
      <point x="324" y="155" type="curve" smooth="yes"/>
      <point x="324" y="72"/>
      <point x="233" y="19"/>
      <point x="53" y="-35" type="curve"/>
      <point x="66" y="-102" type="line"/>
      <point x="291" y="-52"/>
      <point x="423" y="41"/>
      <point x="423" y="158" type="curve" smooth="yes"/>
      <point x="423" y="226"/>
      <point x="374" y="270"/>
      <point x="289" y="272" type="curve"/>
      <point x="363" y="292"/>
      <point x="395" y="328"/>
      <point x="395" y="392" type="curve" smooth="yes"/>
      <point x="395" y="490"/>
      <point x="303" y="539"/>
      <point x="205" y="539" type="curve" smooth="yes"/>
    </contour>
  </outline>
</glyph>
<glyph name="uni0220" format="1">
  <advance width="672"/>
  <unicode hex="0220"/>
  <outline>
    <contour>
      <point x="300" y="701"/>
      <point x="235" y="657"/>
      <point x="179" y="594" type="curve"/>
      <point x="195" y="530" type="line"/>
      <point x="250" y="586"/>
      <point x="295" y="623"/>
      <point x="374" y="623" type="curve" smooth="yes"/>
      <point x="452" y="623"/>
      <point x="484" y="577"/>
      <point x="484" y="488" type="curve" smooth="yes"/>
      <point x="484" y="-202" type="line"/>
      <point x="579" y="-202" type="line"/>
      <point x="579" y="507" type="line" smooth="yes"/>
      <point x="579" y="617"/>
      <point x="522" y="701"/>
      <point x="394" y="701" type="curve" smooth="yes"/>
    </contour>
    <contour>
      <point x="100" y="689" type="line"/>
      <point x="100" y="0" type="line"/>
      <point x="195" y="0" type="line"/>
      <point x="195" y="560" type="line"/>
      <point x="182" y="689" type="line"/>
    </contour>
    <contour>
      <point x="336" y="689" type="move" name="top"/>
    </contour>
    <contour>
      <point x="336" y="-202" type="move" name="bottom"/>
    </contour>
  </outline>
</glyph>
<glyph name="uni0221" format="1">
  <advance width="738"/>
  <unicode hex="0221"/>
  <outline>
    <contour>
      <point x="332" y="-12"/>
      <point x="389" y="26"/>
      <point x="422" y="88" type="curve"/>
      <point x="419" y="151" type="line"/>
      <point x="381" y="94"/>
      <point x="344" y="61"/>
      <point x="281" y="61" type="curve" smooth="yes"/>
      <point x="205" y="61"/>
      <point x="161" y="124"/>
      <point x="161" y="263" type="curve" smooth="yes"/>
      <point x="161" y="400"/>
      <point x="210" y="466"/>
      <point x="289" y="466" type="curve" smooth="yes"/>
      <point x="346" y="466"/>
      <point x="385" y="434"/>
      <point x="420" y="385" type="curve"/>
      <point x="421" y="463" type="line"/>
      <point x="385" y="505"/>
      <point x="337" y="539"/>
      <point x="269" y="539" type="curve" smooth="yes"/>
      <point x="140" y="539"/>
      <point x="62" y="422"/>
      <point x="62" y="261" type="curve" smooth="yes"/>
      <point x="62" y="97"/>
      <point x="133" y="-12"/>
      <point x="261" y="-12" type="curve" smooth="yes"/>
    </contour>
    <contour>
      <point x="531" y="10" type="line"/>
      <point x="548" y="46" type="line"/>
      <point x="586" y="133"/>
      <point x="606" y="157"/>
      <point x="641" y="157" type="curve" smooth="yes"/>
      <point x="665" y="157"/>
      <point x="677" y="144"/>
      <point x="677" y="121" type="curve" smooth="yes"/>
      <point x="677" y="85"/>
      <point x="650" y="66"/>
      <point x="587" y="66" type="curve" smooth="yes"/>
      <point x="520" y="66"/>
      <point x="503" y="80"/>
      <point x="503" y="140" type="curve"/>
      <point x="411" y="150" type="line"/>
      <point x="411" y="24"/>
      <point x="509" y="-12"/>
      <point x="587" y="-12" type="curve" smooth="yes"/>
      <point x="688" y="-12"/>
      <point x="758" y="38"/>
      <point x="758" y="121" type="curve" smooth="yes"/>
      <point x="758" y="183"/>
      <point x="714" y="224"/>
      <point x="649" y="224" type="curve" smooth="yes"/>
      <point x="579" y="224"/>
      <point x="540" y="182"/>
      <point x="508" y="106" type="curve"/>
      <point x="469" y="25" type="line"/>
      <point x="434" y="-50" type="line"/>
      <point x="493" y="-75" type="line"/>
    </contour>
    <contour>
      <point x="503" y="739" type="line"/>
      <point x="411" y="750" type="line"/>
      <point x="411" y="150" type="line"/>
      <point x="503" y="140" type="line"/>
    </contour>
  </outline>
</glyph>
<glyph name="uni0222" format="1">
  <advance width="652"/>
  <unicode hex="0222"/>
  <outline>
    <contour>
      <point x="154" y="411"/>
      <point x="55" y="325"/>
      <point x="55" y="208" type="curve" smooth="yes"/>
      <point x="55" y="92"/>
      <point x="154" y="-12"/>
      <point x="326" y="-12" type="curve" smooth="yes"/>
      <point x="499" y="-12"/>
      <point x="597" y="96"/>
      <point x="597" y="209" type="curve" smooth="yes"/>
      <point x="597" y="331"/>
      <point x="499" y="411"/>
      <point x="326" y="411" type="curve" smooth="yes"/>
    </contour>
    <contour>
      <point x="444" y="343"/>
      <point x="496" y="293"/>
      <point x="496" y="209" type="curve" smooth="yes"/>
      <point x="496" y="114"/>
      <point x="442" y="66"/>
      <point x="326" y="66" type="curve" smooth="yes"/>
      <point x="214" y="66"/>
      <point x="156" y="114"/>
      <point x="156" y="208" type="curve" smooth="yes"/>
      <point x="156" y="293"/>
      <point x="211" y="343"/>
      <point x="326" y="343" type="curve" smooth="yes"/>
    </contour>
    <contour>
      <point x="459" y="689" type="line"/>
      <point x="459" y="551" type="line" smooth="yes"/>
      <point x="459" y="484"/>
      <point x="426" y="421"/>
      <point x="327" y="421" type="curve" smooth="yes"/>
      <point x="229" y="421"/>
      <point x="195" y="474"/>
      <point x="195" y="551" type="curve" smooth="yes"/>
      <point x="195" y="689" type="line"/>
      <point x="100" y="689" type="line"/>
      <point x="100" y="546" type="line" smooth="yes"/>
      <point x="100" y="439"/>
      <point x="170" y="363"/>
      <point x="327" y="353" type="curve"/>
      <point x="472" y="363"/>
      <point x="555" y="439"/>
      <point x="555" y="546" type="curve" smooth="yes"/>
      <point x="555" y="689" type="line"/>
    </contour>
    <contour>
      <point x="326" y="689" type="move" name="top"/>
    </contour>
    <contour>
      <point x="326" y="0" type="move" name="bottom"/>
    </contour>
  </outline>
</glyph>
<glyph name="uni0223" format="1">
  <advance width="578"/>
  <unicode hex="0223"/>
  <outline>
    <contour>
      <point x="144" y="424"/>
      <point x="57" y="344"/>
      <point x="57" y="214" type="curve" smooth="yes"/>
      <point x="57" y="90"/>
      <point x="144" y="-12"/>
      <point x="289" y="-12" type="curve" smooth="yes"/>
      <point x="435" y="-12"/>
      <point x="521" y="94"/>
      <point x="521" y="215" type="curve" smooth="yes"/>
      <point x="521" y="350"/>
      <point x="435" y="424"/>
      <point x="289" y="424" type="curve" smooth="yes"/>
    </contour>
    <contour>
      <point x="380" y="366"/>
      <point x="422" y="314"/>
      <point x="422" y="215" type="curve" smooth="yes"/>
      <point x="422" y="108"/>
      <point x="378" y="62"/>
      <point x="289" y="62" type="curve" smooth="yes"/>
      <point x="204" y="62"/>
      <point x="156" y="108"/>
      <point x="156" y="214" type="curve" smooth="yes"/>
      <point x="156" y="314"/>
      <point x="201" y="366"/>
      <point x="289" y="366" type="curve" smooth="yes"/>
    </contour>
    <contour>
      <point x="393" y="739" type="line"/>
      <point x="393" y="557" type="line" smooth="yes"/>
      <point x="393" y="492"/>
      <point x="362" y="437"/>
      <point x="290" y="437" type="curve" smooth="yes"/>
      <point x="219" y="437"/>
      <point x="187" y="480"/>
      <point x="187" y="557" type="curve" smooth="yes"/>
      <point x="187" y="739" type="line"/>
      <point x="95" y="739" type="line"/>
      <point x="95" y="557" type="line" smooth="yes"/>
      <point x="95" y="458"/>
      <point x="160" y="389"/>
      <point x="290" y="379" type="curve"/>
      <point x="408" y="389"/>
      <point x="485" y="456"/>
      <point x="485" y="557" type="curve" smooth="yes"/>
      <point x="485" y="739" type="line"/>
    </contour>
  </outline>
</glyph>
<glyph name="uni0224" format="1">
  <advance width="522"/>
  <unicode hex="0224"/>
  <outline>
    <contour>
      <point x="66" y="689" type="line"/>
      <point x="66" y="609" type="line"/>
      <point x="374" y="609" type="line"/>
      <point x="30" y="76" type="line"/>
      <point x="30" y="0" type="line"/>
      <point x="471" y="0" type="line"/>
      <point x="471" y="81" type="line"/>
      <point x="136" y="81" type="line"/>
      <point x="477" y="612" type="line"/>
      <point x="477" y="689" type="line"/>
    </contour>
    <contour>
      <point x="412" y="-213"/>
      <point x="471" y="-161"/>
      <point x="471" y="-57" type="curve" smooth="yes"/>
      <point x="471" y="1" type="line"/>
      <point x="379" y="1" type="line"/>
      <point x="379" y="-63" type="line" smooth="yes"/>
      <point x="379" y="-114"/>
      <point x="357" y="-137"/>
      <point x="317" y="-137" type="curve" smooth="yes"/>
      <point x="282" y="-137"/>
      <point x="264" y="-128"/>
      <point x="241" y="-114" type="curve"/>
      <point x="205" y="-175" type="line"/>
      <point x="230" y="-194"/>
      <point x="267" y="-213"/>
      <point x="320" y="-213" type="curve" smooth="yes"/>
    </contour>
  </outline>
</glyph>
<glyph name="uni0225" format="1">
  <advance width="434"/>
  <unicode hex="0225"/>
  <outline>
    <contour>
      <point x="48" y="527" type="line"/>
      <point x="48" y="449" type="line"/>
      <point x="299" y="449" type="line"/>
      <point x="25" y="69" type="line"/>
      <point x="25" y="0" type="line"/>
      <point x="402" y="0" type="line"/>
      <point x="402" y="77" type="line"/>
      <point x="129" y="77" type="line"/>
      <point x="404" y="457" type="line"/>
      <point x="404" y="527" type="line"/>
    </contour>
    <contour>
      <point x="342" y="-213"/>
      <point x="402" y="-160"/>
      <point x="402" y="-57" type="curve" smooth="yes"/>
      <point x="402" y="1" type="line"/>
      <point x="313" y="1" type="line"/>
      <point x="313" y="-65" type="line" smooth="yes"/>
      <point x="313" y="-118"/>
      <point x="288" y="-139"/>
      <point x="246" y="-139" type="curve" smooth="yes"/>
      <point x="213" y="-139"/>
      <point x="195" y="-130"/>
      <point x="172" y="-117" type="curve"/>
      <point x="136" y="-175" type="line"/>
      <point x="161" y="-194"/>
      <point x="198" y="-213"/>
      <point x="251" y="-213" type="curve" smooth="yes"/>
    </contour>
  </outline>
</glyph>
<glyph name="uni0234" format="1">
  <advance width="417"/>
  <unicode hex="0234"/>
  <outline>
    <contour>
      <point x="182" y="140" type="line"/>
      <point x="182" y="750" type="line"/>
      <point x="90" y="739" type="line"/>
      <point x="90" y="150" type="line"/>
    </contour>
    <contour>
      <point x="210" y="10" type="line"/>
      <point x="227" y="46" type="line"/>
      <point x="265" y="133"/>
      <point x="285" y="157"/>
      <point x="320" y="157" type="curve" smooth="yes"/>
      <point x="344" y="157"/>
      <point x="356" y="144"/>
      <point x="356" y="121" type="curve" smooth="yes"/>
      <point x="356" y="85"/>
      <point x="329" y="66"/>
      <point x="266" y="66" type="curve" smooth="yes"/>
      <point x="199" y="66"/>
      <point x="182" y="80"/>
      <point x="182" y="140" type="curve"/>
      <point x="90" y="150" type="line"/>
      <point x="90" y="24"/>
      <point x="188" y="-12"/>
      <point x="266" y="-12" type="curve" smooth="yes"/>
      <point x="367" y="-12"/>
      <point x="437" y="38"/>
      <point x="437" y="121" type="curve" smooth="yes"/>
      <point x="437" y="183"/>
      <point x="393" y="224"/>
      <point x="328" y="224" type="curve" smooth="yes"/>
      <point x="258" y="224"/>
      <point x="219" y="182"/>
      <point x="187" y="106" type="curve"/>
      <point x="148" y="25" type="line"/>
      <point x="113" y="-50" type="line"/>
      <point x="172" y="-75" type="line"/>
    </contour>
    <contour>
      <point x="209" y="739" type="move" name="top"/>
    </contour>
    <contour>
      <point x="209" y="-202" type="move" name="bottom"/>
    </contour>
  </outline>
</glyph>
<glyph name="uni0235" format="1">
  <advance width="731"/>
  <unicode hex="0235"/>
  <outline>
    <contour>
      <point x="267" y="539"/>
      <point x="207" y="495"/>
      <point x="171" y="432" type="curve"/>
      <point x="187" y="374" type="line"/>
      <point x="222" y="430"/>
      <point x="262" y="467"/>
      <point x="321" y="467" type="curve" smooth="yes"/>
      <point x="372" y="467"/>
      <point x="404" y="444"/>
      <point x="404" y="365" type="curve" smooth="yes"/>
      <point x="404" y="150" type="line"/>
      <point x="496" y="140" type="line"/>
      <point x="496" y="378" type="line" smooth="yes"/>
      <point x="496" y="478"/>
      <point x="440" y="539"/>
      <point x="343" y="539" type="curve" smooth="yes"/>
    </contour>
    <contour>
      <point x="95" y="527" type="line"/>
      <point x="95" y="0" type="line"/>
      <point x="187" y="0" type="line"/>
      <point x="187" y="398" type="line"/>
      <point x="174" y="527" type="line"/>
    </contour>
    <contour>
      <point x="524" y="10" type="line"/>
      <point x="541" y="46" type="line"/>
      <point x="579" y="133"/>
      <point x="599" y="157"/>
      <point x="634" y="157" type="curve" smooth="yes"/>
      <point x="658" y="157"/>
      <point x="670" y="144"/>
      <point x="670" y="121" type="curve" smooth="yes"/>
      <point x="670" y="85"/>
      <point x="643" y="66"/>
      <point x="580" y="66" type="curve" smooth="yes"/>
      <point x="513" y="66"/>
      <point x="496" y="80"/>
      <point x="496" y="140" type="curve"/>
      <point x="404" y="150" type="line"/>
      <point x="404" y="24"/>
      <point x="502" y="-12"/>
      <point x="580" y="-12" type="curve" smooth="yes"/>
      <point x="681" y="-12"/>
      <point x="751" y="38"/>
      <point x="751" y="121" type="curve" smooth="yes"/>
      <point x="751" y="183"/>
      <point x="707" y="224"/>
      <point x="642" y="224" type="curve" smooth="yes"/>
      <point x="572" y="224"/>
      <point x="533" y="182"/>
      <point x="501" y="106" type="curve"/>
      <point x="462" y="25" type="line"/>
      <point x="427" y="-50" type="line"/>
      <point x="486" y="-75" type="line"/>
    </contour>
  </outline>
</glyph>
<glyph name="uni0236" format="1">
  <advance width="428"/>
  <unicode hex="0236"/>
  <outline>
    <contour>
      <point x="101" y="646" type="line"/>
      <point x="101" y="150" type="line"/>
      <point x="193" y="140" type="line"/>
      <point x="193" y="657" type="line"/>
    </contour>
    <contour>
      <point x="9" y="527" type="line"/>
      <point x="9" y="456" type="line"/>
      <point x="308" y="456" type="line"/>
      <point x="318" y="527" type="line"/>
    </contour>
    <contour>
      <point x="221" y="10" type="line"/>
      <point x="238" y="46" type="line"/>
      <point x="276" y="133"/>
      <point x="296" y="157"/>
      <point x="331" y="157" type="curve" smooth="yes"/>
      <point x="355" y="157"/>
      <point x="367" y="144"/>
      <point x="367" y="121" type="curve" smooth="yes"/>
      <point x="367" y="85"/>
      <point x="340" y="66"/>
      <point x="277" y="66" type="curve" smooth="yes"/>
      <point x="210" y="66"/>
      <point x="193" y="80"/>
      <point x="193" y="140" type="curve"/>
      <point x="101" y="150" type="line"/>
      <point x="101" y="14"/>
      <point x="199" y="-12"/>
      <point x="277" y="-12" type="curve" smooth="yes"/>
      <point x="378" y="-12"/>
      <point x="448" y="38"/>
      <point x="448" y="121" type="curve" smooth="yes"/>
      <point x="448" y="183"/>
      <point x="404" y="224"/>
      <point x="339" y="224" type="curve" smooth="yes"/>
      <point x="269" y="224"/>
      <point x="230" y="182"/>
      <point x="198" y="106" type="curve"/>
      <point x="159" y="25" type="line"/>
      <point x="124" y="-50" type="line"/>
      <point x="183" y="-75" type="line"/>
    </contour>
  </outline>
</glyph>
<glyph name="dotlessj" format="1">
  <advance width="280"/>
  <unicode hex="0237"/>
  <outline>
    <contour>
      <point x="93" y="527" type="line"/>
      <point x="93" y="26" type="line" smooth="yes"/>
      <point x="93" y="-87"/>
      <point x="60" y="-113"/>
      <point x="-9" y="-145" type="curve"/>
      <point x="18" y="-212" type="line"/>
      <point x="130" y="-162"/>
      <point x="185" y="-117"/>
      <point x="185" y="32" type="curve" smooth="yes"/>
      <point x="185" y="527" type="line"/>
    </contour>
    <contour>
      <point x="140" y="527" type="move" name="top"/>
    </contour>
    <contour>
      <point x="139" y="-202" type="move" name="bottom"/>
    </contour>
  </outline>
</glyph>
<glyph name="uni0238" format="1">
  <advance width="870"/>
  <unicode hex="0238"/>
  <outline>
    <contour>
      <point x="312" y="-12"/>
      <point x="369" y="26"/>
      <point x="402" y="88" type="curve"/>
      <point x="399" y="151" type="line"/>
      <point x="361" y="94"/>
      <point x="324" y="61"/>
      <point x="271" y="61" type="curve" smooth="yes"/>
      <point x="205" y="61"/>
      <point x="161" y="124"/>
      <point x="161" y="263" type="curve" smooth="yes"/>
      <point x="161" y="400"/>
      <point x="208" y="466"/>
      <point x="275" y="466" type="curve" smooth="yes"/>
      <point x="324" y="466"/>
      <point x="365" y="434"/>
      <point x="400" y="375" type="curve"/>
      <point x="401" y="448" type="line"/>
      <point x="365" y="505"/>
      <point x="315" y="539"/>
      <point x="257" y="539" type="curve" smooth="yes"/>
      <point x="138" y="539"/>
      <point x="62" y="422"/>
      <point x="62" y="261" type="curve" smooth="yes"/>
      <point x="62" y="97"/>
      <point x="133" y="-12"/>
      <point x="251" y="-12" type="curve" smooth="yes"/>
    </contour>
    <contour>
      <point x="472" y="0" type="line"/>
      <point x="483" y="80" type="line"/>
      <point x="483" y="750" type="line"/>
      <point x="391" y="739" type="line"/>
      <point x="391" y="89" type="line"/>
      <point x="402" y="0" type="line"/>
    </contour>
    <contour>
      <point x="729" y="-12"/>
      <point x="808" y="99"/>
      <point x="808" y="264" type="curve" smooth="yes"/>
      <point x="808" y="440"/>
      <point x="733" y="539"/>
      <point x="624" y="539" type="curve" smooth="yes"/>
      <point x="554" y="539"/>
      <point x="510" y="504"/>
      <point x="473" y="446" type="curve"/>
      <point x="475" y="376" type="line"/>
      <point x="502" y="417"/>
      <point x="536" y="466"/>
      <point x="600" y="466" type="curve" smooth="yes"/>
      <point x="664" y="466"/>
      <point x="709" y="414"/>
      <point x="709" y="264" type="curve" smooth="yes"/>
      <point x="709" y="120"/>
      <point x="656" y="61"/>
      <point x="596" y="61" type="curve" smooth="yes"/>
      <point x="536" y="61"/>
      <point x="512" y="97"/>
      <point x="480" y="152" type="curve"/>
      <point x="474" y="85" type="line"/>
      <point x="502" y="31"/>
      <point x="546" y="-12"/>
      <point x="611" y="-12" type="curve" smooth="yes"/>
    </contour>
  </outline>
</glyph>
